<?xml version="1.0" encoding="utf-8"?>
<!-- Generator: Adobe Illustrator 27.5.0, SVG Export Plug-In . SVG Version: 6.00 Build 0)  -->
<svg version="1.1" xmlns="http://www.w3.org/2000/svg" xmlns:xlink="http://www.w3.org/1999/xlink" x="0px" y="0px"
	 viewBox="0 0 750 500" style="enable-background:new 0 0 750 500;" xml:space="preserve">
<g id="Background_Simple">
	<g>
		<path style="fill:#92E3A9;" d="M661.337,427.119c33.512-52.555,42.112-118.877,32.533-179.698
			c-1.841-11.69-4.546-23.11-8.045-34.21c-23.491-74.518-83.883-134.175-155.359-165.624c-68.184-30-154.384-44.821-218.991,1.35
			c-42.54,30.401-66.636,79.119-105.584,113.219c-19.359,16.949-40.554,22.457-63.586,32.595
			C86.166,219.46,39.185,267.111,35.32,329.972c-2.246,36.528,6.666,69.137,23.261,97.147H661.337z"/>
		<path style="opacity:0.8;fill:#FFFFFF;" d="M661.337,427.119c33.512-52.555,42.112-118.877,32.533-179.698
			c-1.841-11.69-4.546-23.11-8.045-34.21c-23.491-74.518-83.883-134.175-155.359-165.624c-68.184-30-154.384-44.821-218.991,1.35
			c-42.54,30.401-66.636,79.119-105.584,113.219c-19.359,16.949-40.554,22.457-63.586,32.595
			C86.166,219.46,39.185,267.111,35.32,329.972c-2.246,36.528,6.666,69.137,23.261,97.147H661.337z"/>
	</g>
</g>
<g id="Clouds">
	<g>
		<path style="fill:none;stroke:#B2B2B2;stroke-linecap:round;stroke-linejoin:round;stroke-miterlimit:10;" d="M390.544,82.348
			c-0.228-0.704-0.465-1.412-0.72-2.121c-9.413-26.175-53.202-27.98-53.203,4.189c0,6.196-14.87,0-20.446,8.054
			c-5.576,8.054,0.62,13.011-6.815,15.489c-7.435,2.478-8.054-3.717-17.348-3.098c-9.293,0.62-8.054,9.293-11.152,11.771
			c-3.098,2.478-3.098,1.239-9.913,1.859c-6.815,0.619-8.054,5.576-8.054,5.576h162.945c0,0,6.196-18.587-4.956-25.402
			c-11.152-6.815-11.152,2.478-19.826-1.239C393.89,94.355,392.548,88.526,390.544,82.348z"/>
		<path style="fill:none;stroke:#B2B2B2;stroke-linecap:round;stroke-linejoin:round;stroke-miterlimit:10;" d="M396.179,117.289
			c0,0,3.375-10.433-4.91-18.104c-8.285-7.671-16.877-3.376-19.332,0c-2.455,3.375-2.455,9.819-6.444,10.433
			c-3.989,0.614-3.069-6.751-11.661-4.91c-8.592,1.841-5.216,10.433-9.206,12.274c-3.989,1.841-3.989-4.91-9.512-2.762
			c-5.523,2.148-5.217,6.137-5.217,6.137"/>
		<path style="fill:none;stroke:#B2B2B2;stroke-linecap:round;stroke-linejoin:round;stroke-miterlimit:10;" d="M352.105,96.442
			c0,0-6.833-5.466-15.716-1.367c-8.883,4.1-4.783,12.641-8.883,14.691c-4.1,2.05-6.15-0.342-11.274,2.05
			c-5.125,2.392-4.783,5.808-4.783,5.808"/>
	</g>
	<g>
		<path style="fill:none;stroke:#B2B2B2;stroke-linecap:round;stroke-linejoin:round;stroke-miterlimit:10;" d="M273.056,140.481
			c-0.099-0.306-0.202-0.614-0.313-0.923c-4.095-11.388-23.146-12.173-23.146,1.823c0,2.695-6.469,0-8.895,3.504
			c-2.426,3.504,0.27,5.66-2.965,6.739c-3.235,1.078-3.504-1.617-7.547-1.348c-4.043,0.27-3.504,4.043-4.852,5.121
			c-1.348,1.078-1.348,0.539-4.313,0.809s-3.504,2.426-3.504,2.426h70.891c0,0,2.695-8.086-2.156-11.051s-4.852,1.078-8.626-0.539
			C274.512,145.705,273.928,143.169,273.056,140.481z"/>
		<path style="fill:none;stroke:#B2B2B2;stroke-linecap:round;stroke-linejoin:round;stroke-miterlimit:10;" d="M275.507,155.682
			c0,0,1.468-4.539-2.136-7.876c-3.604-3.337-7.342-1.469-8.41,0c-1.068,1.469-1.068,4.272-2.803,4.539s-1.335-2.937-5.073-2.136
			c-3.738,0.801-2.269,4.539-4.005,5.34c-1.735,0.801-1.735-2.136-4.138-1.201c-2.403,0.934-2.27,2.67-2.27,2.67"/>
		<path style="fill:none;stroke:#B2B2B2;stroke-linecap:round;stroke-linejoin:round;stroke-miterlimit:10;" d="M256.333,146.613
			c0,0-2.973-2.378-6.837-0.595c-3.865,1.784-2.081,5.5-3.865,6.391s-2.675-0.149-4.905,0.892c-2.23,1.04-2.081,2.527-2.081,2.527"
			/>
	</g>
	<g>
		<path style="fill:none;stroke:#B2B2B2;stroke-linecap:round;stroke-linejoin:round;stroke-miterlimit:10;" d="M648.123,140.481
			c-0.099-0.306-0.202-0.614-0.313-0.923c-4.095-11.388-23.146-12.173-23.146,1.823c0,2.695-6.469,0-8.895,3.504
			c-2.426,3.504,0.27,5.66-2.965,6.739c-3.235,1.078-3.504-1.617-7.547-1.348c-4.043,0.27-3.504,4.043-4.852,5.121
			c-1.348,1.078-1.348,0.539-4.313,0.809c-2.965,0.27-3.504,2.426-3.504,2.426h70.891c0,0,2.695-8.086-2.156-11.051
			c-4.852-2.965-4.852,1.078-8.626-0.539C649.579,145.705,648.995,143.169,648.123,140.481z"/>
		<path style="fill:none;stroke:#B2B2B2;stroke-linecap:round;stroke-linejoin:round;stroke-miterlimit:10;" d="M650.574,155.682
			c0,0,1.468-4.539-2.136-7.876c-3.604-3.337-7.342-1.469-8.41,0c-1.068,1.469-1.068,4.272-2.804,4.539
			c-1.735,0.267-1.335-2.937-5.073-2.136c-3.738,0.801-2.269,4.539-4.005,5.34c-1.735,0.801-1.735-2.136-4.138-1.201
			c-2.403,0.934-2.269,2.67-2.269,2.67"/>
		<path style="fill:none;stroke:#B2B2B2;stroke-linecap:round;stroke-linejoin:round;stroke-miterlimit:10;" d="M631.4,146.613
			c0,0-2.973-2.378-6.837-0.595c-3.865,1.784-2.081,5.5-3.865,6.391c-1.784,0.892-2.675-0.149-4.905,0.892
			c-2.23,1.04-2.081,2.527-2.081,2.527"/>
	</g>
</g>
<g id="Plants">
	<g>
		<path style="fill:#263238;" d="M110.185,392.703c1.282,0.56,4.417,0.489,4.419,0.489c0.033-0.001-0.674-2.052-0.733-2.177
			c-0.688-1.439-2.863-3.815-4.634-3.576c-1.275,0.172-1.984,1.449-1.696,2.649C107.835,391.315,109.093,392.226,110.185,392.703z"
			/>
		<path style="fill:#263238;" d="M141.018,425.897c0.509-1.125,0.053-2.512-1.167-2.922c-1.693-0.569-4.278,1.354-5.225,2.638
			c-0.043,0.058-0.357,0.597-0.643,1.1h6.444C140.672,426.474,140.878,426.204,141.018,425.897z"/>
		<path style="fill:#263238;" d="M131.416,417.567c0.86,0.768,3.029,1.514,3.772,1.755c-0.131,0.616-0.26,1.233-0.414,1.823
			c-0.114,0.401-0.197,0.795-0.334,1.192c-0.128,0.395-0.254,0.787-0.379,1.174c-0.268,0.737-0.541,1.5-0.821,2.213
			c-0.131,0.341-0.262,0.663-0.393,0.988h1.053c0.081-0.215,0.162-0.427,0.243-0.652c0.27-0.737,0.518-1.479,0.788-2.278
			c0.117-0.39,0.235-0.784,0.354-1.182c0.126-0.392,0.21-0.822,0.318-1.237c0.23-0.967,0.417-1.958,0.582-2.96
			c0.646,0.235,2.95,1.037,4.144,0.953c1.188-0.083,2.679-0.52,3.367-1.577c0.674-1.035,0.434-2.475-0.71-3.065
			c-1.588-0.819-4.434,0.691-5.564,1.816c-0.071,0.07-0.791,0.969-1.177,1.47c0.095-0.603,0.193-1.205,0.269-1.819
			c0.22-1.771,0.387-3.57,0.562-5.365c0.053-0.55,0.113-1.097,0.171-1.645c0.229,0.086,2.947,1.098,4.285,1.004
			c1.188-0.083,2.679-0.52,3.367-1.577c0.674-1.035,0.433-2.475-0.71-3.064c-1.587-0.819-4.433,0.691-5.564,1.816
			c-0.085,0.085-1.12,1.379-1.367,1.721c0.128-1.207,0.266-2.408,0.45-3.586c0.252-1.627,0.59-3.209,1.029-4.717
			c0.107,0.04,2.939,1.11,4.309,1.013c1.188-0.083,2.679-0.52,3.367-1.577c0.674-1.034,0.433-2.474-0.71-3.064
			c-1.587-0.819-4.434,0.691-5.564,1.816c-0.089,0.088-1.202,1.482-1.385,1.749c0.027-0.09,0.044-0.185,0.071-0.275
			c0.491-1.604,1.167-3.097,1.869-4.464c0.406-0.795,0.839-1.532,1.276-2.24c0.507,0.253,2.838,1.385,4.08,1.435
			c1.19,0.048,2.72-0.223,3.52-1.197c0.783-0.954,0.702-2.412-0.369-3.124c-1.488-0.988-4.482,0.2-5.73,1.194
			c-0.068,0.054-0.697,0.68-1.148,1.142c0.202-0.316,0.405-0.647,0.605-0.946c0.747-1.125,1.501-2.109,2.175-2.976
			c0.387-0.49,0.748-0.925,1.089-1.328c0.627-0.011,3.155-0.088,4.26-0.607c1.078-0.506,2.311-1.451,2.572-2.685
			c0.255-1.208-0.488-2.465-1.768-2.602c-1.776-0.191-3.886,2.242-4.535,3.7c-0.056,0.126-0.707,2.196-0.674,2.196
			c0,0,0.031,0,0.038,0c-0.336,0.382-0.692,0.795-1.072,1.254c-0.695,0.854-1.472,1.824-2.246,2.938
			c-0.777,1.111-1.59,2.339-2.329,3.711c-0.743,1.373-1.454,2.856-1.99,4.479c-0.006,0.018-0.01,0.038-0.016,0.056
			c0.009-0.523-0.014-1.987-0.029-2.099c-0.205-1.582-1.531-4.518-3.287-4.843c-1.265-0.234-2.337,0.758-2.438,1.988
			c-0.103,1.257,0.808,2.514,1.697,3.309c1.002,0.895,3.783,1.762,4.005,1.83c-0.496,1.55-0.878,3.181-1.175,4.853
			c-0.171,0.956-0.313,1.923-0.443,2.896c-0.007-0.453-0.016-0.858-0.023-0.914c-0.205-1.582-1.531-4.518-3.287-4.842
			c-1.266-0.234-2.337,0.757-2.438,1.988c-0.103,1.257,0.808,2.515,1.697,3.308c0.902,0.805,3.258,1.592,3.885,1.792
			c-0.046,0.374-0.096,0.746-0.141,1.12c-0.214,1.793-0.42,3.582-0.676,5.332c-0.09,0.617-0.201,1.22-0.31,1.825
			c-0.007-0.402-0.015-0.741-0.022-0.792c-0.205-1.582-1.531-4.518-3.287-4.842c-1.265-0.234-2.337,0.758-2.438,1.988
			C129.617,415.515,130.528,416.773,131.416,417.567z"/>
		<path style="fill:#263238;" d="M111.267,401.785c1.329,0.194,4.128-0.618,4.35-0.683c0.442,1.566,1.022,3.138,1.697,4.696
			c0.385,0.891,0.8,1.777,1.228,2.659c-0.255-0.374-0.486-0.706-0.523-0.749c-1.044-1.206-3.769-2.923-5.413-2.225
			c-1.185,0.503-1.531,1.921-0.937,3.003c0.607,1.105,2.061,1.652,3.241,1.823c1.196,0.174,3.596-0.469,4.228-0.648
			c0.168,0.337,0.331,0.675,0.5,1.011c0.81,1.613,1.626,3.22,2.377,4.82c0.265,0.564,0.505,1.129,0.748,1.693
			c-0.227-0.332-0.421-0.609-0.455-0.649c-1.044-1.206-3.769-2.924-5.413-2.225c-1.184,0.503-1.531,1.921-0.937,3.003
			c0.607,1.105,2.062,1.651,3.24,1.823c1.142,0.166,3.361-0.408,4.114-0.617c0.231,0.585,0.464,1.171,0.661,1.749
			c0.126,0.398,0.275,0.772,0.379,1.178c0.112,0.4,0.222,0.796,0.332,1.189c0.183,0.763,0.377,1.55,0.536,2.298
			c0.115,0.52,0.215,1.018,0.318,1.519c-0.257-0.564-0.785-1.658-0.839-1.745c-0.849-1.35-3.282-3.46-5.014-3.02
			c-1.247,0.318-1.805,1.667-1.381,2.827c0.398,1.09,1.576,1.816,2.649,2.197h5.663c-0.028-0.124-0.053-0.244-0.081-0.369
			c0.209-0.083,1.393-0.562,2.443-1.149c0.477,0.517,1.341,1.077,2.104,1.518h1.654c0.091-0.62,0.193-1.384,0.195-1.464
			c0.024-1.059-0.352-2.782-1.101-3.993c0.005-0.156-0.004-0.313-0.029-0.467c-0.196-1.219-1.341-2.125-2.585-1.793
			c-1.726,0.459-2.821,3.489-2.903,5.082c-0.005,0.094,0.057,1.119,0.106,1.766c-0.087-0.376-0.167-0.741-0.261-1.126
			c-0.181-0.763-0.384-1.52-0.6-2.335c-0.118-0.39-0.237-0.783-0.357-1.181c-0.111-0.397-0.278-0.802-0.417-1.207
			c-0.342-0.933-0.733-1.863-1.148-2.79c0.668-0.16,3.033-0.763,3.982-1.491c0.945-0.725,1.948-1.912,1.938-3.173
			c-0.009-1.234-1.003-2.303-2.283-2.164c-1.776,0.193-3.317,3.022-3.639,4.584c-0.02,0.098-0.125,1.244-0.171,1.876
			c-0.254-0.556-0.504-1.111-0.779-1.665c-0.794-1.598-1.647-3.192-2.491-4.785c-0.259-0.488-0.511-0.977-0.765-1.466
			c0.239-0.054,3.065-0.71,4.128-1.526c0.945-0.725,1.948-1.912,1.939-3.173c-0.009-1.235-1.004-2.303-2.283-2.164
			c-1.776,0.193-3.317,3.022-3.639,4.584c-0.024,0.118-0.173,1.768-0.191,2.19c-0.559-1.077-1.106-2.155-1.603-3.24
			c-0.687-1.496-1.279-3.001-1.743-4.502c0.111-0.025,3.063-0.696,4.153-1.532c0.945-0.725,1.948-1.912,1.939-3.173
			c-0.009-1.235-1.004-2.303-2.283-2.164c-1.776,0.193-3.317,3.022-3.639,4.584c-0.025,0.123-0.185,1.898-0.191,2.223
			c-0.028-0.089-0.066-0.179-0.092-0.268c-0.476-1.609-0.735-3.227-0.904-4.754c-0.099-0.887-0.145-1.74-0.171-2.572
			c0.563-0.069,3.131-0.411,4.194-1.054c1.019-0.617,2.146-1.686,2.275-2.94c0.127-1.228-0.745-2.4-2.032-2.402
			c-1.786-0.003-3.629,2.639-4.12,4.156c-0.027,0.083-0.206,0.952-0.327,1.586c-0.006-0.375-0.019-0.763-0.017-1.122
			c0.002-1.351,0.088-2.587,0.172-3.682c0.053-0.622,0.114-1.184,0.175-1.708c0.517-0.356,2.583-1.814,3.219-2.856
			c0.62-1.017,1.127-2.485,0.664-3.658c-0.454-1.148-1.767-1.786-2.91-1.195c-1.587,0.82-2.004,4.014-1.742,5.588
			c0.023,0.136,0.622,2.221,0.649,2.203c0,0,0.025-0.017,0.031-0.021c-0.07,0.504-0.139,1.045-0.202,1.637
			c-0.109,1.095-0.221,2.333-0.253,3.689c-0.035,1.355-0.036,2.828,0.104,4.38c0.138,1.556,0.363,3.185,0.811,4.833
			c0.005,0.019,0.013,0.037,0.018,0.056c-0.281-0.441-1.108-1.649-1.182-1.735c-1.044-1.206-3.769-2.923-5.413-2.225
			c-1.185,0.503-1.532,1.921-0.937,3.004C108.634,401.067,110.088,401.613,111.267,401.785z"/>
		<path style="fill:#263238;" d="M141.897,393.393c0.028,0.017,0.57-2.084,0.589-2.22c0.22-1.58-0.284-4.762-1.892-5.539
			c-1.159-0.56-2.454,0.113-2.876,1.273c-0.431,1.185,0.115,2.639,0.763,3.639C139.241,391.721,141.895,393.392,141.897,393.393z"/>
	</g>
	<g>
		<path style="fill:#263238;" d="M78.952,405.798c0.788,0.344,2.716,0.301,2.718,0.301c0.02,0-0.414-1.262-0.451-1.339
			c-0.423-0.885-1.761-2.346-2.85-2.199c-0.784,0.106-1.22,0.891-1.043,1.629C77.507,404.944,78.28,405.505,78.952,405.798z"/>
		<path style="fill:#263238;" d="M97.913,426.211c0.313-0.692,0.033-1.545-0.717-1.797c-1.041-0.35-2.631,0.833-3.213,1.622
			c-0.026,0.036-0.219,0.367-0.395,0.676h3.963C97.701,426.566,97.827,426.4,97.913,426.211z"/>
		<path style="fill:#263238;" d="M92.008,421.088c0.529,0.473,1.863,0.931,2.32,1.079c-0.08,0.379-0.16,0.758-0.255,1.121
			c-0.07,0.247-0.121,0.489-0.205,0.733c-0.078,0.243-0.156,0.484-0.233,0.722c-0.165,0.453-0.332,0.922-0.505,1.361
			c-0.08,0.21-0.161,0.408-0.242,0.608h0.647c0.05-0.132,0.1-0.263,0.149-0.401c0.166-0.453,0.319-0.91,0.485-1.401
			c0.072-0.24,0.144-0.482,0.217-0.727c0.078-0.241,0.129-0.506,0.196-0.761c0.141-0.595,0.256-1.204,0.358-1.82
			c0.397,0.145,1.814,0.637,2.548,0.586c0.731-0.051,1.648-0.32,2.071-0.97c0.414-0.636,0.267-1.522-0.437-1.885
			c-0.976-0.503-2.727,0.425-3.422,1.117c-0.043,0.043-0.487,0.596-0.724,0.904c0.058-0.371,0.118-0.741,0.165-1.118
			c0.135-1.089,0.238-2.196,0.346-3.299c0.033-0.338,0.07-0.674,0.105-1.011c0.141,0.053,1.813,0.675,2.635,0.618
			c0.731-0.051,1.647-0.32,2.071-0.97c0.414-0.636,0.267-1.522-0.437-1.885c-0.976-0.504-2.727,0.425-3.422,1.117
			c-0.052,0.052-0.689,0.848-0.841,1.059c0.079-0.742,0.164-1.481,0.277-2.206c0.155-1,0.363-1.973,0.633-2.901
			c0.066,0.025,1.808,0.682,2.65,0.623c0.731-0.051,1.648-0.32,2.071-0.97c0.414-0.636,0.266-1.522-0.437-1.885
			c-0.976-0.503-2.727,0.425-3.422,1.117c-0.055,0.054-0.739,0.911-0.852,1.075c0.016-0.055,0.027-0.114,0.044-0.169
			c0.302-0.987,0.717-1.905,1.149-2.745c0.25-0.489,0.516-0.942,0.785-1.377c0.312,0.156,1.745,0.852,2.509,0.882
			c0.732,0.029,1.673-0.137,2.165-0.736c0.482-0.587,0.432-1.483-0.227-1.921c-0.915-0.608-2.757,0.123-3.524,0.734
			c-0.042,0.033-0.428,0.418-0.706,0.703c0.124-0.194,0.249-0.398,0.372-0.582c0.46-0.692,0.923-1.297,1.338-1.83
			c0.238-0.301,0.46-0.569,0.669-0.817c0.386-0.007,1.94-0.054,2.62-0.373c0.663-0.311,1.421-0.892,1.582-1.651
			c0.157-0.743-0.3-1.516-1.087-1.6c-1.092-0.118-2.39,1.379-2.789,2.275c-0.034,0.077-0.435,1.35-0.415,1.35c0,0,0.019,0,0.023,0
			c-0.207,0.235-0.426,0.489-0.659,0.771c-0.427,0.525-0.905,1.122-1.382,1.806c-0.478,0.683-0.978,1.439-1.432,2.282
			c-0.457,0.845-0.894,1.757-1.224,2.754c-0.004,0.011-0.006,0.023-0.01,0.035c0.006-0.322-0.008-1.222-0.018-1.291
			c-0.126-0.973-0.941-2.778-2.022-2.978c-0.778-0.144-1.437,0.466-1.499,1.223c-0.063,0.773,0.497,1.546,1.044,2.035
			c0.616,0.55,2.327,1.083,2.463,1.125c-0.305,0.953-0.54,1.956-0.723,2.984c-0.105,0.588-0.192,1.183-0.272,1.781
			c-0.004-0.278-0.01-0.527-0.014-0.562c-0.126-0.973-0.942-2.778-2.022-2.978c-0.778-0.144-1.437,0.466-1.499,1.223
			c-0.063,0.773,0.497,1.546,1.043,2.034c0.555,0.495,2.004,0.979,2.389,1.102c-0.028,0.23-0.059,0.459-0.087,0.688
			c-0.132,1.102-0.258,2.203-0.416,3.279c-0.055,0.379-0.123,0.75-0.19,1.122c-0.004-0.247-0.009-0.455-0.013-0.487
			c-0.126-0.973-0.941-2.778-2.022-2.978c-0.778-0.144-1.437,0.466-1.499,1.223C90.902,419.827,91.462,420.6,92.008,421.088z"/>
		<path style="fill:#263238;" d="M79.617,411.383c0.818,0.119,2.538-0.38,2.675-0.42c0.272,0.963,0.628,1.93,1.044,2.888
			c0.237,0.548,0.492,1.093,0.755,1.635c-0.157-0.23-0.299-0.434-0.322-0.461c-0.642-0.742-2.318-1.798-3.329-1.368
			c-0.729,0.309-0.942,1.181-0.576,1.847c0.373,0.68,1.268,1.016,1.993,1.121c0.736,0.107,2.211-0.289,2.6-0.399
			c0.103,0.207,0.204,0.415,0.308,0.622c0.498,0.992,1,1.98,1.462,2.964c0.163,0.347,0.311,0.694,0.46,1.041
			c-0.14-0.204-0.259-0.375-0.28-0.399c-0.642-0.742-2.318-1.798-3.329-1.368c-0.728,0.309-0.942,1.181-0.576,1.847
			c0.374,0.68,1.268,1.016,1.993,1.121c0.702,0.102,2.067-0.251,2.53-0.379c0.142,0.36,0.285,0.72,0.406,1.076
			c0.077,0.245,0.169,0.475,0.233,0.724c0.069,0.246,0.137,0.49,0.204,0.731c0.112,0.469,0.231,0.953,0.33,1.414
			c0.071,0.32,0.132,0.626,0.195,0.934c-0.158-0.347-0.482-1.02-0.516-1.073c-0.522-0.83-2.019-2.128-3.083-1.857
			c-0.767,0.195-1.11,1.025-0.849,1.738c0.245,0.67,0.969,1.117,1.629,1.351h3.483c-0.017-0.076-0.033-0.15-0.05-0.227
			c0.128-0.051,0.857-0.346,1.502-0.706c0.294,0.318,0.825,0.662,1.294,0.933h1.017c0.056-0.382,0.119-0.851,0.12-0.9
			c0.015-0.652-0.216-1.711-0.677-2.456c0.003-0.096-0.003-0.192-0.018-0.287c-0.12-0.75-0.825-1.306-1.59-1.103
			c-1.062,0.283-1.735,2.146-1.785,3.125c-0.003,0.058,0.035,0.688,0.065,1.086c-0.053-0.231-0.103-0.456-0.161-0.693
			c-0.111-0.469-0.236-0.935-0.369-1.436c-0.072-0.24-0.146-0.482-0.22-0.726c-0.068-0.244-0.171-0.493-0.256-0.743
			c-0.21-0.574-0.451-1.146-0.706-1.716c0.411-0.099,1.865-0.469,2.449-0.917c0.581-0.446,1.198-1.176,1.192-1.951
			c-0.005-0.759-0.617-1.416-1.404-1.331c-1.092,0.118-2.04,1.858-2.238,2.819c-0.013,0.06-0.077,0.765-0.105,1.153
			c-0.156-0.342-0.31-0.684-0.479-1.024c-0.488-0.983-1.013-1.963-1.532-2.943c-0.159-0.3-0.314-0.601-0.47-0.901
			c0.147-0.033,1.885-0.437,2.538-0.938c0.581-0.446,1.198-1.176,1.192-1.951c-0.005-0.759-0.617-1.416-1.404-1.331
			c-1.092,0.119-2.04,1.858-2.238,2.819c-0.015,0.072-0.107,1.087-0.117,1.347c-0.344-0.662-0.68-1.325-0.986-1.992
			c-0.423-0.92-0.786-1.846-1.072-2.769c0.068-0.016,1.884-0.428,2.554-0.942c0.581-0.446,1.198-1.176,1.192-1.951
			c-0.005-0.759-0.617-1.416-1.404-1.331c-1.092,0.119-2.04,1.858-2.238,2.819c-0.016,0.076-0.114,1.168-0.117,1.367
			c-0.017-0.055-0.041-0.11-0.057-0.165c-0.293-0.989-0.452-1.985-0.556-2.924c-0.061-0.545-0.089-1.07-0.105-1.582
			c0.346-0.042,1.925-0.252,2.579-0.648c0.627-0.38,1.32-1.037,1.399-1.808c0.078-0.755-0.458-1.476-1.249-1.477
			c-1.098-0.002-2.231,1.623-2.534,2.556c-0.017,0.051-0.127,0.585-0.201,0.975c-0.004-0.231-0.012-0.469-0.011-0.69
			c0.001-0.831,0.054-1.591,0.106-2.264c0.033-0.383,0.07-0.728,0.108-1.051c0.318-0.219,1.589-1.115,1.979-1.757
			c0.381-0.626,0.693-1.528,0.409-2.25c-0.279-0.706-1.086-1.099-1.789-0.735c-0.976,0.504-1.233,2.469-1.071,3.436
			c0.014,0.084,0.383,1.366,0.399,1.355c0,0,0.016-0.011,0.019-0.013c-0.043,0.31-0.085,0.642-0.124,1.007
			c-0.067,0.673-0.136,1.435-0.156,2.269c-0.022,0.833-0.022,1.739,0.064,2.693c0.085,0.957,0.223,1.959,0.499,2.973
			c0.003,0.012,0.008,0.023,0.011,0.034c-0.173-0.271-0.681-1.014-0.727-1.067c-0.642-0.742-2.318-1.798-3.329-1.369
			c-0.728,0.31-0.942,1.181-0.576,1.847C77.998,410.941,78.892,411.277,79.617,411.383z"/>
		<path style="fill:#263238;" d="M98.454,406.222c0.017,0.011,0.351-1.281,0.362-1.365c0.135-0.971-0.174-2.928-1.163-3.406
			c-0.713-0.344-1.509,0.07-1.769,0.783c-0.265,0.729,0.071,1.623,0.469,2.238C96.82,405.194,98.452,406.221,98.454,406.222z"/>
	</g>
	<g>
		<path style="fill:#263238;" d="M601.879,405.798c0.788,0.344,2.716,0.301,2.718,0.301c0.02,0-0.414-1.262-0.451-1.339
			c-0.423-0.885-1.761-2.346-2.849-2.199c-0.784,0.106-1.22,0.891-1.043,1.629C600.434,404.944,601.207,405.505,601.879,405.798z"/>
		<path style="fill:#263238;" d="M620.84,426.211c0.313-0.692,0.033-1.545-0.718-1.797c-1.041-0.35-2.631,0.833-3.213,1.622
			c-0.026,0.036-0.219,0.367-0.395,0.676h3.963C620.628,426.566,620.754,426.4,620.84,426.211z"/>
		<path style="fill:#263238;" d="M614.935,421.088c0.529,0.473,1.863,0.931,2.32,1.079c-0.08,0.379-0.16,0.758-0.255,1.121
			c-0.07,0.247-0.121,0.489-0.205,0.733c-0.078,0.243-0.156,0.484-0.233,0.722c-0.165,0.453-0.333,0.922-0.505,1.361
			c-0.081,0.21-0.161,0.408-0.242,0.608h0.647c0.05-0.132,0.1-0.263,0.15-0.401c0.166-0.453,0.319-0.91,0.484-1.401
			c0.072-0.24,0.144-0.482,0.218-0.727c0.078-0.241,0.129-0.506,0.196-0.761c0.141-0.595,0.256-1.204,0.358-1.82
			c0.397,0.145,1.814,0.637,2.549,0.586c0.731-0.051,1.648-0.32,2.071-0.97c0.414-0.636,0.267-1.522-0.437-1.885
			c-0.976-0.503-2.727,0.425-3.422,1.117c-0.043,0.043-0.487,0.596-0.724,0.904c0.058-0.371,0.118-0.741,0.165-1.118
			c0.135-1.089,0.238-2.196,0.346-3.299c0.033-0.338,0.07-0.674,0.105-1.011c0.141,0.053,1.813,0.675,2.635,0.618
			c0.731-0.051,1.648-0.32,2.071-0.97c0.414-0.636,0.267-1.522-0.437-1.885c-0.976-0.504-2.726,0.425-3.422,1.117
			c-0.052,0.052-0.689,0.848-0.841,1.059c0.079-0.742,0.164-1.481,0.277-2.206c0.155-1,0.362-1.973,0.633-2.901
			c0.065,0.025,1.808,0.682,2.65,0.623c0.731-0.051,1.648-0.32,2.071-0.97c0.414-0.636,0.266-1.522-0.437-1.885
			c-0.976-0.503-2.727,0.425-3.422,1.117c-0.055,0.054-0.739,0.911-0.852,1.075c0.016-0.055,0.027-0.114,0.044-0.169
			c0.302-0.987,0.717-1.905,1.149-2.745c0.25-0.489,0.516-0.942,0.785-1.377c0.312,0.156,1.745,0.852,2.509,0.882
			c0.732,0.029,1.673-0.137,2.165-0.736c0.482-0.587,0.432-1.483-0.227-1.921c-0.915-0.608-2.757,0.123-3.524,0.734
			c-0.042,0.033-0.428,0.418-0.706,0.703c0.124-0.194,0.249-0.398,0.372-0.582c0.46-0.692,0.923-1.297,1.338-1.83
			c0.238-0.301,0.46-0.569,0.669-0.817c0.386-0.007,1.94-0.054,2.62-0.373c0.663-0.311,1.422-0.892,1.582-1.651
			c0.157-0.743-0.3-1.516-1.087-1.6c-1.092-0.118-2.39,1.379-2.789,2.275c-0.034,0.077-0.435,1.35-0.414,1.35c0,0,0.019,0,0.023,0
			c-0.207,0.235-0.426,0.489-0.659,0.771c-0.427,0.525-0.905,1.122-1.382,1.806c-0.478,0.683-0.978,1.439-1.432,2.282
			c-0.457,0.845-0.895,1.757-1.224,2.754c-0.004,0.011-0.006,0.023-0.01,0.035c0.006-0.322-0.009-1.222-0.018-1.291
			c-0.126-0.973-0.941-2.778-2.022-2.978c-0.778-0.144-1.437,0.466-1.499,1.223c-0.063,0.773,0.497,1.546,1.043,2.035
			c0.616,0.55,2.327,1.083,2.463,1.125c-0.305,0.953-0.54,1.956-0.722,2.984c-0.105,0.588-0.192,1.183-0.272,1.781
			c-0.004-0.278-0.01-0.527-0.014-0.562c-0.126-0.973-0.941-2.778-2.022-2.978c-0.778-0.144-1.437,0.466-1.499,1.223
			c-0.063,0.773,0.497,1.546,1.043,2.034c0.555,0.495,2.004,0.979,2.389,1.102c-0.028,0.23-0.059,0.459-0.086,0.688
			c-0.132,1.102-0.259,2.203-0.416,3.279c-0.055,0.379-0.124,0.75-0.191,1.122c-0.004-0.247-0.009-0.455-0.013-0.487
			c-0.126-0.973-0.941-2.778-2.022-2.978c-0.778-0.144-1.437,0.466-1.499,1.223C613.829,419.827,614.389,420.6,614.935,421.088z"/>
		<path style="fill:#263238;" d="M602.544,411.383c0.818,0.119,2.538-0.38,2.675-0.42c0.272,0.963,0.628,1.93,1.044,2.888
			c0.237,0.548,0.492,1.093,0.755,1.635c-0.157-0.23-0.299-0.434-0.322-0.461c-0.642-0.742-2.318-1.798-3.329-1.368
			c-0.728,0.309-0.942,1.181-0.576,1.847c0.373,0.68,1.268,1.016,1.993,1.121c0.735,0.107,2.211-0.289,2.6-0.399
			c0.103,0.207,0.204,0.415,0.308,0.622c0.498,0.992,1,1.98,1.462,2.964c0.163,0.347,0.311,0.694,0.46,1.041
			c-0.14-0.204-0.259-0.375-0.28-0.399c-0.642-0.742-2.318-1.798-3.329-1.368c-0.728,0.309-0.942,1.181-0.576,1.847
			c0.373,0.68,1.268,1.016,1.993,1.121c0.702,0.102,2.067-0.251,2.53-0.379c0.142,0.36,0.285,0.72,0.406,1.076
			c0.077,0.245,0.169,0.475,0.233,0.724c0.069,0.246,0.137,0.49,0.204,0.731c0.112,0.469,0.232,0.953,0.33,1.414
			c0.071,0.32,0.133,0.626,0.195,0.934c-0.158-0.347-0.482-1.02-0.516-1.073c-0.522-0.83-2.019-2.128-3.083-1.857
			c-0.767,0.195-1.11,1.025-0.849,1.738c0.245,0.67,0.969,1.117,1.629,1.351h3.483c-0.017-0.076-0.033-0.15-0.05-0.227
			c0.129-0.051,0.857-0.346,1.502-0.706c0.294,0.318,0.825,0.662,1.294,0.933h1.017c0.056-0.382,0.119-0.851,0.12-0.9
			c0.015-0.652-0.216-1.711-0.677-2.456c0.003-0.096-0.003-0.192-0.018-0.287c-0.12-0.75-0.825-1.306-1.589-1.103
			c-1.062,0.283-1.735,2.146-1.785,3.125c-0.003,0.058,0.035,0.688,0.065,1.086c-0.053-0.231-0.103-0.456-0.161-0.693
			c-0.111-0.469-0.236-0.935-0.369-1.436c-0.072-0.24-0.146-0.482-0.22-0.726c-0.068-0.244-0.171-0.493-0.256-0.743
			c-0.21-0.574-0.451-1.146-0.706-1.716c0.411-0.099,1.865-0.469,2.449-0.917c0.581-0.446,1.198-1.176,1.192-1.951
			c-0.005-0.759-0.617-1.416-1.404-1.331c-1.092,0.118-2.04,1.858-2.238,2.819c-0.013,0.06-0.077,0.765-0.105,1.153
			c-0.156-0.342-0.31-0.684-0.479-1.024c-0.488-0.983-1.013-1.963-1.532-2.943c-0.159-0.3-0.314-0.601-0.471-0.901
			c0.147-0.033,1.885-0.437,2.539-0.938c0.581-0.446,1.198-1.176,1.192-1.951c-0.005-0.759-0.617-1.416-1.404-1.331
			c-1.092,0.119-2.04,1.858-2.238,2.819c-0.015,0.072-0.106,1.087-0.117,1.347c-0.344-0.662-0.681-1.325-0.986-1.992
			c-0.422-0.92-0.786-1.846-1.072-2.769c0.068-0.016,1.884-0.428,2.554-0.942c0.581-0.446,1.198-1.176,1.192-1.951
			c-0.005-0.759-0.617-1.416-1.404-1.331c-1.092,0.119-2.04,1.858-2.238,2.819c-0.016,0.076-0.114,1.168-0.117,1.367
			c-0.017-0.055-0.041-0.11-0.057-0.165c-0.293-0.989-0.452-1.985-0.556-2.924c-0.061-0.545-0.089-1.07-0.105-1.582
			c0.346-0.042,1.925-0.252,2.579-0.648c0.626-0.38,1.319-1.037,1.399-1.808c0.078-0.755-0.458-1.476-1.25-1.477
			c-1.098-0.002-2.231,1.623-2.534,2.556c-0.017,0.051-0.127,0.585-0.201,0.975c-0.003-0.231-0.012-0.469-0.01-0.69
			c0.001-0.831,0.054-1.591,0.106-2.264c0.033-0.383,0.07-0.728,0.108-1.051c0.318-0.219,1.588-1.115,1.979-1.757
			c0.381-0.626,0.693-1.528,0.408-2.25c-0.279-0.706-1.086-1.099-1.789-0.735c-0.976,0.504-1.233,2.469-1.071,3.436
			c0.014,0.084,0.383,1.366,0.399,1.355c0,0,0.016-0.011,0.019-0.013c-0.043,0.31-0.085,0.642-0.124,1.007
			c-0.067,0.673-0.136,1.435-0.156,2.269c-0.022,0.833-0.022,1.739,0.064,2.693c0.085,0.957,0.223,1.959,0.499,2.973
			c0.003,0.012,0.008,0.023,0.011,0.034c-0.173-0.271-0.681-1.014-0.727-1.067c-0.642-0.742-2.318-1.798-3.329-1.369
			c-0.728,0.31-0.942,1.181-0.576,1.847C600.925,410.941,601.819,411.277,602.544,411.383z"/>
		<path style="fill:#263238;" d="M621.381,406.222c0.017,0.011,0.351-1.281,0.362-1.365c0.135-0.971-0.174-2.928-1.163-3.406
			c-0.713-0.344-1.509,0.07-1.769,0.783c-0.265,0.729,0.071,1.623,0.469,2.238C619.747,405.194,621.38,406.221,621.381,406.222z"/>
	</g>
</g>
<g id="Trees">
	<g>
		<path style="fill:#92E3A9;" d="M69.378,161.256c0,0,44.727,4.425,67.396,32.152c0,0,23.95-32.12,66.967-31.462
			c12.483-15.046,19.992-34.367,19.999-55.444c0.016-48.014-38.893-86.95-86.906-86.966c-48.014-0.017-86.95,38.893-86.966,86.906
			c-0.007,20.813,7.304,39.918,19.497,54.889L69.378,161.256z"/>
		<path style="opacity:0.4;fill:#FFFFFF;" d="M69.378,161.256c0,0,44.727,4.425,67.396,32.152c0,0,23.95-32.12,66.967-31.462
			c12.483-15.046,19.992-34.367,19.999-55.444c0.016-48.014-38.893-86.95-86.906-86.966c-48.014-0.017-86.95,38.893-86.966,86.906
			c-0.007,20.813,7.304,39.918,19.497,54.889L69.378,161.256z"/>
		<path style="fill:#263238;" d="M179.836,110.973c0,0-26.739,6.338-41.494,27.838l-0.842-31.275l0.06,0.417
			c0,0,15.099-27.178,42.277-35.482c0,0-27.981,6.641-42.49,29.359l-2.052-42.095l-0.636,60.338
			C120.441,98.462,94.528,92.1,94.528,92.1c22.887,7.248,36.894,28.867,40.088,34.252l-0.209,31.102
			c-14.269-21.312-39.879-27.607-39.879-27.607c22.343,7.075,36.217,27.839,39.837,33.834l-0.581,263.54h7.549l-1.833-245.387
			c4.871-7.376,18.809-25.781,40.335-32.358c0,0-25.565,6.064-40.494,26.436l-0.836-31.033
			C142.184,138.983,156.584,118.078,179.836,110.973z"/>
		<path style="fill:#263238;" d="M179.836,110.973c0,0-26.739,6.338-41.494,27.838l-0.842-31.275l0.06,0.417
			c0,0,15.099-27.178,42.277-35.482c0,0-27.981,6.641-42.49,29.359l-2.052-42.095l-0.636,60.338
			C120.441,98.462,94.528,92.1,94.528,92.1c22.887,7.248,36.894,28.867,40.088,34.252l-0.209,31.102
			c-14.269-21.312-39.879-27.607-39.879-27.607c22.343,7.075,36.217,27.839,39.837,33.834l-0.581,263.54h7.549l-1.833-245.387
			c4.871-7.376,18.809-25.781,40.335-32.358c0,0-25.565,6.064-40.494,26.436l-0.836-31.033
			C142.184,138.983,156.584,118.078,179.836,110.973z"/>
	</g>
	<g>
		<path style="fill:#92E3A9;" d="M35.126,304.653c0,0,36.469,3.608,54.952,26.216c0,0,19.528-26.19,54.603-25.653
			c10.178-12.268,16.301-28.022,16.307-45.207c0.013-39.149-31.712-70.896-70.86-70.909c-39.149-0.013-70.896,31.712-70.909,70.86
			c-0.006,16.971,5.955,32.548,15.897,44.755L35.126,304.653z"/>
		<path style="opacity:0.4;fill:#FFFFFF;" d="M35.126,304.653c0,0,36.469,3.608,54.952,26.216c0,0,19.528-26.19,54.603-25.653
			c10.178-12.268,16.301-28.022,16.307-45.207c0.013-39.149-31.712-70.896-70.86-70.909c-39.149-0.013-70.896,31.712-70.909,70.86
			c-0.006,16.971,5.955,32.548,15.897,44.755L35.126,304.653z"/>
		<path style="fill:#263238;" d="M55.632,279.042c18.218,5.769,29.53,22.699,32.482,27.587l-0.265,120.49h5.243L92.301,321.43
			c3.971-6.014,15.337-21.021,32.888-26.384c0,0-20.845,4.944-33.018,21.555l-0.682-25.303c2.999-4.807,14.741-21.852,33.699-27.645
			c0,0-21.802,5.168-33.832,22.698l-0.687-25.5l0.049,0.34c0,0,12.311-22.16,34.471-28.931c0,0-22.815,5.415-34.645,23.938
			l-1.673-34.323l-0.518,49.198c-11.593-17.621-32.721-22.809-32.721-22.809c18.661,5.91,30.082,23.537,32.687,27.928l-0.171,25.359
			C76.513,284.176,55.632,279.042,55.632,279.042z"/>
		<path style="fill:#263238;" d="M55.632,279.042c18.218,5.769,29.53,22.699,32.482,27.587l-0.265,120.49h5.243L92.301,321.43
			c3.971-6.014,15.337-21.021,32.888-26.384c0,0-20.845,4.944-33.018,21.555l-0.682-25.303c2.999-4.807,14.741-21.852,33.699-27.645
			c0,0-21.802,5.168-33.832,22.698l-0.687-25.5l0.049,0.34c0,0,12.311-22.16,34.471-28.931c0,0-22.815,5.415-34.645,23.938
			l-1.673-34.323l-0.518,49.198c-11.593-17.621-32.721-22.809-32.721-22.809c18.661,5.91,30.082,23.537,32.687,27.928l-0.171,25.359
			C76.513,284.176,55.632,279.042,55.632,279.042z"/>
	</g>
	<g>
		<path style="fill:#92E3A9;" d="M560.36,304.653c0,0,36.469,3.608,54.952,26.216c0,0,19.528-26.19,54.603-25.653
			c10.178-12.268,16.301-28.022,16.307-45.207c0.013-39.149-31.712-70.896-70.86-70.909c-39.149-0.013-70.896,31.712-70.91,70.86
			c-0.006,16.971,5.956,32.548,15.897,44.755L560.36,304.653z"/>
		<path style="opacity:0.4;fill:#FFFFFF;" d="M560.36,304.653c0,0,36.469,3.608,54.952,26.216c0,0,19.528-26.19,54.603-25.653
			c10.178-12.268,16.301-28.022,16.307-45.207c0.013-39.149-31.712-70.896-70.86-70.909c-39.149-0.013-70.896,31.712-70.91,70.86
			c-0.006,16.971,5.956,32.548,15.897,44.755L560.36,304.653z"/>
		<path style="fill:#263238;" d="M580.866,279.042c18.218,5.769,29.531,22.699,32.482,27.587l-0.265,120.49h5.242l-0.789-105.689
			c3.971-6.014,15.337-21.021,32.888-26.384c0,0-20.845,4.944-33.018,21.555l-0.682-25.303c2.999-4.807,14.741-21.852,33.699-27.645
			c0,0-21.802,5.168-33.832,22.698l-0.687-25.5l0.049,0.34c0,0,12.311-22.16,34.471-28.931c0,0-22.815,5.415-34.645,23.938
			l-1.673-34.323l-0.518,49.198c-11.593-17.621-32.721-22.809-32.721-22.809c18.661,5.91,30.082,23.537,32.687,27.928l-0.171,25.359
			C601.747,284.176,580.866,279.042,580.866,279.042z"/>
		<path style="fill:#263238;" d="M580.866,279.042c18.218,5.769,29.531,22.699,32.482,27.587l-0.265,120.49h5.242l-0.789-105.689
			c3.971-6.014,15.337-21.021,32.888-26.384c0,0-20.845,4.944-33.018,21.555l-0.682-25.303c2.999-4.807,14.741-21.852,33.699-27.645
			c0,0-21.802,5.168-33.832,22.698l-0.687-25.5l0.049,0.34c0,0,12.311-22.16,34.471-28.931c0,0-22.815,5.415-34.645,23.938
			l-1.673-34.323l-0.518,49.198c-11.593-17.621-32.721-22.809-32.721-22.809c18.661,5.91,30.082,23.537,32.687,27.928l-0.171,25.359
			C601.747,284.176,580.866,279.042,580.866,279.042z"/>
	</g>
</g>
<g id="Arrows">
	<g>
		<g>
			<g>
				
					<line style="fill:none;stroke:#263238;stroke-linecap:round;stroke-linejoin:round;" x1="506.737" y1="143.233" x2="470.703" y2="179.267"/>
				<g>
					<polygon style="fill:#263238;" points="465.71,184.26 469.87,174.35 471.076,178.894 475.619,180.099 					"/>
				</g>
			</g>
		</g>
		<g>
			<g>
				
					<line style="fill:none;stroke:#263238;stroke-linecap:round;stroke-linejoin:round;" x1="525.622" y1="150.396" x2="508.334" y2="180.111"/>
				<g>
					<polygon style="fill:#263238;" points="504.783,186.214 506.273,175.57 508.599,179.655 513.3,179.658 					"/>
				</g>
			</g>
		</g>
		<g>
			<g>
				
					<line style="fill:none;stroke:#263238;stroke-linecap:round;stroke-linejoin:round;" x1="514.552" y1="110.021" x2="402.67" y2="179.87"/>
				<g>
					<polygon style="fill:#263238;" points="396.681,183.609 402.967,174.891 403.118,179.59 407.273,181.788 					"/>
				</g>
			</g>
		</g>
	</g>
</g>
<g id="Sun">
	<g>
		
			<ellipse transform="matrix(0.9791 -0.2036 0.2036 0.9791 -7.0785 114.761)" style="fill:#92E3A9;stroke:#263238;stroke-miterlimit:10;" cx="554.276" cy="91.787" rx="32.561" ry="32.561"/>
		<line style="fill:none;stroke:#263238;stroke-miterlimit:10;" x1="554.276" y1="35.131" x2="554.276" y2="50.76"/>
		<line style="fill:none;stroke:#263238;stroke-miterlimit:10;" x1="554.276" y1="132.814" x2="554.276" y2="148.443"/>
		<line style="fill:none;stroke:#263238;stroke-miterlimit:10;" x1="610.932" y1="91.787" x2="595.303" y2="91.787"/>
		<line style="fill:none;stroke:#263238;stroke-miterlimit:10;" x1="513.249" y1="91.787" x2="497.62" y2="91.787"/>
		<line style="fill:none;stroke:#263238;stroke-miterlimit:10;" x1="594.338" y1="51.725" x2="583.286" y2="62.776"/>
		<line style="fill:none;stroke:#263238;stroke-miterlimit:10;" x1="525.266" y1="120.797" x2="514.214" y2="131.849"/>
		<line style="fill:none;stroke:#263238;stroke-miterlimit:10;" x1="514.214" y1="51.725" x2="525.266" y2="62.776"/>
		<line style="fill:none;stroke:#263238;stroke-miterlimit:10;" x1="583.286" y1="120.797" x2="594.338" y2="131.849"/>
	</g>
</g>
<g id="House">
	<g>
		<rect x="160.743" y="319.613" style="fill:#FFFFFF;" width="416.159" height="107.07"/>
		<rect x="160.743" y="319.613" style="opacity:0.31;" width="416.159" height="19.06"/>
		
			<rect x="160.743" y="319.613" style="fill:none;stroke:#263238;stroke-linecap:round;stroke-linejoin:round;stroke-miterlimit:10;" width="416.159" height="107.07"/>
		
			<rect x="156.476" y="319.613" style="fill:#FFFFFF;stroke:#263238;stroke-linecap:round;stroke-linejoin:round;stroke-miterlimit:10;" width="424.692" height="4.903"/>
		<polygon style="fill:#263238;stroke:#263238;stroke-linecap:round;stroke-linejoin:round;stroke-miterlimit:10;" points="
			582.289,319.687 151.93,319.687 187.794,196.728 546.425,196.728 		"/>
		<g>
			<g>
				<polygon style="fill:#92E3A9;stroke:#FFFFFF;stroke-miterlimit:10;" points="238.387,300.262 173.68,300.262 198.31,208.908 
					255.098,209.146 				"/>
				<line style="fill:#92E3A9;stroke:#FFFFFF;stroke-miterlimit:10;" x1="212.291" y1="209.089" x2="189.689" y2="300.104"/>
				<line style="fill:#92E3A9;stroke:#FFFFFF;stroke-miterlimit:10;" x1="226.969" y1="209.15" x2="206.409" y2="300.104"/>
				<line style="fill:#92E3A9;stroke:#FFFFFF;stroke-miterlimit:10;" x1="241.628" y1="209.211" x2="223.103" y2="300.104"/>
				<line style="fill:#92E3A9;stroke:#FFFFFF;stroke-miterlimit:10;" x1="194.986" y1="221.576" x2="253.21" y2="221.786"/>
				<line style="fill:#92E3A9;stroke:#FFFFFF;stroke-miterlimit:10;" x1="191.076" y1="236.087" x2="250.564" y2="236.261"/>
				<line style="fill:#92E3A9;stroke:#FFFFFF;stroke-miterlimit:10;" x1="186.993" y1="251.238" x2="247.802" y2="251.374"/>
				<line style="fill:#92E3A9;stroke:#FFFFFF;stroke-miterlimit:10;" x1="182.726" y1="267.074" x2="244.915" y2="267.168"/>
				<line style="fill:#92E3A9;stroke:#FFFFFF;stroke-miterlimit:10;" x1="178.262" y1="283.641" x2="241.896" y2="283.689"/>
			</g>
			<polygon style="fill:#92E3A9;stroke:#FFFFFF;stroke-miterlimit:10;" points="313.979,300.262 249.72,300.262 265.049,209.188 
				321.491,209.424 			"/>
			<line style="fill:#92E3A9;stroke:#FFFFFF;stroke-miterlimit:10;" x1="278.957" y1="209.367" x2="265.603" y2="300.104"/>
			<line style="fill:#92E3A9;stroke:#FFFFFF;stroke-miterlimit:10;" x1="293.546" y1="209.428" x2="282.207" y2="300.104"/>
			<line style="fill:#92E3A9;stroke:#FFFFFF;stroke-miterlimit:10;" x1="308.115" y1="209.489" x2="298.786" y2="300.104"/>
			<line style="fill:#92E3A9;stroke:#FFFFFF;stroke-miterlimit:10;" x1="263.014" y1="221.821" x2="320.876" y2="222.029"/>
			<line style="fill:#92E3A9;stroke:#FFFFFF;stroke-miterlimit:10;" x1="260.581" y1="236.291" x2="319.691" y2="236.464"/>
			<line style="fill:#92E3A9;stroke:#FFFFFF;stroke-miterlimit:10;" x1="258.04" y1="251.398" x2="318.455" y2="251.533"/>
			<line style="fill:#92E3A9;stroke:#FFFFFF;stroke-miterlimit:10;" x1="255.385" y1="267.184" x2="317.163" y2="267.278"/>
			<line style="fill:#92E3A9;stroke:#FFFFFF;stroke-miterlimit:10;" x1="252.608" y1="283.697" x2="315.811" y2="283.745"/>
		</g>
		<g>
			<g>
				<polygon style="fill:#92E3A9;stroke:#FFFFFF;stroke-miterlimit:10;" points="494.766,300.262 559.474,300.262 534.844,208.908 
					478.055,209.146 				"/>
				<line style="fill:#92E3A9;stroke:#FFFFFF;stroke-miterlimit:10;" x1="520.862" y1="209.089" x2="543.464" y2="300.104"/>
				<line style="fill:#92E3A9;stroke:#FFFFFF;stroke-miterlimit:10;" x1="506.184" y1="209.15" x2="526.744" y2="300.104"/>
				<line style="fill:#92E3A9;stroke:#FFFFFF;stroke-miterlimit:10;" x1="491.525" y1="209.211" x2="510.05" y2="300.104"/>
				<line style="fill:#92E3A9;stroke:#FFFFFF;stroke-miterlimit:10;" x1="538.167" y1="221.576" x2="479.944" y2="221.786"/>
				<line style="fill:#92E3A9;stroke:#FFFFFF;stroke-miterlimit:10;" x1="542.077" y1="236.087" x2="482.589" y2="236.261"/>
				<line style="fill:#92E3A9;stroke:#FFFFFF;stroke-miterlimit:10;" x1="546.16" y1="251.238" x2="485.351" y2="251.374"/>
				<line style="fill:#92E3A9;stroke:#FFFFFF;stroke-miterlimit:10;" x1="550.427" y1="267.074" x2="488.238" y2="267.168"/>
				<line style="fill:#92E3A9;stroke:#FFFFFF;stroke-miterlimit:10;" x1="554.892" y1="283.641" x2="491.257" y2="283.689"/>
			</g>
			<polygon style="fill:#92E3A9;stroke:#FFFFFF;stroke-miterlimit:10;" points="419.174,300.262 483.433,300.262 468.104,209.188 
				411.662,209.424 			"/>
			<line style="fill:#92E3A9;stroke:#FFFFFF;stroke-miterlimit:10;" x1="454.196" y1="209.367" x2="467.55" y2="300.104"/>
			<line style="fill:#92E3A9;stroke:#FFFFFF;stroke-miterlimit:10;" x1="439.607" y1="209.428" x2="450.946" y2="300.104"/>
			<line style="fill:#92E3A9;stroke:#FFFFFF;stroke-miterlimit:10;" x1="425.038" y1="209.489" x2="434.367" y2="300.104"/>
			<line style="fill:#92E3A9;stroke:#FFFFFF;stroke-miterlimit:10;" x1="470.139" y1="221.821" x2="412.278" y2="222.029"/>
			<line style="fill:#92E3A9;stroke:#FFFFFF;stroke-miterlimit:10;" x1="472.573" y1="236.291" x2="413.462" y2="236.464"/>
			<line style="fill:#92E3A9;stroke:#FFFFFF;stroke-miterlimit:10;" x1="475.113" y1="251.398" x2="414.699" y2="251.533"/>
			<line style="fill:#92E3A9;stroke:#FFFFFF;stroke-miterlimit:10;" x1="477.768" y1="267.184" x2="415.991" y2="267.278"/>
			<line style="fill:#92E3A9;stroke:#FFFFFF;stroke-miterlimit:10;" x1="480.545" y1="283.697" x2="417.342" y2="283.745"/>
		</g>
		<g>
			<rect x="336.77" y="338.658" style="fill:#CCCCCC;" width="8.045" height="13.934"/>
			<rect x="336.77" y="355.516" style="fill:#CCCCCC;" width="8.045" height="12.471"/>
			<rect x="336.77" y="370.911" style="fill:#CCCCCC;" width="8.045" height="12.472"/>
			<rect x="336.77" y="386.307" style="fill:#CCCCCC;" width="8.045" height="15.986"/>
			<rect x="325.029" y="386.307" style="fill:#CCCCCC;" width="9.686" height="15.986"/>
			<rect x="325.029" y="370.911" style="fill:#CCCCCC;" width="9.686" height="12.472"/>
			<rect x="325.029" y="355.516" style="fill:#CCCCCC;" width="9.686" height="12.471"/>
			<rect x="325.029" y="338.658" style="fill:#CCCCCC;" width="9.686" height="13.934"/>
		</g>
		<g>
			<rect x="403.538" y="338.658" style="fill:#CCCCCC;" width="8.045" height="13.934"/>
			<rect x="403.538" y="355.516" style="fill:#CCCCCC;" width="8.045" height="12.471"/>
			<rect x="403.538" y="370.911" style="fill:#CCCCCC;" width="8.045" height="12.472"/>
			<rect x="403.538" y="386.307" style="fill:#CCCCCC;" width="8.045" height="15.986"/>
			<rect x="391.796" y="386.307" style="fill:#CCCCCC;" width="9.686" height="15.986"/>
			<rect x="391.796" y="370.911" style="fill:#CCCCCC;" width="9.686" height="12.472"/>
			<rect x="391.796" y="355.516" style="fill:#CCCCCC;" width="9.686" height="12.471"/>
			<rect x="391.796" y="338.658" style="fill:#CCCCCC;" width="9.686" height="13.934"/>
		</g>
		<g>
			
				<rect x="347.61" y="337.984" style="fill:#92E3A9;stroke:#263238;stroke-linecap:round;stroke-linejoin:round;stroke-miterlimit:10;" width="41.751" height="79.977"/>
			
				<rect x="353.671" y="342.698" style="fill:none;stroke:#263238;stroke-width:0.5;stroke-linecap:round;stroke-linejoin:round;stroke-miterlimit:10;" width="30.303" height="39.057"/>
			
				<rect x="353.671" y="396.57" style="fill:none;stroke:#263238;stroke-width:0.5;stroke-linecap:round;stroke-linejoin:round;stroke-miterlimit:10;" width="30.303" height="16.162"/>
			
				<rect x="353.671" y="386.469" style="fill:none;stroke:#263238;stroke-width:0.5;stroke-linecap:round;stroke-linejoin:round;stroke-miterlimit:10;" width="30.303" height="6.061"/>
			<rect x="348.669" y="376.933" style="fill:#263238;" width="3.793" height="12.804"/>
		</g>
		<g>
			
				<circle style="fill:none;stroke:#263238;stroke-linecap:round;stroke-linejoin:round;stroke-miterlimit:10;" cx="369.159" cy="325.844" r="7.016"/>
			<g>
				
					<polygon style="fill:#FFFFFF;stroke:#263238;stroke-width:2;stroke-linecap:round;stroke-linejoin:round;stroke-miterlimit:10;" points="
					371.898,338.673 366.397,338.673 365.328,331.892 372.967,331.892 				"/>
				<polygon style="fill:#FFFFFF;stroke:#263238;stroke-linecap:round;stroke-linejoin:round;stroke-miterlimit:10;" points="
					371.361,326.506 366.935,326.506 364.631,331.878 373.664,331.878 				"/>
				
					<rect x="368.045" y="323.839" style="fill:#263238;stroke:#263238;stroke-linecap:round;stroke-linejoin:round;stroke-miterlimit:10;" width="2.205" height="2.606"/>
			</g>
		</g>
		<g>
			<g>
				<path style="fill:#FFFFFF;stroke:#263238;stroke-linecap:round;stroke-linejoin:round;stroke-miterlimit:10;" d="
					M330.934,327.805l10.747-3.382c16.194-5.097,33.575-5.261,49.866-0.473l13.114,3.855h21.39V302.04l-59.502-70.452
					l-58.381,70.452v25.765H330.934z"/>
				<g>
					
						<rect x="308.168" y="417.257" style="fill:#263238;stroke:#263238;stroke-linecap:round;stroke-linejoin:round;stroke-miterlimit:10;" width="117.883" height="9.425"/>
					<g>
						
							<line style="fill:none;stroke:#B0B0B0;stroke-linecap:round;stroke-linejoin:round;stroke-miterlimit:10;" x1="332.048" y1="418.218" x2="332.048" y2="425.6"/>
						
							<line style="fill:none;stroke:#B0B0B0;stroke-linecap:round;stroke-linejoin:round;stroke-miterlimit:10;" x1="338.146" y1="418.218" x2="338.146" y2="425.6"/>
						
							<line style="fill:none;stroke:#B0B0B0;stroke-linecap:round;stroke-linejoin:round;stroke-miterlimit:10;" x1="344.243" y1="418.218" x2="344.243" y2="425.6"/>
						
							<line style="fill:none;stroke:#B0B0B0;stroke-linecap:round;stroke-linejoin:round;stroke-miterlimit:10;" x1="350.341" y1="418.218" x2="350.341" y2="425.6"/>
						
							<line style="fill:none;stroke:#B0B0B0;stroke-linecap:round;stroke-linejoin:round;stroke-miterlimit:10;" x1="356.439" y1="418.218" x2="356.439" y2="425.6"/>
						
							<line style="fill:none;stroke:#B0B0B0;stroke-linecap:round;stroke-linejoin:round;stroke-miterlimit:10;" x1="362.537" y1="418.218" x2="362.537" y2="425.6"/>
						
							<line style="fill:none;stroke:#B0B0B0;stroke-linecap:round;stroke-linejoin:round;stroke-miterlimit:10;" x1="368.635" y1="418.218" x2="368.635" y2="425.6"/>
						
							<line style="fill:none;stroke:#B0B0B0;stroke-linecap:round;stroke-linejoin:round;stroke-miterlimit:10;" x1="374.733" y1="418.218" x2="374.733" y2="425.6"/>
						
							<line style="fill:none;stroke:#B0B0B0;stroke-linecap:round;stroke-linejoin:round;stroke-miterlimit:10;" x1="380.831" y1="418.218" x2="380.831" y2="425.6"/>
						
							<line style="fill:none;stroke:#B0B0B0;stroke-linecap:round;stroke-linejoin:round;stroke-miterlimit:10;" x1="386.928" y1="418.218" x2="386.928" y2="425.6"/>
						
							<line style="fill:none;stroke:#B0B0B0;stroke-linecap:round;stroke-linejoin:round;stroke-miterlimit:10;" x1="393.026" y1="418.218" x2="393.026" y2="425.6"/>
						
							<line style="fill:none;stroke:#B0B0B0;stroke-linecap:round;stroke-linejoin:round;stroke-miterlimit:10;" x1="399.124" y1="418.218" x2="399.124" y2="425.6"/>
						
							<line style="fill:none;stroke:#B0B0B0;stroke-linecap:round;stroke-linejoin:round;stroke-miterlimit:10;" x1="405.222" y1="418.218" x2="405.222" y2="425.6"/>
					</g>
				</g>
			</g>
			<polygon style="fill:#FFFFFF;stroke:#263238;stroke-linecap:round;stroke-linejoin:round;stroke-miterlimit:10;" points="
				367.11,222.497 295.051,314.209 329.812,314.209 329.812,305.213 312.168,305.213 367.11,237.459 422.051,305.213 
				404.507,305.213 404.507,314.209 439.168,314.209 			"/>
			
				<rect x="295.051" y="314.209" style="fill:#FFFFFF;stroke:#263238;stroke-linecap:round;stroke-linejoin:round;stroke-miterlimit:10;" width="34.706" height="8.287"/>
			<g>
				
					<rect x="300.78" y="336.047" style="fill:#FFFFFF;stroke:#263238;stroke-linecap:round;stroke-linejoin:round;stroke-miterlimit:10;" width="10.313" height="84.677"/>
				
					<rect x="300.193" y="332.961" style="fill:#FFFFFF;stroke:#263238;stroke-linecap:round;stroke-linejoin:round;stroke-miterlimit:10;" width="11.485" height="3.196"/>
				
					<rect x="299.401" y="322.606" style="fill:#FFFFFF;stroke:#263238;stroke-linecap:round;stroke-linejoin:round;stroke-miterlimit:10;" width="13.071" height="10.534"/>
				
					<rect x="300.193" y="413.07" transform="matrix(-1 -1.224647e-16 1.224647e-16 -1 611.8724 829.3371)" style="fill:#FFFFFF;stroke:#263238;stroke-linecap:round;stroke-linejoin:round;stroke-miterlimit:10;" width="11.485" height="3.196"/>
				
					<rect x="299.401" y="416.087" transform="matrix(-1 -1.224647e-16 1.224647e-16 -1 611.8724 842.7086)" style="fill:#FFFFFF;stroke:#263238;stroke-linecap:round;stroke-linejoin:round;stroke-miterlimit:10;" width="13.071" height="10.534"/>
			</g>
			<g>
				
					<rect x="316.145" y="336.047" style="fill:#FFFFFF;stroke:#263238;stroke-linecap:round;stroke-linejoin:round;stroke-miterlimit:10;" width="10.313" height="84.677"/>
				
					<rect x="315.558" y="332.961" style="fill:#FFFFFF;stroke:#263238;stroke-linecap:round;stroke-linejoin:round;stroke-miterlimit:10;" width="11.485" height="3.196"/>
				
					<rect x="314.765" y="322.606" style="fill:#FFFFFF;stroke:#263238;stroke-linecap:round;stroke-linejoin:round;stroke-miterlimit:10;" width="13.071" height="10.534"/>
				
					<rect x="315.558" y="413.07" transform="matrix(-1 -1.224647e-16 1.224647e-16 -1 642.6019 829.3371)" style="fill:#FFFFFF;stroke:#263238;stroke-linecap:round;stroke-linejoin:round;stroke-miterlimit:10;" width="11.485" height="3.196"/>
				
					<rect x="314.765" y="416.087" transform="matrix(-1 -1.224647e-16 1.224647e-16 -1 642.602 842.7086)" style="fill:#FFFFFF;stroke:#263238;stroke-linecap:round;stroke-linejoin:round;stroke-miterlimit:10;" width="13.071" height="10.534"/>
			</g>
			
				<rect x="404.45" y="314.209" style="fill:#FFFFFF;stroke:#263238;stroke-linecap:round;stroke-linejoin:round;stroke-miterlimit:10;" width="34.706" height="8.287"/>
			<g>
				
					<rect x="410.18" y="336.047" style="fill:#FFFFFF;stroke:#263238;stroke-linecap:round;stroke-linejoin:round;stroke-miterlimit:10;" width="10.313" height="84.677"/>
				
					<rect x="409.593" y="332.961" style="fill:#FFFFFF;stroke:#263238;stroke-linecap:round;stroke-linejoin:round;stroke-miterlimit:10;" width="11.485" height="3.196"/>
				
					<rect x="408.8" y="322.606" style="fill:#FFFFFF;stroke:#263238;stroke-linecap:round;stroke-linejoin:round;stroke-miterlimit:10;" width="13.071" height="10.534"/>
				
					<rect x="409.593" y="413.07" transform="matrix(-1 -1.224647e-16 1.224647e-16 -1 830.6715 829.3371)" style="fill:#FFFFFF;stroke:#263238;stroke-linecap:round;stroke-linejoin:round;stroke-miterlimit:10;" width="11.485" height="3.196"/>
				
					<rect x="408.8" y="416.087" transform="matrix(-1 -1.224647e-16 1.224647e-16 -1 830.6714 842.7086)" style="fill:#FFFFFF;stroke:#263238;stroke-linecap:round;stroke-linejoin:round;stroke-miterlimit:10;" width="13.071" height="10.534"/>
			</g>
			<g>
				
					<rect x="425.544" y="336.047" style="fill:#FFFFFF;stroke:#263238;stroke-linecap:round;stroke-linejoin:round;stroke-miterlimit:10;" width="10.313" height="84.677"/>
				
					<rect x="424.958" y="332.961" style="fill:#FFFFFF;stroke:#263238;stroke-linecap:round;stroke-linejoin:round;stroke-miterlimit:10;" width="11.485" height="3.196"/>
				
					<rect x="424.165" y="322.606" style="fill:#FFFFFF;stroke:#263238;stroke-linecap:round;stroke-linejoin:round;stroke-miterlimit:10;" width="13.071" height="10.534"/>
				
					<rect x="424.958" y="413.07" transform="matrix(-1 -1.224647e-16 1.224647e-16 -1 861.4012 829.3371)" style="fill:#FFFFFF;stroke:#263238;stroke-linecap:round;stroke-linejoin:round;stroke-miterlimit:10;" width="11.485" height="3.196"/>
				
					<rect x="424.165" y="416.087" transform="matrix(-1 -1.224647e-16 1.224647e-16 -1 861.4011 842.7086)" style="fill:#FFFFFF;stroke:#263238;stroke-linecap:round;stroke-linejoin:round;stroke-miterlimit:10;" width="13.071" height="10.534"/>
			</g>
		</g>
		<g>
			<g>
				<rect x="195.346" y="370.911" style="fill:#CCCCCC;" width="9.903" height="12.472"/>
				<rect x="185.245" y="338.658" style="fill:#CCCCCC;" width="8.045" height="13.934"/>
				<rect x="185.245" y="355.516" style="fill:#CCCCCC;" width="8.045" height="12.471"/>
				<rect x="195.346" y="355.516" style="fill:#CCCCCC;" width="9.903" height="12.471"/>
				<rect x="185.245" y="370.911" style="fill:#CCCCCC;" width="8.045" height="12.472"/>
				<rect x="195.346" y="338.658" style="fill:#CCCCCC;" width="9.903" height="13.934"/>
				<rect x="185.245" y="386.307" style="fill:#CCCCCC;" width="8.045" height="15.986"/>
				<rect x="195.346" y="386.307" style="fill:#CCCCCC;" width="9.903" height="15.986"/>
				<rect x="173.504" y="386.307" style="fill:#CCCCCC;" width="9.686" height="15.986"/>
				<rect x="173.504" y="370.911" style="fill:#CCCCCC;" width="9.686" height="12.472"/>
				<rect x="173.504" y="355.516" style="fill:#CCCCCC;" width="9.686" height="12.471"/>
				<rect x="173.504" y="338.658" style="fill:#CCCCCC;" width="9.686" height="13.934"/>
			</g>
			<g>
				<rect x="233.381" y="370.911" style="fill:#CCCCCC;" width="9.903" height="12.472"/>
				<rect x="223.28" y="338.658" style="fill:#CCCCCC;" width="8.045" height="13.934"/>
				<rect x="223.28" y="355.516" style="fill:#CCCCCC;" width="8.045" height="12.471"/>
				<rect x="233.381" y="355.516" style="fill:#CCCCCC;" width="9.903" height="12.471"/>
				<rect x="223.28" y="370.911" style="fill:#CCCCCC;" width="8.045" height="12.472"/>
				<rect x="233.381" y="338.658" style="fill:#CCCCCC;" width="9.903" height="13.934"/>
				<rect x="223.28" y="386.307" style="fill:#CCCCCC;" width="8.045" height="15.986"/>
				<rect x="233.381" y="386.307" style="fill:#CCCCCC;" width="9.903" height="15.986"/>
				<rect x="211.538" y="386.307" style="fill:#CCCCCC;" width="9.686" height="15.986"/>
				<rect x="211.538" y="370.911" style="fill:#CCCCCC;" width="9.686" height="12.472"/>
				<rect x="211.538" y="355.516" style="fill:#CCCCCC;" width="9.686" height="12.471"/>
				<rect x="211.538" y="338.658" style="fill:#CCCCCC;" width="9.686" height="13.934"/>
			</g>
			<g>
				<rect x="271.415" y="370.911" style="fill:#CCCCCC;" width="9.903" height="12.472"/>
				<rect x="261.314" y="338.658" style="fill:#CCCCCC;" width="8.045" height="13.934"/>
				<rect x="261.314" y="355.516" style="fill:#CCCCCC;" width="8.045" height="12.471"/>
				<rect x="271.415" y="355.516" style="fill:#CCCCCC;" width="9.903" height="12.471"/>
				<rect x="261.314" y="370.911" style="fill:#CCCCCC;" width="8.045" height="12.472"/>
				<rect x="271.415" y="338.658" style="fill:#CCCCCC;" width="9.903" height="13.934"/>
				<rect x="261.314" y="386.307" style="fill:#CCCCCC;" width="8.045" height="15.986"/>
				<rect x="271.415" y="386.307" style="fill:#CCCCCC;" width="9.903" height="15.986"/>
				<rect x="249.573" y="386.307" style="fill:#CCCCCC;" width="9.686" height="15.986"/>
				<rect x="249.573" y="370.911" style="fill:#CCCCCC;" width="9.686" height="12.472"/>
				<rect x="249.573" y="355.516" style="fill:#CCCCCC;" width="9.686" height="12.471"/>
				<rect x="249.573" y="338.658" style="fill:#CCCCCC;" width="9.686" height="13.934"/>
			</g>
			
				<rect x="168.487" y="331.924" style="fill:none;stroke:#263238;stroke-linecap:round;stroke-linejoin:round;stroke-miterlimit:10;" width="117.171" height="75.42"/>
		</g>
		<g>
			<g>
				<rect x="478.509" y="370.911" style="fill:#CCCCCC;" width="9.903" height="12.472"/>
				<rect x="468.408" y="338.658" style="fill:#CCCCCC;" width="8.045" height="13.934"/>
				<rect x="468.408" y="355.516" style="fill:#CCCCCC;" width="8.045" height="12.471"/>
				<rect x="478.509" y="355.516" style="fill:#CCCCCC;" width="9.903" height="12.471"/>
				<rect x="468.408" y="370.911" style="fill:#CCCCCC;" width="8.045" height="12.472"/>
				<rect x="478.509" y="338.658" style="fill:#CCCCCC;" width="9.903" height="13.934"/>
				<rect x="468.408" y="386.307" style="fill:#CCCCCC;" width="8.045" height="15.986"/>
				<rect x="478.509" y="386.307" style="fill:#CCCCCC;" width="9.903" height="15.986"/>
				<rect x="456.667" y="386.307" style="fill:#CCCCCC;" width="9.686" height="15.986"/>
				<rect x="456.667" y="370.911" style="fill:#CCCCCC;" width="9.686" height="12.472"/>
				<rect x="456.667" y="355.516" style="fill:#CCCCCC;" width="9.686" height="12.471"/>
				<rect x="456.667" y="338.658" style="fill:#CCCCCC;" width="9.686" height="13.934"/>
			</g>
			<g>
				<rect x="516.544" y="370.911" style="fill:#CCCCCC;" width="9.903" height="12.472"/>
				<rect x="506.443" y="338.658" style="fill:#CCCCCC;" width="8.045" height="13.934"/>
				<rect x="506.443" y="355.516" style="fill:#CCCCCC;" width="8.045" height="12.471"/>
				<rect x="516.544" y="355.516" style="fill:#CCCCCC;" width="9.903" height="12.471"/>
				<rect x="506.443" y="370.911" style="fill:#CCCCCC;" width="8.045" height="12.472"/>
				<rect x="516.544" y="338.658" style="fill:#CCCCCC;" width="9.903" height="13.934"/>
				<rect x="506.443" y="386.307" style="fill:#CCCCCC;" width="8.045" height="15.986"/>
				<rect x="516.544" y="386.307" style="fill:#CCCCCC;" width="9.903" height="15.986"/>
				<rect x="494.701" y="386.307" style="fill:#CCCCCC;" width="9.686" height="15.986"/>
				<rect x="494.701" y="370.911" style="fill:#CCCCCC;" width="9.686" height="12.472"/>
				<rect x="494.701" y="355.516" style="fill:#CCCCCC;" width="9.686" height="12.471"/>
				<rect x="494.701" y="338.658" style="fill:#CCCCCC;" width="9.686" height="13.934"/>
			</g>
			<g>
				<rect x="554.578" y="370.911" style="fill:#CCCCCC;" width="9.903" height="12.472"/>
				<rect x="544.477" y="338.658" style="fill:#CCCCCC;" width="8.045" height="13.934"/>
				<rect x="544.477" y="355.516" style="fill:#CCCCCC;" width="8.045" height="12.471"/>
				<rect x="554.578" y="355.516" style="fill:#CCCCCC;" width="9.903" height="12.471"/>
				<rect x="544.477" y="370.911" style="fill:#CCCCCC;" width="8.045" height="12.472"/>
				<rect x="554.578" y="338.658" style="fill:#CCCCCC;" width="9.903" height="13.934"/>
				<rect x="544.477" y="386.307" style="fill:#CCCCCC;" width="8.045" height="15.986"/>
				<rect x="554.578" y="386.307" style="fill:#CCCCCC;" width="9.903" height="15.986"/>
				<rect x="532.736" y="386.307" style="fill:#CCCCCC;" width="9.686" height="15.986"/>
				<rect x="532.736" y="370.911" style="fill:#CCCCCC;" width="9.686" height="12.472"/>
				<rect x="532.736" y="355.516" style="fill:#CCCCCC;" width="9.686" height="12.471"/>
				<rect x="532.736" y="338.658" style="fill:#CCCCCC;" width="9.686" height="13.934"/>
			</g>
			
				<rect x="451.65" y="331.924" style="fill:none;stroke:#263238;stroke-linecap:round;stroke-linejoin:round;stroke-miterlimit:10;" width="117.171" height="75.42"/>
		</g>
	</g>
</g>
<g id="Floor_1_">
	<g>
		
			<line style="fill:none;stroke:#263238;stroke-linecap:round;stroke-linejoin:round;stroke-miterlimit:10;" x1="704.986" y1="427.22" x2="712.762" y2="427.22"/>
		
			<line style="fill:none;stroke:#263238;stroke-linecap:round;stroke-linejoin:round;stroke-miterlimit:10;" x1="41.042" y1="427.22" x2="694.293" y2="427.22"/>
		
			<line style="fill:none;stroke:#263238;stroke-linecap:round;stroke-linejoin:round;stroke-miterlimit:10;" x1="25.489" y1="427.22" x2="32.293" y2="427.22"/>
	</g>
</g>
<g id="Character">
	<g>
		<g>
			<path style="fill:#263238;stroke:#263238;stroke-miterlimit:10;" d="M628.974,346.316c0,0-1.67,38.609-1.461,60.522
				c0.209,21.913,2.922,58.507,2.922,58.507l-1.878,3.548l0.209,5.217l12.104,3.548l0.835-4.383c0,0,2.087-1.67,2.087-2.713
				c0-1.043-0.209-6.678-0.209-8.348c0-1.67,6.887-79.305,6.887-79.305l2.922-0.209l13.357,85.358l-2.713,1.67l3.757,7.304
				l6.261-2.087l6.678,0.417c0,0,1.878-4.591,1.878-5.426s-2.296-1.878-2.296-3.339s-2.296-89.185-2.296-89.185l-3.965-31.096
				H628.974z"/>
			<path style="fill:#FFFFFF;stroke:#263238;stroke-miterlimit:10;" d="M628.765,474.11l-6.887,5.426c0,0-8.765,3.339-8.557,4.8
				c0.209,1.461,1.878,1.67,3.13,1.67s24.835,0,24.835,0l-0.417-8.348L628.765,474.11z"/>
			<path style="fill:#FFFFFF;stroke:#263238;stroke-miterlimit:10;" d="M667.791,477.032c0,0,2.713,8.765,3.548,9.809
				c0.835,1.043,8.557,4.383,10.644,3.757c2.087-0.626,4.383-3.548,3.548-6.47c-0.835-2.922-4.8-8.765-4.8-8.765l-6.678-0.417
				L667.791,477.032z"/>
		</g>
		<path style="fill:#FFFFFF;stroke:#263238;stroke-miterlimit:10;" d="M651.095,270.767l-10.435,1.461
			c0,0-4.591,11.687-6.261,31.096c-1.67,19.409-0.209,43.618-0.209,43.618h35.479c0,0,9.183-51.757,6.261-60.314
			c-2.922-8.557-7.722-13.565-7.722-13.565L651.095,270.767z"/>
		<g>
			<path style="fill:#92E3A9;stroke:#263238;stroke-miterlimit:10;" d="M642.33,278.697c0,0-4.8,15.861-4.8,29.635
				c0,13.774,2.087,63.862,2.087,63.862l-19.2-3.965l4.591-32.766l-2.087-35.061l-16.07,16.905l-11.998-6.814
				c0,0,26.607-36.178,27.442-36.386c0.835-0.209,23.718-4.607,23.718-4.607L642.33,278.697z"/>
			<g>
				<polyline style="fill:none;stroke:#263238;stroke-miterlimit:10;" points="621.756,288.456 622.921,300.402 618.747,287.463 
									"/>
				<line style="fill:none;stroke:#263238;stroke-miterlimit:10;" x1="621.252" y1="283.289" x2="621.503" y2="285.863"/>
			</g>
		</g>
		<g>
			<path style="fill:#92E3A9;stroke:#263238;stroke-miterlimit:10;" d="M666.533,270.063c0,0,23.62,5.953,24.455,6.161
				c0.835,0.209,26.473,47.134,26.473,47.134l-11.478,5.009l-21.274-26.215l-4.396,37.902l5.635,29.009l-24.835,1.878l-2.087-29.635
				l4.383-64.07L666.533,270.063z"/>
			<polyline style="fill:none;stroke:#263238;stroke-miterlimit:10;" points="681.481,292.467 684.709,302.152 679.598,295.965 			
				"/>
		</g>
		<g>
			<path style="fill:#263238;stroke:#263238;stroke-miterlimit:10;" d="M644.728,232.687c0,0-3.88-2.771-3.51-4.064
				c0.37-1.293,8.868-6.281,10.161-6.835c1.293-0.554,16.812,2.771,19.398,4.434c2.586,1.663,5.358,11.454,5.727,16.073
				c0.37,4.619-11.085,13.671-11.085,13.671l-7.39,0.185l0.924-5.542l-7.575-1.478l1.293-6.281l-6.836-7.574l1.848-4.249
				L644.728,232.687z"/>
			<path style="fill:#FFFFFF;stroke:#263238;stroke-miterlimit:10;" d="M647.176,265.824l-6.269,8.165c0,0-3.208,8.456-2.479,8.019
				c0.729-0.437,4.666-4.228,4.666-4.228l9.393,5.712l10.872-5.421l5.395,5.832c0,0,1.166-16.475,0.292-17.787
				c-0.875-1.312-5.54-2.333-6.707-2.478C661.172,263.491,647.176,265.824,647.176,265.824z"/>
			<path style="fill:#FFFFFF;stroke:#263238;stroke-miterlimit:10;" d="M646.945,228.623c0,0-8.129,8.683-7.205,10.53
				c0.924,1.847,1.108,3.141,1.108,3.141s-6.466,5.727-5.542,6.835c0.924,1.108,3.51,2.586,3.51,2.586s-1.108,7.759,0,9.607
				c1.109,1.847,7.205,0.739,7.205,0.739s4.249,22.908,6.466,21.43c2.217-1.478,12.747-15.149,12.563-16.812
				c-0.185-1.663,0.369-10.161,0.369-10.715c0-0.554-3.695-0.185-3.695-0.185s4.803-7.02,2.956-9.052
				c-1.847-2.032-5.542-1.478-6.836-0.554c-1.293,0.924-2.032,2.032-2.032,2.032l-2.032-0.554c0,0,1.478-3.325,1.663-4.249
				c0.185-0.924-4.249-5.357-4.064-6.096c0.037-0.15,0.287-0.481,0.661-0.915c1.474-1.707,4.881-4.997,4.881-4.997L646.945,228.623z
				"/>
			<path style="fill:#263238;" d="M644.481,243.873c-0.085,0.905-0.461,1.61-0.841,1.574c-0.38-0.036-0.619-0.798-0.534-1.703
				s0.461-1.61,0.841-1.574C644.326,242.206,644.565,242.968,644.481,243.873z"/>
			<path style="fill:none;stroke:#263238;stroke-miterlimit:10;" d="M642.36,239.456c0,0,2.336-1.699,3.929,0.531"/>
			<path style="fill:none;stroke:#263238;stroke-miterlimit:10;" d="M640.024,253.365c0,0,4.46,0.318,6.689-2.336"/>
			<polygon style="fill:#263238;stroke:#263238;stroke-miterlimit:10;" points="646.021,262.061 652.766,261.116 647.138,267.593 
							"/>
		</g>
		<polygon style="fill:#FFFFFF;stroke:#263238;stroke-miterlimit:10;" points="607.567,340.75 612.405,336.143 607.221,332.572 		
			"/>
		<polygon style="fill:#FFFFFF;stroke:#263238;stroke-miterlimit:10;" points="609.871,323.588 613.679,327.991 610.792,338.101 
			605.894,334.108 		"/>
		<path style="fill:#92E3A9;stroke:#263238;stroke-miterlimit:10;" d="M599.427,304.036c0,0-6.044,7.413-7.017,9.776
			c-0.973,2.363,15.157,26.938,15.157,26.938l3.916-15.55l-2.88-8.639l1.315-4.993l-6.498-2.494"/>
		<path style="fill:#FFFFFF;stroke:#263238;stroke-miterlimit:10;" d="M613.211,327.734l8.114-1.133c0,0,5.839,5.283,6.117,5.978
			c0.278,0.695,0.139,1.251-0.139,2.224c-0.278,0.973-1.112,1.668-1.112,1.668s-2.224,5.422-2.641,6.117
			c-0.417,0.695-2.919,0.417-3.892,0.278c-0.973-0.139-8.865-4.765-8.865-4.765L613.211,327.734z"/>
		<polygon style="fill:#FFFFFF;stroke:#263238;stroke-miterlimit:10;" points="692.877,328.547 690.792,331.189 694.14,339.857 
			698.577,337.306 		"/>
		<path style="fill:#92E3A9;stroke:#263238;stroke-miterlimit:10;" d="M704.595,315.758l-13.108,12.65l8.897,11.26
			c0,0,17.835-14.597,16.862-16.96c-0.973-2.363-5.144-8.202-5.144-8.202"/>
		<path style="fill:#FFFFFF;stroke:#263238;stroke-miterlimit:10;" d="M690.792,331.189l-7.646-1.39c0,0-5.839,5.283-6.117,5.978
			c-0.278,0.695-0.139,1.251,0.139,2.224c0.278,0.973,1.112,1.668,1.112,1.668s2.224,5.422,2.641,6.117
			c0.417,0.695,2.919,0.417,3.892,0.278c0.973-0.139,8.531-8.115,8.531-8.115L690.792,331.189z"/>
	</g>
</g>
</svg>
