<svg version="1.2" xmlns="http://www.w3.org/2000/svg" viewBox="0 0 280 149" width="280" height="149"><defs><linearGradient id="P" gradientUnits="userSpaceOnUse"/><linearGradient id="g1" x1="269.2" y1="-7.3" x2="216" y2="95.1" href="#P"><stop stop-color="#b2ffee"/><stop offset="1" stop-color="#68edcf"/></linearGradient></defs><style>.s0{fill:#131ca2}.s1{fill:#ffffff;stroke:#131ca2}.s2{fill:none;stroke:#131ca2}.s3{fill:#1abdfc}.s4{fill:#ffffff;stroke:#1abdfc}.s5{fill:#1abdfc;stroke:#1abdfc}.s6{fill:url(#g1)}.s7{fill:#131ca2;stroke:#131ca2}</style><path class="s0" d="m0 147.4c0-0.7 0.6-1.3 1.3-1.3h266.2c0.7 0 1.3 0.6 1.3 1.3c0 0.7-0.6 1.3-1.3 1.3h-266.2c-0.7 0-1.3-0.6-1.3-1.3z" /><path class="s1" d="m91.3 80.8l35.1-51.1l35.2 51.1v65.7h-70.3z" /><path class="s1" d="m103.7 92.9h68.2v53.6h-68.2z" /><path class="s1" d="m242.2 146.5h-70.3v-53.6h70.3z" /><path class="s1" d="m114 104.9h47.6v41.6h-47.6z" /><path class="s2" d="m120.2 57.7h12.5v23.1h-12.5z" /><path class="s0" d="m114.5 104.9h47.1v1h-47.1z" /><path class="s0" d="m114.5 108.3h47.1v0.9h-47.1z" /><path class="s0" d="m114.5 111.7h47.1v0.9h-47.1z" /><path class="s0" d="m114.5 115.1h47.1v0.9h-47.1z" /><path class="s0" d="m114.5 118.5h47.1v0.9h-47.1z" /><path class="s0" d="m114.5 121.9h47.1v0.9h-47.1z" /><path class="s0" d="m114.5 125.3h47.1v0.9h-47.1z" /><path class="s0" d="m114.5 128.7h47.1v0.9h-47.1z" /><path class="s0" d="m114.5 132h47.1v1h-47.1z" /><path class="s0" d="m114.5 135.4h47.1v0.9h-47.1z" /><path class="s0" d="m114.5 138.8h47.1v0.9h-47.1z" /><path class="s0" d="m114.5 142.2h47.1v0.9h-47.1z" /><path class="s0" d="m114.5 145.6h47.1v0.9h-47.1z" /><path class="s1" d="m49.9 29.1h76.5l-35.1 51.7h-76.5z" /><path fill-rule="evenodd" class="s3" d="m52.8 59l7.6-11.1l0.3 0.6l-7.7 11.1h-18.8l-0.3-0.6z" /><path fill-rule="evenodd" class="s4" d="m41.5 47.9h18.9l-7.6 11.1h-18.9z" /><path class="s5" d="m56.6 53.4l-0.1 0.1h-6.2l-3.7 5.5h-0.2l3.8-5.5h-6.2l-3.7 5.5h-0.2l3.8-5.5h-6.2l0.1-0.1h6.2l3.7-5.5h0.2l-3.8 5.5h6.2l3.7-5.5h0.2l-3.8 5.5z" /><path fill-rule="evenodd" class="s3" d="m41.8 74.5l7.7-11.1l0.2 0.6l-7.6 11.1h-18.9l-0.2-0.6z" /><path fill-rule="evenodd" class="s4" d="m30.6 63.4h18.9l-7.7 11.1h-18.8z" /><path class="s5" d="m45.7 68.9l-0.1 0.1h-6.2l-3.8 5.5h-0.1l3.7-5.5h-6.1l-3.8 5.5h-0.1l3.7-5.5h-6.2l0.1-0.1h6.2l3.8-5.5h0.2l-3.8 5.5h6.1l3.8-5.5h0.2l-3.8 5.5z" /><path class="s1" d="m91.3 80.8v65.7h-76.5v-65.7h26.6v-31h23.3v31z" /><path class="s2" d="m59.9 80.8h-13.8v-22.3h13.8z" /><path class="s2" d="m34.1 92.9h13.8v41.5h-13.8z" /><path class="s2" d="m72 146.5h-13.8v-53.6h13.8z" /><path class="s1" d="m64.7 49.8h21.4l-21.4 30.1z" /><path fill-rule="evenodd" class="s3" d="m102.9 59l7.6-11.1l0.3 0.6l-7.7 11.1h-18.8l-0.3-0.6z" /><path fill-rule="evenodd" class="s4" d="m91.6 47.9h18.9l-7.6 11.1h-18.9z" /><path class="s5" d="m106.7 53.4l-0.1 0.1h-6.2l-3.7 5.5h-0.2l3.8-5.5h-6.2l-3.7 5.5h-0.2l3.8-5.5h-6.2l0.1-0.1h6.2l3.7-5.5h0.2l-3.8 5.5h6.2l3.7-5.5h0.2l-3.8 5.5z" /><path fill-rule="evenodd" class="s3" d="m91.9 74.5l7.7-11.1l0.2 0.6l-7.6 11.1h-18.9l-0.2-0.6z" /><path fill-rule="evenodd" class="s4" d="m80.7 63.4h18.9l-7.7 11.1h-18.8z" /><path class="s5" d="m95.8 68.9l-0.1 0.1h-6.2l-3.8 5.5h-0.1l3.7-5.5h-6.1l-3.8 5.5h-0.1l3.7-5.5h-6.2l0.1-0.1h6.2l3.8-5.5h0.2l-3.8 5.5h6.1l3.8-5.5h0.2l-3.8 5.5z" /><path fill-rule="evenodd" class="s3" d="m112.9 43.5l7.6-11.1l0.3 0.6l-7.6 11.1h-18.9l-0.3-0.6z" /><path fill-rule="evenodd" class="s4" d="m101.7 32.4h18.8l-7.6 11.1h-18.9z" /><path class="s5" d="m116.8 37.9l-0.1 0.1h-6.2l-3.8 5.5h-0.2l3.8-5.5h-6.1l-3.8 5.5h-0.2l3.8-5.5h-6.2l0.1-0.1h6.2l3.8-5.5h0.1l-3.7 5.5h6.1l3.7-5.5h0.2l-3.7 5.5z" /><path fill-rule="evenodd" class="s3" d="m87.4 43.5l7.6-11.1l0.3 0.6l-7.6 11.1h-18.9l-0.3-0.6z" /><path fill-rule="evenodd" class="s4" d="m76.1 32.4h18.9l-7.6 11.1h-18.9z" /><path class="s5" d="m91.3 37.9l-0.1 0.1h-6.2l-3.8 5.5h-0.2l3.8-5.5h-6.1l-3.8 5.5h-0.2l3.8-5.5h-6.2l0.1-0.1h6.2l3.7-5.5h0.2l-3.7 5.5h6.1l3.7-5.5h0.2l-3.8 5.5z" /><path fill-rule="evenodd" class="s3" d="m62.8 43.5l7.6-11.1l0.3 0.6l-7.6 11.1h-18.9l-0.3-0.6z" /><path fill-rule="evenodd" class="s4" d="m51.5 32.4h18.9l-7.6 11.1h-18.9z" /><path class="s5" d="m66.7 37.9l-0.1 0.1h-6.2l-3.8 5.5h-0.2l3.8-5.5h-6.1l-3.8 5.5h-0.2l3.8-5.5h-6.2l0.1-0.1h6.2l3.8-5.5h0.1l-3.7 5.5h6.1l3.7-5.5h0.2l-3.7 5.5z" /><path class="s6" d="m275.6 47.5c4.1 5.3 5.1 12.3 0.8 17.6q-1.5 1.9-3 3.8q-1.5 1.9-2.9 3.9q-1.4 2-2.6 4.1q-1.3 2.1-2.5 4.3c-6.7 12-19.3 20-37.7 20c-17.5 0-33.8-9.3-44.8-20.8c-7.4-7.8-11.6-19.8-11.4-30.5c0.1-4.6 1.8-9.5 6.2-11.9c4.2-2.4 10.3-1.2 13.9-4.9c3.7-3.9 0.3-10.3-0.5-14.6c-0.8-4.6 0-10.1 2.9-13.8c5.1-6.4 16.5-5.4 22.6-2c21.9 12.1 22.6 10.9 31.2 8.2c11.4-3.6 23.2 0.4 23 13.3c-0.2 8.8-2.6 13.9 4.8 23.3z" /><path class="s7" d="m232.7 111.4l0.5 35.3h-5.5l0.2-32.2l-6.8-29.2l-7-6.7l0.5-0.4l6.2 5.8l-2.1-8.8l1.5-1.6l9.3 35.5l2.5-43.8l-3.9-8.6l0.6-0.2l3.4 7.2l0.7-11.9l2 1.7l-0.7 20.1l7.8-12.2l0.8 0.6l-8.7 13.9z" /></svg>