<?xml version="1.0" standalone="no"?>
<!DOCTYPE svg PUBLIC "-//W3C//DTD SVG 20010904//EN"
 "http://www.w3.org/TR/2001/REC-SVG-20010904/DTD/svg10.dtd">
<svg version="1.0" xmlns="http://www.w3.org/2000/svg"
 width="4796.000000pt" height="3954.000000pt" viewBox="0 0 4796.000000 3954.000000"
 preserveAspectRatio="xMidYMid meet">

<g transform="translate(0.000000,3954.000000) scale(0.100000,-0.100000)"
fill="#000000" stroke="none">
<path d="M35450 34500 c-429 -10 -923 -22 -935 -24 -5 0 -13 -5 -17 -11 -5 -6
-8 -5 -8 3 0 14 -256 18 -262 3 -1 -5 -108 -11 -235 -13 -128 -1 -233 -6 -233
-9 0 -6 -392 -24 -535 -24 -38 0 -73 -3 -76 -8 -3 -4 -87 -7 -188 -8 -114 0
-180 -3 -176 -9 4 -6 -32 -11 -92 -11 -54 -1 -125 -2 -158 -3 -33 -1 -65 -4
-71 -8 -6 -4 -73 -10 -150 -13 -137 -7 -189 -10 -189 -14 0 -2 -85 -5 -190 -8
-104 -2 -194 -9 -200 -14 -5 -5 -40 -9 -78 -9 -49 0 -66 -3 -61 -12 5 -7 3 -8
-6 -3 -17 10 -130 14 -130 5 0 -7 -153 -18 -326 -25 -34 -1 -66 -5 -71 -8 -5
-3 -61 -7 -124 -8 -63 -1 -118 -6 -124 -10 -8 -5 -172 -19 -262 -22 -7 0 -13
-3 -13 -6 0 -3 -19 -6 -42 -6 -64 -1 -250 -15 -258 -20 -4 -2 -53 -5 -111 -6
-57 -1 -108 -5 -114 -10 -5 -4 -55 -10 -110 -14 -55 -3 -134 -10 -175 -15 -41
-5 -113 -12 -160 -15 -132 -10 -277 -23 -370 -34 -47 -5 -96 -8 -110 -7 -14 1
-27 -1 -30 -5 -3 -4 -65 -12 -139 -18 -74 -7 -139 -15 -145 -18 -6 -4 -30 -6
-54 -4 -25 1 -50 -3 -59 -11 -12 -9 -15 -10 -9 0 5 9 -3 12 -28 12 -20 0 -36
-4 -36 -8 0 -7 -343 -47 -382 -44 -10 0 -18 -3 -18 -8 0 -6 -9 -6 -24 0 -13 4
-27 5 -32 0 -5 -5 -45 -11 -89 -14 -44 -2 -145 -14 -225 -24 -80 -11 -170 -22
-200 -23 -30 -2 -58 -8 -62 -14 -5 -6 -8 -5 -8 4 0 10 -3 11 -14 2 -8 -7 -45
-12 -82 -12 -38 -1 -77 -5 -87 -10 -9 -6 -46 -12 -82 -13 -35 -2 -69 -7 -76
-12 -17 -10 -59 -12 -53 -2 7 11 -10 10 -22 -1 -5 -5 -40 -11 -79 -14 -38 -2
-77 -7 -85 -11 -8 -3 -44 -8 -80 -10 -36 -1 -72 -6 -80 -9 -8 -4 -40 -9 -70
-12 -30 -3 -73 -7 -95 -10 -22 -2 -69 -9 -105 -15 -35 -6 -72 -9 -82 -7 -10 3
-18 1 -18 -4 0 -5 -29 -9 -64 -9 -36 0 -67 -4 -70 -9 -3 -5 -40 -12 -81 -16
-47 -4 -73 -11 -69 -17 4 -5 -4 -5 -16 2 -12 7 -20 8 -17 3 3 -5 -16 -10 -41
-11 -26 -1 -63 -5 -82 -8 -19 -3 -64 -8 -100 -11 -36 -3 -69 -9 -74 -14 -6 -5
-30 -9 -54 -9 -24 0 -41 -3 -39 -7 3 -5 -16 -8 -41 -8 -26 0 -52 -3 -57 -7 -6
-4 -35 -8 -65 -9 -30 -1 -59 -5 -65 -10 -5 -4 -35 -9 -65 -12 -30 -3 -105 -15
-167 -26 -61 -11 -131 -21 -155 -23 -24 -2 -46 -7 -50 -12 -4 -6 -28 -9 -55
-8 -26 1 -57 -3 -68 -8 -24 -11 -193 -40 -235 -40 -17 0 -30 -3 -30 -7 0 -5
-21 -9 -48 -11 -67 -4 -87 -8 -85 -18 1 -5 -17 -10 -40 -10 -23 -1 -58 -5 -77
-8 -19 -4 -61 -11 -92 -16 -32 -4 -61 -11 -66 -14 -5 -3 -26 -6 -48 -7 -21 -1
-47 -6 -57 -11 -10 -5 -36 -11 -58 -13 -22 -3 -45 -7 -51 -11 -6 -4 -38 -9
-72 -11 -33 -2 -65 -8 -70 -14 -6 -5 -31 -9 -57 -9 -28 0 -53 -6 -62 -15 -8
-8 -17 -12 -20 -9 -3 4 -34 -1 -69 -10 -35 -8 -80 -16 -101 -18 -21 -1 -41 -6
-43 -10 -3 -4 -25 -8 -49 -8 -24 0 -46 -4 -50 -9 -3 -5 -31 -13 -63 -17 -31
-3 -64 -10 -72 -14 -8 -5 -33 -9 -55 -11 -22 -1 -44 -6 -50 -10 -5 -4 -30 -9
-55 -12 -51 -6 -142 -28 -150 -37 -3 -3 -20 -6 -39 -7 -19 -1 -37 -7 -41 -14
-6 -8 -9 -8 -12 2 -4 11 -9 12 -27 2 -11 -7 -36 -13 -55 -13 -19 0 -38 -4 -41
-10 -3 -5 -28 -12 -55 -16 -28 -4 -50 -9 -50 -13 0 -3 -17 -7 -38 -8 -20 -1
-53 -6 -72 -12 -62 -17 -125 -33 -130 -33 -3 0 -15 -4 -28 -9 -35 -13 -74 -21
-104 -20 -16 1 -28 -3 -28 -9 0 -5 -13 -10 -28 -10 -15 0 -34 -6 -41 -12 -11
-11 -12 -10 -6 0 5 10 3 11 -11 4 -24 -13 -131 -41 -167 -44 -15 -1 -27 -5
-27 -9 0 -3 -6 -6 -12 -6 -42 -3 -80 -12 -91 -22 -8 -6 -16 -8 -19 -5 -4 3
-23 0 -45 -6 -21 -7 -56 -16 -78 -20 -22 -5 -53 -12 -70 -15 -16 -4 -36 -8
-43 -11 -7 -2 -14 -3 -17 -4 -3 0 -19 -7 -35 -15 -16 -8 -32 -15 -35 -15 -3 1
-20 -2 -38 -5 -17 -3 -42 -7 -54 -8 -12 -2 -26 -6 -29 -10 -4 -4 -19 -7 -33
-7 -15 0 -37 -7 -49 -16 -12 -8 -22 -13 -22 -10 0 2 -15 0 -32 -5 -28 -8 -51
-13 -103 -23 -5 -1 -14 -4 -20 -8 -5 -3 -26 -9 -45 -12 -19 -3 -60 -15 -90
-26 -30 -11 -65 -20 -77 -20 -12 0 -25 -4 -28 -10 -3 -5 -19 -10 -36 -10 -16
0 -37 -4 -47 -9 -16 -8 -118 -39 -152 -45 -8 -2 -26 -8 -40 -13 -14 -6 -31 -8
-37 -6 -7 3 -13 -1 -13 -8 0 -7 -3 -10 -6 -7 -3 3 -28 -3 -57 -13 -28 -10 -62
-19 -74 -19 -12 0 -25 -4 -28 -10 -3 -5 -19 -10 -35 -10 -16 0 -44 -6 -62 -14
-18 -8 -53 -19 -78 -26 -25 -7 -53 -16 -62 -21 -10 -5 -25 -9 -34 -9 -9 0 -30
-6 -47 -14 -18 -8 -48 -17 -67 -20 -19 -3 -48 -13 -63 -21 -18 -9 -25 -10 -21
-2 4 7 -2 4 -13 -6 -11 -9 -22 -14 -26 -11 -3 4 -14 3 -24 -1 -10 -5 -20 -9
-23 -10 -3 -1 -12 -4 -20 -8 -8 -3 -24 -7 -35 -9 -11 -2 -22 -6 -25 -10 -3 -3
-18 -8 -35 -11 -16 -3 -57 -15 -90 -27 -61 -22 -80 -28 -125 -37 -14 -2 -34
-8 -45 -13 -11 -5 -34 -14 -52 -21 -17 -7 -30 -16 -28 -19 2 -4 -10 -4 -27 -2
-19 3 -29 1 -25 -6 4 -5 1 -10 -6 -9 -43 1 -77 -4 -73 -12 5 -8 -58 -27 -76
-23 -5 1 -8 -3 -8 -8 0 -6 -11 -10 -24 -10 -14 0 -28 -4 -31 -10 -3 -5 -21
-10 -39 -10 -17 0 -36 -4 -41 -9 -14 -12 -125 -52 -125 -45 0 4 -6 1 -13 -5
-8 -6 -22 -12 -33 -14 -10 -2 -32 -9 -47 -15 -16 -7 -33 -12 -38 -12 -5 0 -9
-3 -9 -7 0 -5 -14 -9 -31 -10 -17 -1 -38 -8 -45 -14 -8 -7 -17 -9 -21 -5 -3 3
-17 -1 -31 -10 -13 -9 -22 -11 -18 -6 8 13 -56 -18 -65 -31 -3 -5 -8 -7 -10
-6 -6 4 -99 -21 -134 -36 -16 -7 -61 -23 -100 -35 -38 -13 -85 -30 -104 -38
-18 -8 -39 -15 -45 -17 -6 -1 -20 -5 -31 -9 -11 -5 -33 -12 -50 -18 -16 -5
-39 -14 -50 -18 -67 -28 -163 -60 -177 -60 -9 0 -22 -8 -27 -17 -6 -10 -11
-15 -11 -11 0 6 -65 -12 -115 -32 -11 -4 -38 -14 -60 -23 -22 -8 -64 -24 -94
-36 -29 -12 -62 -21 -72 -21 -11 0 -19 -4 -19 -8 0 -9 -110 -49 -123 -44 -5 1
-6 -2 -2 -8 6 -9 -7 -13 -47 -13 -10 0 -16 -3 -13 -6 2 -4 -22 -16 -53 -26
-31 -10 -63 -23 -71 -29 -12 -9 -13 -8 -6 4 6 12 5 13 -6 3 -7 -7 -21 -13 -31
-13 -10 0 -18 -4 -18 -8 0 -5 -25 -16 -56 -26 -31 -10 -75 -28 -98 -40 -22
-13 -62 -29 -88 -36 -27 -7 -48 -16 -48 -19 0 -4 -11 -8 -25 -9 -13 -1 -39
-11 -56 -21 -18 -11 -63 -30 -100 -42 -38 -12 -66 -26 -63 -31 3 -4 -1 -5 -9
-2 -8 3 -21 -1 -28 -8 -8 -7 -23 -15 -34 -16 -11 -2 -24 -8 -30 -13 -5 -5 -15
-9 -23 -9 -7 0 -38 -11 -68 -25 -30 -14 -59 -25 -64 -25 -6 0 -18 -4 -28 -9
-17 -9 -66 -30 -112 -49 -14 -6 -51 -22 -82 -36 -31 -14 -62 -26 -67 -26 -6 0
-11 -5 -11 -11 0 -5 -5 -7 -10 -4 -6 4 -30 -3 -53 -15 -23 -12 -49 -23 -58
-25 -9 -2 -44 -17 -78 -34 -34 -16 -61 -28 -61 -25 0 3 -10 -1 -22 -8 -13 -7
-25 -13 -28 -13 -3 0 -20 -9 -37 -18 -18 -10 -33 -14 -33 -10 0 5 -4 3 -8 -2
-4 -6 -20 -16 -35 -23 -15 -7 -26 -16 -23 -21 3 -4 -5 -6 -18 -4 -12 3 -38 -4
-57 -15 -19 -10 -47 -22 -62 -26 -17 -4 -25 -11 -21 -18 4 -7 3 -8 -4 -4 -7 4
-22 0 -34 -8 -12 -9 -30 -16 -39 -16 -9 0 -22 -7 -29 -15 -6 -8 -15 -14 -18
-13 -12 3 -81 -25 -77 -32 2 -3 -6 -7 -18 -7 -12 -1 -23 -7 -25 -13 -2 -5 -10
-10 -18 -10 -9 0 -35 -11 -60 -25 -24 -13 -44 -22 -44 -19 0 5 -70 -34 -80
-45 -3 -4 -11 -6 -17 -7 -29 -2 -34 -4 -29 -12 2 -4 -5 -9 -17 -10 -24 -2
-138 -57 -132 -64 2 -2 -5 -5 -17 -5 -12 -1 -24 -6 -27 -10 -3 -4 -13 -9 -21
-11 -8 -2 -23 -11 -32 -19 -10 -9 -18 -13 -18 -9 0 4 -10 0 -22 -8 -12 -9 -31
-16 -41 -16 -10 0 -15 -4 -12 -10 3 -5 -1 -10 -10 -10 -9 0 -37 -12 -63 -27
-61 -35 -215 -117 -272 -146 -25 -12 -51 -28 -58 -34 -7 -7 -17 -13 -22 -13
-5 0 -37 -17 -72 -37 -35 -21 -65 -38 -68 -39 -21 -4 -39 -18 -34 -25 3 -5 -3
-9 -13 -9 -10 0 -35 -11 -55 -25 -20 -14 -42 -25 -47 -25 -6 0 -11 -4 -11 -10
0 -5 -5 -10 -12 -10 -6 0 -25 -10 -42 -23 -17 -12 -44 -29 -61 -37 -16 -8 -32
-18 -35 -21 -3 -3 -20 -15 -39 -25 -41 -23 -40 -22 -171 -109 -58 -38 -106
-73 -108 -77 -2 -4 -10 -8 -18 -8 -8 0 -17 -7 -20 -15 -4 -8 -13 -15 -21 -15
-8 0 -11 -5 -7 -12 4 -6 3 -9 -2 -6 -15 9 -56 -11 -48 -23 4 -7 3 -9 -4 -5 -6
3 -23 -5 -38 -19 -15 -14 -33 -25 -40 -25 -8 0 -14 -4 -14 -8 0 -5 -23 -23
-51 -42 -47 -30 -115 -83 -166 -128 -12 -11 -23 -18 -25 -16 -2 2 -19 -10 -38
-27 -19 -16 -47 -37 -62 -47 -16 -9 -28 -20 -28 -24 0 -4 -7 -8 -15 -8 -8 0
-15 -5 -15 -10 0 -6 -7 -13 -15 -16 -8 -3 -32 -22 -53 -43 -69 -64 -143 -126
-163 -135 -10 -5 -19 -15 -19 -23 0 -7 -4 -13 -9 -13 -17 0 -71 -51 -65 -61 3
-5 0 -8 -8 -7 -7 2 -12 -3 -10 -10 1 -8 -1 -11 -6 -8 -5 3 -29 -12 -53 -34
-24 -22 -47 -40 -51 -40 -5 0 -8 -6 -8 -12 -1 -7 -37 -42 -80 -77 -44 -36 -80
-71 -80 -77 0 -7 -6 -17 -13 -21 -6 -4 -27 -25 -45 -46 -17 -21 -32 -35 -32
-32 0 3 -39 -38 -87 -91 -49 -52 -87 -100 -86 -105 2 -5 -3 -8 -10 -6 -6 1
-11 -3 -10 -10 2 -7 -4 -10 -12 -7 -8 4 -15 1 -15 -5 0 -6 0 -13 -1 -15 0 -2
-25 -31 -55 -63 -30 -32 -52 -64 -49 -71 3 -7 1 -11 -4 -7 -5 3 -19 -7 -30
-22 -11 -16 -34 -44 -51 -63 -61 -71 -120 -150 -120 -160 0 -5 -4 -10 -8 -10
-5 0 -26 -26 -48 -57 -21 -32 -43 -63 -49 -70 -5 -7 -15 -19 -21 -26 -22 -26
-43 -75 -36 -82 4 -5 2 -5 -4 -2 -6 3 -17 -6 -25 -21 -8 -15 -21 -33 -29 -40
-13 -12 -13 -13 0 -6 8 5 2 -7 -13 -26 -16 -19 -33 -44 -38 -57 -5 -13 -12
-23 -17 -23 -4 0 -14 -16 -22 -35 -8 -19 -17 -35 -22 -35 -4 0 -8 -9 -8 -20 0
-11 -5 -20 -11 -20 -5 0 -7 -4 -4 -10 3 -5 1 -10 -4 -10 -6 0 -11 -4 -11 -10
0 -5 -16 -34 -35 -64 -19 -30 -35 -62 -35 -70 0 -8 -3 -16 -7 -18 -13 -5 -151
-293 -184 -383 -12 -33 -25 -64 -30 -69 -5 -6 -9 -18 -9 -27 0 -9 -11 -42 -25
-73 -14 -31 -25 -68 -25 -82 0 -14 -4 -23 -9 -20 -4 3 -7 -5 -7 -17 1 -12 -4
-34 -11 -49 -7 -15 -15 -35 -16 -45 -2 -10 -9 -31 -16 -46 -6 -16 -12 -44 -14
-62 -1 -18 -5 -31 -9 -29 -4 3 -7 -4 -7 -13 -1 -40 -5 -53 -14 -53 -6 0 -8 -3
-5 -6 3 -3 -1 -31 -8 -62 -8 -31 -17 -79 -20 -107 -3 -27 -8 -57 -11 -65 -3
-8 -7 -37 -9 -65 -3 -27 -7 -68 -10 -90 -3 -22 -7 -66 -9 -97 -2 -31 -6 -62
-9 -67 -4 -6 -6 -41 -5 -79 1 -38 -2 -76 -7 -83 -7 -13 -7 -142 1 -206 2 -15
6 -90 9 -166 3 -76 9 -144 13 -150 3 -6 8 -27 9 -46 6 -69 13 -116 24 -166 13
-53 13 -53 24 -133 5 -29 12 -49 18 -46 5 3 9 0 7 -7 -4 -32 1 -50 14 -43 9 5
9 4 1 -5 -11 -12 -5 -48 16 -91 4 -9 11 -30 14 -48 4 -17 12 -34 17 -37 5 -4
9 -15 9 -26 0 -10 4 -19 8 -19 4 0 9 -16 10 -36 2 -20 9 -46 17 -58 8 -11 15
-28 15 -37 0 -9 7 -22 15 -29 8 -7 12 -17 9 -22 -3 -5 2 -18 12 -29 9 -10 15
-19 11 -19 -3 0 10 -32 29 -70 19 -39 34 -75 34 -80 0 -6 5 -10 12 -10 6 0 8
-3 5 -7 -4 -3 -3 -11 2 -17 5 -6 25 -42 45 -81 54 -103 76 -138 94 -152 9 -7
13 -13 9 -13 -4 0 3 -18 14 -40 12 -22 25 -40 31 -40 5 0 7 -4 3 -9 -3 -6 3
-14 12 -20 10 -6 14 -11 8 -11 -7 0 -7 -3 0 -8 16 -11 95 -130 95 -142 0 -6 4
-9 9 -6 5 3 15 -7 22 -22 13 -27 36 -59 87 -122 12 -15 22 -31 22 -35 0 -3 6
-12 12 -19 7 -7 27 -30 43 -51 17 -21 61 -75 98 -119 38 -45 80 -96 95 -114
48 -58 91 -100 96 -94 3 3 6 -1 6 -10 0 -8 11 -21 25 -28 14 -7 25 -19 25 -26
0 -13 433 -451 501 -507 19 -15 78 -71 131 -123 54 -52 98 -92 98 -89 0 3 19
-14 43 -39 24 -24 59 -53 78 -65 19 -12 30 -21 25 -21 -5 0 12 -15 37 -33 26
-19 44 -37 40 -40 -3 -4 -1 -7 6 -7 6 0 23 -11 37 -25 14 -14 30 -25 36 -25 6
0 8 -3 5 -7 -8 -7 63 -59 76 -55 4 1 7 -5 7 -13 0 -8 3 -15 8 -15 4 0 20 -11
36 -25 16 -14 36 -25 45 -25 14 0 14 -2 1 -10 -11 -7 -11 -10 -2 -10 7 0 24
-12 37 -26 14 -15 25 -23 25 -18 0 5 5 1 11 -8 5 -10 16 -18 24 -18 8 0 18 -6
22 -13 4 -7 24 -24 43 -37 19 -13 41 -32 48 -42 7 -10 20 -18 28 -18 8 0 17
-7 20 -15 3 -8 15 -17 25 -20 11 -4 29 -16 39 -28 11 -11 20 -18 20 -15 0 6 7
1 81 -61 20 -17 41 -31 45 -31 5 0 27 -16 49 -35 38 -33 49 -39 68 -36 5 1 6
-2 3 -7 -3 -5 7 -15 22 -23 15 -8 31 -20 35 -26 4 -7 15 -13 22 -13 8 0 15 -3
15 -8 0 -4 30 -27 67 -52 38 -25 69 -48 71 -52 2 -5 10 -8 17 -8 7 0 15 -4 17
-9 2 -5 10 -11 18 -13 16 -3 21 -7 64 -43 17 -13 45 -32 63 -42 18 -10 33 -21
33 -26 0 -4 4 -5 10 -2 6 3 10 2 10 -4 0 -14 90 -62 103 -54 5 3 8 2 5 -3 -9
-14 15 -31 39 -29 12 1 20 -1 18 -5 -4 -7 77 -70 89 -70 4 0 49 -27 102 -60
52 -33 99 -60 105 -60 5 0 9 -3 9 -7 0 -5 29 -21 65 -38 36 -16 65 -33 65 -36
0 -4 10 -9 23 -13 12 -3 32 -15 45 -26 12 -11 22 -18 22 -14 0 3 10 0 22 -8
61 -39 335 -181 358 -185 8 -1 16 -7 18 -12 2 -6 12 -11 23 -11 10 0 19 -4 19
-10 0 -5 8 -10 18 -10 9 0 26 -7 36 -15 10 -8 23 -12 27 -9 5 3 9 1 9 -5 0 -6
17 -17 38 -27 20 -9 54 -25 75 -36 20 -10 37 -16 37 -11 0 4 4 3 8 -2 4 -6 18
-15 32 -21 67 -31 99 -44 109 -44 6 0 11 -4 11 -9 0 -8 27 -19 40 -17 3 0 21
-9 41 -22 20 -12 44 -22 53 -22 9 0 16 -5 16 -11 0 -6 6 -9 13 -6 6 2 19 -2
27 -9 9 -7 30 -14 47 -16 17 -1 29 -6 27 -10 -3 -5 8 -11 25 -14 17 -4 31 -10
31 -15 0 -5 11 -9 24 -9 14 0 28 -5 31 -10 3 -5 14 -10 24 -10 10 0 40 -11 67
-25 27 -14 57 -25 66 -25 9 0 18 -4 20 -10 2 -5 15 -11 31 -12 15 -1 27 -6 27
-9 0 -4 13 -10 30 -14 16 -4 32 -11 35 -16 4 -5 17 -9 30 -9 13 0 27 -4 30
-10 3 -5 15 -10 26 -10 10 0 27 -4 37 -10 29 -16 85 -37 132 -50 25 -7 57 -19
73 -27 15 -8 27 -11 27 -7 0 3 11 -1 25 -10 13 -9 35 -16 49 -16 14 0 28 -4
31 -10 3 -5 19 -10 35 -10 16 0 31 -4 34 -9 3 -5 26 -14 50 -20 24 -6 57 -16
73 -22 32 -14 48 -18 81 -21 12 -1 22 -6 22 -10 0 -4 3 -7 8 -7 14 3 73 -14
78 -22 3 -5 18 -9 33 -9 15 0 31 -3 34 -7 7 -6 159 -49 203 -57 12 -2 30 -8
40 -14 11 -5 38 -13 61 -17 24 -4 45 -11 49 -16 3 -5 18 -9 34 -9 16 0 32 -5
35 -10 3 -5 21 -10 40 -10 19 0 37 -5 40 -11 4 -5 12 -8 18 -6 7 2 35 -4 64
-14 28 -9 54 -15 57 -12 3 3 12 0 21 -7 8 -7 15 -9 15 -4 0 4 5 3 12 -4 7 -7
23 -12 36 -12 13 0 31 -4 40 -9 9 -5 33 -11 52 -14 19 -3 50 -10 68 -16 77
-26 92 -29 86 -19 -4 5 5 3 18 -6 14 -9 28 -13 31 -9 4 3 17 2 30 -4 33 -15
146 -42 194 -46 11 -1 19 -5 17 -8 -2 -4 18 -9 44 -13 26 -4 62 -9 80 -12 17
-2 32 -2 32 0 0 10 -61 65 -78 70 -9 3 -32 20 -49 36 -18 17 -33 28 -33 24 0
-3 -12 8 -27 25 -15 17 -31 31 -36 31 -5 0 -14 6 -21 12 -8 7 -46 38 -86 68
-40 30 -84 67 -98 82 -14 16 -30 28 -37 28 -6 0 -28 16 -49 35 -21 19 -41 35
-45 35 -3 0 -20 13 -37 28 -17 15 -44 36 -59 47 -15 11 -38 30 -51 43 -13 12
-26 22 -29 22 -4 0 -23 16 -43 35 -20 19 -43 35 -49 35 -7 0 -12 5 -10 12 1 7
-4 12 -12 13 -8 0 -17 9 -22 20 -4 11 -8 17 -8 13 -1 -8 -20 6 -67 49 -50 46
-94 74 -103 68 -6 -3 -8 0 -5 8 2 8 -7 22 -22 33 -27 19 -41 33 -157 142 -37
34 -67 60 -67 56 0 -3 -15 12 -32 34 -18 22 -52 52 -75 68 -22 16 -39 32 -36
36 2 5 1 8 -4 8 -13 0 -88 73 -85 83 1 5 -2 6 -7 2 -6 -3 -17 7 -25 22 -8 15
-15 25 -16 21 0 -11 -60 53 -60 64 0 6 -3 8 -6 5 -4 -4 -23 13 -43 36 -20 23
-50 57 -68 75 -17 17 -30 32 -28 32 1 0 -23 27 -55 60 -32 33 -55 60 -51 60 3
0 1 4 -4 8 -6 4 -39 42 -75 85 -35 42 -68 77 -73 77 -4 0 -6 4 -3 9 4 5 -8 22
-25 38 -17 15 -37 41 -46 57 -8 16 -26 39 -39 51 -13 12 -24 27 -24 32 0 5 -9
18 -21 29 -12 10 -29 35 -39 54 -10 19 -27 45 -39 56 -11 12 -18 24 -15 26 2
3 -7 15 -21 28 -14 13 -25 29 -25 36 0 6 -6 17 -13 23 -8 6 -24 31 -37 55 -12
25 -31 54 -42 66 -10 11 -16 20 -13 20 3 0 -6 17 -20 37 -14 21 -25 44 -25 51
0 7 -4 10 -10 7 -5 -3 -10 -1 -10 6 0 19 -40 101 -61 124 -10 11 -18 22 -18
25 -1 24 -25 69 -34 63 -6 -3 -7 -1 -3 6 4 6 -2 24 -13 40 -11 15 -18 31 -14
35 3 3 2 6 -4 6 -5 0 -10 7 -10 15 0 18 -34 87 -48 97 -5 4 -6 8 -1 8 5 0 3 7
-4 15 -7 8 -9 15 -4 15 4 0 3 5 -4 12 -7 7 -12 20 -12 29 0 10 -5 19 -10 21
-6 2 -12 13 -13 26 0 12 -5 22 -10 22 -4 0 -5 5 -2 10 3 6 3 10 -2 10 -4 0 -9
12 -10 26 0 15 -5 29 -10 33 -4 3 -10 17 -11 31 -2 14 -8 30 -12 35 -13 16
-60 167 -60 191 0 12 -4 24 -9 26 -6 2 -12 14 -14 28 -2 14 -7 32 -10 40 -6
15 -24 83 -34 130 -2 14 -7 32 -10 40 -4 8 -5 18 -5 23 1 4 -1 7 -6 7 -4 0 -7
15 -8 33 0 17 -5 50 -11 72 -20 76 -33 161 -33 211 0 28 -4 54 -10 60 -5 5
-11 33 -12 62 -2 28 -5 52 -8 52 -25 0 -18 784 8 886 4 16 7 41 6 57 0 15 3
27 7 27 5 0 9 31 9 69 0 39 4 72 8 75 4 2 9 24 10 47 2 23 9 59 16 80 9 26 10
37 2 32 -6 -3 -6 0 2 8 6 7 12 26 12 41 0 15 5 28 10 28 6 0 10 15 10 33 0 18
6 39 13 46 10 11 9 12 -3 6 -12 -6 -13 -5 -2 6 6 7 12 24 12 37 0 13 5 32 11
43 9 18 14 35 23 76 1 7 5 16 9 19 4 4 7 18 7 31 0 13 4 31 9 41 5 9 17 45 27
79 10 34 22 59 25 57 4 -2 6 4 5 13 -2 9 3 28 11 42 7 15 13 35 13 47 0 11 4
24 8 30 16 17 61 132 55 138 -4 3 -1 6 6 6 7 0 9 5 6 10 -3 6 -2 10 4 10 6 0
8 6 5 14 -3 8 0 17 5 21 6 3 9 11 6 16 -4 5 1 12 9 15 9 3 16 14 16 24 0 10
16 46 35 80 19 34 35 68 35 76 0 8 5 14 12 14 6 0 8 3 5 7 -4 3 -3 11 2 17 17
21 51 87 51 98 0 6 7 19 16 29 8 9 16 26 17 37 0 11 4 19 8 16 4 -2 19 22 35
54 15 31 40 76 57 100 16 24 30 50 31 57 1 8 9 22 17 32 9 10 31 43 50 73 18
30 37 57 41 58 5 2 8 9 8 17 0 7 7 18 15 25 8 6 31 37 52 68 20 32 41 62 45
67 5 6 18 24 31 42 52 75 92 129 104 141 7 7 13 17 13 22 0 4 20 29 45 54 24
25 42 46 39 46 -5 0 44 57 93 108 18 19 30 39 26 45 -3 5 -2 7 4 4 11 -7 45
28 36 37 -4 3 1 6 10 6 8 0 18 8 22 19 7 22 61 72 69 64 6 -6 10 23 6 42 -1 6
2 7 6 3 4 -4 64 50 134 120 70 70 160 156 200 192 112 101 119 107 113 114 -4
3 0 6 8 6 8 0 43 27 79 60 35 33 70 60 78 60 7 0 10 5 7 10 -3 6 -2 10 4 10 5
0 26 16 45 35 20 19 38 35 41 35 14 0 111 90 108 101 -2 4 4 6 11 3 8 -3 19 3
26 15 6 12 16 21 21 21 12 0 59 35 94 70 12 11 26 20 32 20 7 0 16 6 20 13 4
7 33 31 63 52 79 57 90 67 83 78 -3 6 -1 7 5 4 14 -9 43 3 36 14 -3 5 1 9 8 9
7 0 25 11 40 25 15 14 30 25 34 25 4 0 38 26 77 57 39 31 67 50 63 42 -4 -8 4
-1 18 14 14 15 26 25 26 21 0 -4 10 1 22 12 14 13 19 14 14 4 -4 -8 1 -5 11 6
10 12 38 34 62 49 25 15 53 36 64 46 12 10 29 21 39 25 10 3 15 10 12 16 -4 7
-2 8 4 4 13 -8 85 37 77 47 -3 4 -2 5 1 2 8 -5 64 26 64 36 0 4 9 9 21 12 12
3 18 10 14 16 -3 7 0 8 9 5 9 -3 16 -1 16 6 0 6 4 9 8 6 5 -3 18 3 28 12 10
10 34 27 52 37 17 11 32 23 32 27 0 4 4 8 10 8 12 0 123 70 132 83 3 6 13 12
22 13 9 1 22 8 30 16 8 7 55 37 105 67 50 31 87 60 84 65 -4 6 -3 8 2 4 8 -7
78 26 102 48 6 6 25 17 42 24 18 7 28 17 24 24 -3 6 -3 8 2 4 9 -9 85 31 85
44 0 5 4 7 9 4 4 -3 19 3 31 14 12 11 27 17 33 13 6 -4 8 0 4 11 -4 9 -3 15 2
11 5 -3 55 22 111 55 56 33 108 60 116 60 8 0 14 4 14 10 0 5 17 17 38 26 20
10 56 30 78 45 23 16 44 25 48 22 3 -4 6 -1 6 5 0 7 9 12 21 12 11 0 17 5 14
10 -3 6 3 10 13 10 11 0 22 7 26 15 3 8 12 15 20 15 26 0 66 23 59 34 -3 6 -3
8 2 4 4 -4 31 5 59 21 28 15 85 46 126 67 41 21 77 41 80 44 3 3 21 12 40 21
19 9 49 22 65 30 17 8 35 19 40 25 6 6 26 17 45 24 19 7 40 18 45 23 7 7 5 7
-4 2 -10 -5 -12 -4 -7 4 4 6 12 9 17 6 5 -4 26 3 47 14 20 11 55 28 77 37 22
10 53 26 68 37 15 10 40 22 55 27 15 4 26 12 25 18 -2 6 4 9 12 6 8 -3 22 1
31 10 8 9 20 14 25 11 5 -4 9 -2 9 4 0 5 13 12 30 16 16 4 32 11 35 16 4 5 16
9 27 9 12 0 18 3 15 6 -6 6 36 29 103 56 14 6 36 17 50 24 22 13 65 33 140 67
14 6 42 22 62 34 21 13 44 23 52 23 16 0 78 31 87 43 3 5 9 8 13 8 25 -4 36 0
30 11 -4 6 -3 8 3 5 6 -4 53 12 104 35 52 23 119 52 149 66 30 13 67 30 83 38
15 9 27 12 27 7 0 -4 4 -3 8 2 4 6 27 19 52 29 25 10 65 27 90 39 25 12 50 22
56 22 6 0 18 5 25 11 16 12 62 30 102 38 17 4 25 11 21 18 -4 7 -3 8 5 4 6 -4
23 -1 36 8 13 9 33 16 44 16 11 0 23 5 26 10 3 6 15 10 25 10 10 0 22 5 26 12
5 7 3 8 -6 3 -8 -5 -11 -4 -6 3 4 6 13 9 21 5 9 -3 25 1 38 9 12 8 42 20 67
28 25 8 64 25 88 37 24 13 50 23 58 23 8 0 22 4 32 9 24 12 77 33 77 30 0 -1
18 7 40 18 22 12 42 21 45 21 13 1 50 15 98 38 29 13 59 24 67 24 9 0 23 4 33
9 9 6 51 22 92 36 41 15 89 32 105 38 17 7 34 10 39 9 5 -2 16 3 25 11 9 8 39
20 66 27 28 7 55 16 60 20 6 4 28 13 50 20 22 7 54 18 70 25 17 7 50 18 75 25
25 8 52 20 61 27 9 7 18 11 21 8 3 -3 18 0 34 6 16 7 38 14 49 16 32 5 79 26
87 37 5 8 8 7 8 0 0 -8 13 -5 36 7 21 10 41 16 45 13 5 -3 9 0 9 5 0 6 14 11
30 11 17 0 30 5 30 10 0 6 13 10 29 10 16 0 36 6 43 13 14 15 45 25 98 34 19
3 37 8 40 12 6 9 86 33 125 39 16 2 34 7 40 12 11 8 84 34 100 35 6 1 20 6 32
13 12 7 31 12 42 12 11 0 23 5 26 10 3 6 21 10 39 10 17 0 36 4 42 9 9 8 55
23 157 52 26 7 47 16 47 19 0 3 8 6 18 7 44 4 74 12 87 23 8 7 15 10 15 6 0
-3 16 1 36 9 20 8 49 16 65 17 16 1 29 5 29 8 0 6 77 30 119 37 14 2 32 8 42
14 10 5 29 9 43 9 14 0 26 5 26 12 0 6 3 8 6 5 4 -3 16 -1 27 4 20 11 32 14
100 25 20 3 40 10 43 15 3 5 21 9 40 9 19 0 34 4 34 8 0 4 20 13 46 20 29 8
43 16 38 24 -5 7 -3 8 7 2 15 -9 71 -6 79 5 3 3 14 7 25 8 38 5 54 9 61 16 4
4 20 7 35 7 15 0 30 4 34 10 3 5 13 6 22 3 9 -4 14 -2 11 3 -4 5 10 10 30 12
20 1 41 7 46 12 6 6 25 10 42 10 18 0 35 4 39 9 3 6 26 13 50 17 25 3 48 10
51 15 3 5 18 9 33 9 16 0 44 6 62 14 19 7 40 11 47 9 6 -3 12 0 12 6 0 6 3 10
8 9 4 -1 21 2 37 6 102 25 121 30 134 40 12 9 13 8 6 -4 -6 -12 -5 -13 6 -2 7
6 27 12 45 12 17 0 37 7 44 15 7 8 16 13 20 10 4 -2 32 1 61 9 30 7 81 19 114
26 33 6 69 16 80 21 11 5 34 11 50 13 17 2 30 5 30 6 0 2 36 10 75 17 19 3 43
9 52 14 9 5 31 9 48 9 17 0 40 5 51 11 11 6 30 13 42 15 12 3 27 6 32 7 6 2
15 5 20 8 6 3 28 7 50 8 22 2 47 7 57 12 9 5 37 10 62 11 25 2 46 5 46 8 0 3
26 11 58 19 31 7 61 16 66 19 5 3 21 6 35 8 43 5 123 22 181 39 30 9 66 18 80
21 34 6 100 20 190 40 41 10 80 17 87 17 7 0 13 3 13 7 0 3 8 6 18 7 9 1 31 2
49 4 18 1 31 5 29 8 -4 5 42 12 101 15 12 1 19 3 17 6 -5 4 50 17 151 36 17 3
44 9 60 14 17 5 48 11 70 14 22 3 40 5 40 6 0 1 7 3 15 5 154 31 226 48 240
55 10 5 20 7 23 4 8 -8 88 6 83 15 -3 3 8 6 22 5 26 -1 108 14 202 37 25 6 50
12 56 13 7 1 20 8 30 16 18 14 18 14 4 -4 -14 -18 -13 -18 10 -11 14 4 27 10
30 14 3 3 16 6 30 6 14 -1 63 7 110 17 47 10 114 23 149 28 36 6 69 14 75 17
5 4 24 8 40 9 17 2 42 6 56 9 14 3 50 8 80 11 30 3 66 9 80 14 14 5 49 11 79
15 30 3 59 9 65 12 5 4 32 8 60 10 28 2 55 8 60 13 4 4 15 6 24 3 8 -4 13 -2
10 3 -4 5 15 10 40 11 67 3 177 19 192 28 6 4 37 11 68 15 32 5 73 11 92 15
38 6 65 11 120 18 19 3 107 17 195 32 88 15 177 28 197 28 20 1 35 4 32 9 -3
4 2 5 10 2 9 -3 16 -2 16 2 0 5 19 10 43 10 23 1 85 9 137 19 110 20 242 35
253 28 4 -2 9 2 12 9 4 8 28 14 71 15 36 2 71 6 77 10 6 4 32 8 57 10 25 1 76
8 113 14 38 6 84 11 104 11 25 0 32 3 22 9 -9 6 -10 9 -2 9 6 0 15 -5 19 -11
5 -8 8 -8 14 0 4 7 38 14 78 15 39 2 76 7 83 11 6 5 30 9 53 11 23 2 57 5 76
8 51 7 206 25 277 32 39 4 60 11 56 17 -4 6 -1 7 8 2 16 -10 68 -8 83 4 6 4
23 6 39 5 15 -2 26 0 23 4 -2 4 17 7 42 8 47 0 149 10 210 20 64 10 278 36
331 40 30 3 62 10 70 17 12 9 13 9 7 0 -4 -8 -1 -13 9 -13 9 0 14 3 12 8 -3 4
38 8 91 10 54 1 113 5 132 8 19 4 78 12 130 18 52 7 102 15 110 19 8 3 24 6
35 5 78 -3 145 3 139 13 -4 7 1 7 16 -1 12 -7 20 -8 16 -2 -3 5 9 10 27 10 96
1 639 49 667 59 8 3 60 8 115 10 55 3 106 10 114 16 11 9 13 9 8 0 -5 -8 5
-11 33 -9 22 1 43 5 46 9 4 4 21 7 38 7 49 -1 429 32 446 37 27 10 54 12 163
13 59 0 106 4 103 8 -2 4 20 5 49 2 30 -3 62 -2 72 4 9 5 33 8 52 8 20 -1 83
3 141 8 58 5 177 15 265 21 88 6 176 13 195 14 19 2 70 4 113 4 60 1 76 4 71
14 -6 8 -3 8 9 -1 17 -14 90 -14 119 0 9 4 77 10 150 13 73 3 147 7 163 10 17
3 84 7 150 10 66 3 181 9 255 15 74 5 197 12 273 15 76 2 141 6 145 8 4 3 90
8 192 12 102 4 188 9 192 12 5 2 88 6 186 9 97 3 202 9 232 14 30 5 111 9 180
10 115 1 375 8 375 11 0 4 66 8 238 13 111 4 222 9 247 11 25 3 128 7 230 10
102 3 304 10 450 15 146 5 370 12 498 15 128 2 236 6 240 9 4 2 189 7 412 10
223 4 423 9 445 11 137 17 3697 17 3724 1 16 -10 581 -5 581 5 0 6 -4 7 -10 4
-5 -3 -10 -1 -10 5 0 8 -9 10 -24 6 -14 -3 -37 -1 -53 5 -15 6 -55 13 -88 15
-33 2 -85 7 -115 11 -30 4 -78 7 -107 7 -28 1 -49 4 -47 8 3 4 -14 6 -36 4
-22 -2 -43 0 -45 5 -3 4 -44 10 -93 14 -48 4 -91 10 -97 14 -5 4 -48 8 -94 10
-47 1 -89 5 -94 8 -5 3 -41 7 -81 9 -39 3 -107 9 -151 15 -44 6 -114 11 -155
12 -44 1 -80 7 -88 15 -8 7 -43 12 -90 12 -42 0 -103 4 -135 10 -31 5 -82 10
-112 11 -30 1 -55 5 -55 8 0 3 -17 6 -37 7 -85 3 -219 17 -234 24 -8 5 -50 9
-92 9 -43 0 -82 3 -89 7 -6 4 -44 9 -84 10 -40 2 -107 8 -150 14 -44 6 -119
13 -169 16 -49 3 -92 10 -95 14 -3 5 -45 9 -93 9 -49 0 -92 3 -97 6 -5 3 -48
8 -97 10 -48 3 -119 9 -158 15 -38 5 -115 13 -170 16 -55 3 -101 10 -103 15
-2 5 -50 9 -106 9 -56 0 -106 4 -112 9 -5 5 -76 11 -158 15 -82 4 -153 9 -159
13 -5 3 -51 8 -101 10 -50 3 -95 8 -101 13 -5 4 -55 8 -109 9 -55 1 -103 4
-108 7 -18 12 -78 12 -78 1 0 -8 -3 -8 -8 -2 -4 6 -36 12 -72 14 -36 2 -99 7
-140 13 -41 5 -124 11 -184 14 -60 2 -114 8 -120 13 -6 5 -88 10 -183 12 -94
2 -169 7 -167 10 2 4 -31 7 -73 8 -42 1 -84 6 -93 11 -10 5 -20 7 -23 4 -8 -8
-96 -10 -90 -1 2 4 -2 7 -9 7 -131 3 -275 14 -283 21 -5 5 -68 9 -140 9 -71 0
-136 4 -142 8 -7 5 -37 5 -68 2 -30 -3 -52 -4 -49 0 8 7 -299 30 -485 36 -84
2 -160 8 -170 13 -9 5 -87 9 -175 10 -87 1 -162 4 -167 6 -9 6 -352 20 -486
20 -50 0 -89 3 -86 8 6 9 32 8 -247 13 -134 3 -249 9 -255 14 -6 5 -135 10
-286 11 -151 1 -292 3 -314 4 -241 20 -2052 30 -2745 15z m-19410 -5704 c0 -7
-22 -32 -49 -56 -27 -25 -47 -48 -45 -52 3 -4 0 -8 -7 -8 -11 0 -204 -191
-265 -262 -17 -21 -29 -40 -25 -44 3 -4 1 -4 -6 0 -12 6 -62 -39 -99 -90 -11
-14 -40 -47 -66 -72 -26 -26 -48 -53 -48 -61 0 -8 -3 -11 -7 -8 -3 4 -20 -12
-37 -35 -16 -22 -41 -52 -54 -65 -12 -13 -20 -28 -17 -33 3 -5 0 -7 -8 -4 -8
3 -21 -9 -32 -31 -11 -19 -23 -35 -27 -35 -4 0 -25 -25 -46 -55 -22 -30 -43
-51 -47 -47 -5 4 -5 2 -1 -5 3 -6 -4 -22 -17 -35 -13 -13 -44 -50 -68 -83 -24
-33 -52 -69 -61 -79 -17 -19 -22 -31 -19 -48 0 -5 -6 -8 -15 -8 -8 0 -12 -4
-9 -10 3 -5 -1 -10 -9 -10 -9 0 -17 -4 -17 -10 -1 -5 -2 -15 -3 -20 0 -6 -8
-15 -16 -20 -8 -5 -11 -10 -7 -10 4 0 -4 -12 -18 -27 -14 -16 -28 -36 -31 -45
-3 -10 -9 -18 -13 -18 -5 0 -25 -28 -46 -62 -21 -35 -43 -66 -48 -69 -5 -3 -8
-9 -8 -13 1 -6 -48 -86 -95 -157 -13 -19 -24 -38 -24 -43 0 -4 -15 -30 -33
-59 -18 -29 -39 -67 -46 -84 -7 -18 -17 -33 -21 -33 -4 0 -14 -17 -23 -37 -9
-21 -28 -56 -42 -78 -14 -22 -30 -49 -35 -60 -6 -11 -14 -27 -19 -35 -5 -8
-17 -32 -25 -52 -9 -20 -21 -40 -26 -43 -6 -4 -8 -10 -5 -15 3 -4 -2 -13 -10
-20 -8 -7 -15 -16 -15 -21 0 -9 -9 -30 -67 -159 -14 -30 -31 -68 -38 -85 -7
-16 -26 -60 -44 -96 -17 -37 -34 -77 -36 -90 -3 -13 -9 -25 -15 -27 -5 -2 -10
-15 -10 -28 0 -13 -5 -24 -12 -24 -6 0 -8 -3 -5 -6 3 -4 1 -16 -5 -28 -12 -21
-17 -37 -20 -68 -1 -9 -5 -15 -8 -13 -4 2 -14 -22 -24 -53 -10 -31 -22 -66
-26 -77 -5 -11 -16 -45 -25 -75 -10 -30 -22 -63 -27 -74 -7 -13 -6 -16 2 -11
7 4 5 -4 -4 -17 -9 -14 -13 -28 -9 -32 4 -4 2 -11 -5 -15 -7 -4 -14 -22 -17
-40 -2 -18 -8 -38 -14 -44 -5 -7 -11 -26 -14 -42 -4 -29 -8 -44 -28 -93 -7
-18 -6 -21 3 -16 9 6 9 3 -1 -9 -7 -9 -10 -17 -7 -17 4 0 4 -6 -1 -12 -4 -7
-8 -20 -10 -28 -1 -8 -6 -23 -12 -35 -5 -11 -12 -36 -14 -55 -6 -47 -46 -211
-56 -230 -4 -8 -8 -37 -10 -64 -1 -27 -6 -57 -11 -66 -5 -10 -11 -45 -12 -78
-1 -33 -6 -58 -10 -56 -8 5 -9 2 -13 -78 -1 -26 -8 -54 -15 -63 -10 -12 -10
-15 0 -15 9 0 9 -4 3 -12 -6 -7 -13 -55 -17 -107 -4 -52 -9 -97 -11 -101 -3
-4 -6 -60 -7 -123 -2 -63 -6 -113 -9 -111 -4 2 -7 -2 -6 -9 0 -6 -1 -75 -1
-153 -2 -177 -9 -189 -71 -136 -51 43 -141 132 -189 185 -19 20 -38 37 -43 37
-6 0 -8 3 -6 8 3 4 -1 13 -9 20 -8 7 -14 10 -14 7 0 -4 -12 8 -27 27 -16 18
-40 46 -55 62 -16 16 -28 34 -28 39 0 6 -3 8 -6 4 -6 -6 -52 43 -51 53 1 3
-10 17 -23 31 -39 41 -112 128 -129 153 -53 78 -77 112 -88 121 -25 22 -119
180 -174 295 -67 139 -72 152 -72 169 0 9 -4 21 -9 28 -5 7 -11 22 -13 35 -2
13 -6 34 -9 48 -29 119 -32 466 -6 580 6 25 13 63 15 84 3 22 9 44 15 50 5 5
10 25 10 42 0 18 5 36 10 39 6 3 10 16 10 29 0 12 7 31 15 42 8 10 15 29 15
41 0 12 5 23 10 25 6 2 12 13 13 26 0 12 5 22 9 22 4 0 7 4 5 8 -2 9 83 204
94 212 3 3 9 14 13 25 5 19 92 164 113 190 18 23 43 65 38 65 -3 0 3 9 13 19
31 35 42 50 42 58 0 5 13 23 29 40 16 18 26 34 23 37 -3 3 0 6 6 6 7 0 12 6
12 13 0 8 12 24 26 38 14 13 42 47 62 74 20 28 40 52 44 53 5 2 6 8 2 13 -3 5
2 9 10 9 9 0 16 4 16 8 0 25 281 320 436 457 37 33 84 76 105 95 81 76 115
106 141 126 15 12 24 24 20 28 -3 4 1 4 10 1 11 -4 20 1 28 14 6 12 16 21 22
21 6 0 21 11 34 25 13 14 28 25 34 25 5 0 10 5 10 10 0 6 7 10 15 10 8 0 15 5
15 10 0 6 6 10 14 10 8 0 16 7 20 15 3 8 12 15 20 15 8 0 21 8 28 18 7 9 27
25 43 34 17 10 29 22 27 28 -1 7 2 9 7 6 5 -4 15 0 23 7 7 7 21 16 31 20 9 3
17 11 17 17 0 5 7 10 15 10 8 0 15 4 15 8 0 4 15 16 33 27 17 10 41 27 51 37
11 10 23 18 28 18 4 0 30 16 57 35 26 19 51 35 55 35 9 0 90 54 94 63 2 4 8 7
14 7 6 0 25 11 42 23 17 13 59 39 94 58 45 24 61 37 57 49 -5 11 -3 12 5 4 12
-12 60 3 60 19 0 4 5 7 10 7 6 0 28 11 50 25 22 14 46 25 55 25 8 0 15 7 15
16 0 10 6 14 15 10 8 -3 15 -1 15 4 0 5 11 12 25 16 14 3 25 10 25 15 0 5 9 9
20 9 11 0 20 5 20 11 0 5 5 7 10 4 6 -3 10 -2 10 3 0 4 16 14 35 22 19 8 35
17 35 22 0 4 12 8 27 8 14 0 23 3 20 6 -6 6 9 14 103 57 14 7 27 14 30 17 3 3
32 18 65 33 33 16 67 33 75 38 22 13 72 36 93 43 11 3 15 11 11 17 -4 8 -3 9
4 5 12 -7 74 21 80 37 2 4 12 7 23 7 19 0 25 2 84 32 32 16 55 13 55 -6z
m2191 -9373 c13 -16 12 -17 -3 -4 -17 13 -22 21 -14 21 2 0 10 -8 17 -17z"/>
<path d="M47203 33735 c0 -7 10 -10 24 -7 26 5 23 15 -6 17 -10 1 -18 -4 -18
-10z"/>
<path d="M22329 23363 c-8 -9 -30 -23 -49 -31 -19 -7 -48 -24 -65 -37 -16 -12
-41 -25 -54 -30 -12 -4 -39 -18 -58 -31 -20 -13 -40 -24 -44 -24 -5 0 -28 -13
-51 -29 -24 -15 -63 -41 -88 -57 -25 -16 -75 -51 -112 -79 -37 -27 -85 -62
-106 -77 -39 -27 -81 -99 -115 -198 -8 -25 -22 -64 -31 -86 -50 -134 -76 -427
-49 -559 7 -33 12 -81 13 -107 0 -88 17 -98 71 -42 18 20 50 47 69 60 19 13
61 45 92 71 97 82 239 200 328 271 l84 69 1 244 c0 240 1 245 28 329 16 47 36
99 44 115 52 100 67 125 103 173 22 29 40 57 40 62 0 16 -36 11 -51 -7z"/>
<path d="M21373 22675 c-26 -31 -83 -95 -127 -143 -72 -80 -227 -281 -268
-349 -10 -15 -31 -48 -47 -73 -131 -200 -143 -235 -149 -410 -3 -107 0 -167
12 -229 9 -46 16 -109 16 -142 0 -32 4 -61 10 -64 5 -3 51 38 102 92 141 149
307 311 364 353 55 42 104 95 104 114 0 6 -10 39 -21 71 -20 54 -22 83 -24
295 -1 158 3 250 11 280 21 79 52 174 68 212 24 57 3 54 -51 -7z"/>
<path d="M29301 22501 c23 -20 56 -48 73 -63 17 -15 36 -28 42 -28 7 0 15 -7
18 -16 3 -8 11 -12 17 -8 8 4 9 3 5 -4 -8 -14 30 -36 46 -26 6 4 8 3 5 -3 -7
-11 28 -45 37 -36 3 4 6 -1 6 -11 0 -9 5 -14 10 -11 6 3 10 2 10 -4 0 -6 12
-17 28 -25 15 -8 50 -35 77 -60 28 -25 53 -46 56 -46 3 0 19 -11 35 -25 16
-14 37 -28 47 -31 9 -3 17 -10 17 -15 0 -5 6 -9 13 -9 7 0 27 -16 44 -35 17
-19 34 -35 38 -35 3 0 12 -6 19 -12 8 -7 28 -24 45 -38 17 -14 43 -36 59 -50
15 -14 41 -34 56 -45 16 -11 38 -30 49 -42 11 -13 24 -23 28 -23 8 0 20 -10
99 -83 25 -23 47 -36 56 -33 9 3 12 2 9 -5 -8 -11 55 -70 67 -63 5 3 7 1 6 -4
-3 -10 26 -40 122 -121 30 -26 100 -92 155 -147 55 -55 117 -113 137 -128 21
-16 35 -32 32 -37 -3 -5 -1 -9 4 -9 5 0 31 -23 58 -52 27 -29 82 -85 122 -126
39 -41 72 -77 72 -80 0 -3 10 -15 23 -27 12 -12 38 -40 57 -63 22 -27 40 -40
50 -37 12 5 12 4 3 -6 -9 -9 -5 -19 20 -42 18 -16 32 -33 32 -37 0 -3 7 -14
17 -23 9 -9 26 -32 38 -52 12 -19 26 -35 31 -35 5 0 9 -4 9 -10 0 -9 25 -42
58 -76 6 -7 12 -16 12 -19 0 -6 14 -25 60 -82 5 -6 30 -42 55 -80 25 -37 51
-76 58 -87 6 -10 18 -24 25 -32 6 -7 12 -18 12 -25 0 -7 6 -20 14 -28 15 -17
52 -80 87 -148 12 -23 27 -39 32 -36 6 3 7 2 4 -4 -8 -13 57 -125 68 -116 4 4
5 2 1 -5 -4 -7 1 -30 13 -51 11 -22 17 -42 14 -45 -4 -3 -1 -6 5 -6 7 0 12 -4
12 -10 0 -5 15 -40 33 -77 18 -38 34 -72 36 -78 1 -5 8 -23 16 -40 7 -16 18
-46 25 -65 12 -34 34 -87 51 -122 5 -10 9 -27 9 -37 0 -11 5 -23 10 -26 6 -3
10 -13 10 -22 0 -9 8 -25 18 -36 9 -11 12 -17 5 -14 -6 4 -3 -14 8 -43 10 -28
19 -61 19 -73 0 -13 4 -27 10 -33 5 -5 11 -18 13 -29 1 -11 6 -26 11 -33 4 -7
10 -28 12 -45 3 -18 9 -45 14 -61 6 -16 10 -42 10 -57 0 -16 4 -29 9 -29 8 0
27 -85 23 -102 -1 -5 1 -8 6 -8 4 0 8 -22 10 -49 2 -28 6 -60 9 -73 3 -13 8
-48 10 -78 2 -30 8 -64 13 -75 17 -36 41 -402 39 -593 -2 -175 -25 -454 -41
-478 -4 -5 -8 -43 -9 -82 -1 -40 -6 -72 -11 -72 -4 0 -8 -16 -8 -36 0 -19 -5
-44 -10 -55 -8 -14 -7 -19 1 -19 8 0 8 -4 1 -12 -5 -7 -13 -33 -16 -57 -3 -25
-10 -49 -16 -55 -5 -5 -10 -27 -10 -47 0 -21 -4 -40 -9 -44 -6 -3 -10 -13 -10
-23 1 -27 -7 -64 -20 -95 -6 -16 -11 -37 -11 -48 0 -11 -4 -17 -10 -14 -6 4
-10 -5 -10 -20 0 -15 -4 -34 -9 -44 -6 -10 -12 -28 -14 -42 -2 -13 -9 -35 -14
-49 -6 -14 -21 -56 -33 -95 -13 -38 -36 -96 -51 -129 -15 -32 -25 -65 -21 -74
3 -10 1 -13 -6 -8 -7 4 -12 1 -12 -8 0 -19 -32 -89 -45 -98 -6 -5 -4 -8 5 -8
9 0 11 -3 5 -8 -6 -4 -16 -20 -24 -37 -7 -16 -18 -39 -24 -50 -55 -107 -66
-129 -61 -137 3 -4 -2 -11 -10 -14 -9 -3 -16 -15 -16 -25 0 -10 -4 -19 -10
-19 -5 0 -10 -8 -10 -17 0 -9 -8 -25 -17 -36 -13 -15 -14 -18 -3 -12 8 4 4 -4
-9 -18 -14 -15 -21 -27 -16 -27 5 0 -2 -11 -15 -25 -13 -14 -20 -25 -17 -25 4
0 -2 -9 -12 -19 -10 -10 -22 -33 -26 -50 -4 -17 -10 -31 -14 -31 -4 0 -16 -18
-27 -40 -10 -22 -22 -40 -26 -40 -5 0 -8 -5 -8 -10 0 -12 -47 -86 -72 -114
-10 -11 -18 -24 -18 -28 0 -5 -9 -19 -21 -31 -11 -12 -29 -38 -39 -57 -10 -19
-27 -44 -39 -54 -12 -11 -21 -24 -21 -31 0 -6 -16 -30 -35 -52 -19 -23 -35
-44 -35 -47 0 -3 -13 -20 -30 -38 -16 -17 -30 -34 -30 -38 0 -4 -10 -18 -21
-31 -12 -13 -38 -44 -58 -69 -20 -24 -55 -65 -79 -90 -23 -25 -48 -57 -55 -73
-6 -15 -20 -30 -29 -33 -10 -3 -18 -9 -18 -13 0 -7 -90 -105 -166 -181 -19
-20 -32 -39 -28 -43 4 -4 1 -7 -7 -7 -8 0 -33 -19 -55 -43 -23 -23 -98 -95
-168 -161 -69 -65 -123 -122 -120 -127 3 -5 -1 -6 -9 -3 -8 3 -23 -6 -34 -20
-11 -14 -23 -22 -27 -19 -3 3 -6 1 -6 -5 0 -6 -9 -14 -20 -17 -11 -4 -18 -10
-15 -15 3 -5 -4 -14 -17 -21 -12 -6 -49 -35 -82 -63 -34 -29 -72 -61 -85 -71
-13 -11 -31 -28 -40 -37 -8 -10 -19 -18 -24 -18 -11 0 -62 -53 -60 -62 2 -4
-4 -5 -12 -2 -8 4 -17 -1 -21 -10 -3 -9 -11 -16 -17 -16 -5 0 -25 -15 -43 -34
-18 -19 -35 -31 -38 -28 -3 3 -6 -1 -6 -8 0 -7 -3 -11 -6 -7 -6 5 -30 -11 -70
-49 -13 -12 -25 -19 -28 -16 -3 3 -6 0 -6 -6 0 -7 -7 -12 -15 -12 -8 0 -15 -4
-15 -8 0 -4 -14 -16 -30 -26 -17 -9 -28 -22 -24 -27 3 -5 2 -8 -3 -7 -12 3
-54 -22 -77 -47 -12 -12 -30 -25 -41 -27 -11 -2 -19 -10 -17 -16 1 -7 -1 -11
-5 -10 -11 2 -63 -24 -63 -31 0 -4 -15 -15 -32 -26 -18 -10 -37 -24 -41 -32
-4 -7 -13 -13 -19 -13 -7 0 -25 -12 -41 -27 -17 -16 -27 -21 -23 -13 4 8 -1 5
-11 -6 -10 -12 -28 -25 -40 -29 -13 -3 -23 -11 -23 -16 0 -5 -5 -9 -10 -9 -6
0 -22 -11 -36 -25 -14 -14 -30 -25 -35 -25 -15 0 -39 -26 -31 -34 3 -4 -1 -4
-11 0 -10 3 -17 1 -17 -5 0 -6 -7 -11 -15 -11 -8 0 -15 -4 -15 -10 0 -5 -10
-10 -22 -10 -12 0 -18 -3 -15 -6 4 -4 -8 -15 -26 -25 -17 -9 -31 -22 -29 -29
1 -6 -2 -9 -8 -5 -9 6 -81 -34 -117 -65 -7 -5 -17 -10 -23 -10 -5 0 -10 -4
-10 -9 0 -5 -15 -16 -32 -25 -50 -25 -72 -40 -81 -53 -4 -7 -15 -13 -22 -13
-8 0 -15 -4 -15 -10 0 -5 -8 -10 -18 -10 -10 0 -24 -9 -32 -19 -7 -11 -17 -18
-22 -15 -4 3 -8 0 -8 -5 0 -6 -6 -11 -12 -11 -24 0 -163 -92 -153 -101 2 -2
-8 -5 -22 -6 -14 0 -28 -5 -32 -11 -3 -5 -28 -21 -56 -36 -27 -15 -55 -33 -60
-39 -6 -7 -17 -13 -25 -15 -8 -2 -17 -7 -20 -11 -3 -4 -22 -15 -42 -24 -21
-10 -38 -22 -38 -26 0 -5 -11 -12 -25 -15 -14 -4 -23 -11 -20 -16 3 -6 -1 -7
-9 -4 -9 3 -16 1 -16 -6 0 -6 -4 -9 -9 -6 -5 3 -14 -1 -21 -9 -7 -8 -31 -24
-54 -35 -22 -11 -61 -33 -86 -49 -25 -16 -53 -30 -63 -30 -10 -1 -15 -5 -12
-11 3 -5 -1 -10 -10 -10 -9 0 -33 -11 -53 -25 -20 -14 -42 -25 -49 -25 -7 0
-13 -4 -13 -8 0 -11 -52 -37 -81 -41 -5 0 -7 -6 -3 -13 4 -6 3 -8 -3 -5 -5 3
-25 -4 -44 -16 -19 -11 -36 -22 -39 -22 -21 -6 -48 -21 -65 -36 -11 -9 -29
-19 -40 -21 -11 -1 -26 -9 -33 -15 -7 -7 -19 -13 -26 -13 -7 0 -22 -9 -34 -20
-12 -12 -22 -19 -22 -16 0 2 -42 -18 -92 -46 -51 -27 -105 -56 -120 -64 -16
-8 -41 -21 -57 -29 -46 -24 -113 -57 -151 -74 -19 -9 -41 -22 -48 -29 -8 -7
-18 -10 -23 -7 -5 4 -9 1 -9 -4 0 -6 -6 -11 -14 -11 -8 0 -42 -16 -76 -35 -34
-19 -66 -35 -70 -35 -12 0 -74 -34 -78 -43 -2 -4 -8 -5 -13 -1 -5 3 -9 0 -9
-6 0 -6 -4 -8 -10 -5 -5 3 -10 1 -10 -6 0 -7 -3 -9 -6 -6 -4 4 -19 0 -33 -7
-14 -8 -51 -25 -81 -39 -126 -58 -149 -70 -145 -77 3 -5 -4 -6 -15 -3 -11 3
-20 0 -20 -6 0 -6 -9 -11 -20 -11 -10 0 -42 -13 -70 -30 -27 -16 -50 -27 -50
-25 0 3 -10 -1 -22 -9 -13 -8 -26 -15 -30 -16 -17 -1 -44 -15 -56 -27 -12 -12
-34 -17 -54 -14 -5 0 -8 -3 -8 -9 0 -5 -12 -10 -26 -10 -14 0 -23 -4 -19 -10
3 -6 -4 -10 -17 -10 -13 0 -32 -7 -42 -15 -11 -8 -28 -15 -38 -15 -10 0 -18
-4 -18 -10 0 -5 -6 -10 -13 -10 -7 0 -38 -12 -68 -26 -30 -15 -59 -27 -66 -28
-7 -1 -16 -5 -19 -9 -4 -4 -16 -7 -26 -7 -10 0 -18 -5 -18 -10 0 -6 -3 -9 -7
-8 -13 3 -53 -13 -53 -21 0 -4 -23 -14 -51 -21 -27 -8 -52 -18 -55 -22 -3 -4
-13 -8 -23 -8 -10 0 -24 -6 -30 -14 -6 -7 -37 -21 -69 -30 -31 -9 -73 -26 -92
-38 -19 -12 -42 -21 -52 -19 -9 1 -19 -3 -23 -9 -3 -5 -14 -10 -24 -10 -10 0
-39 -11 -65 -25 -26 -14 -56 -25 -67 -25 -10 0 -19 -4 -19 -8 0 -4 -21 -14
-47 -21 -27 -8 -52 -17 -58 -21 -5 -3 -32 -14 -60 -24 -54 -19 -71 -26 -127
-50 -20 -9 -43 -16 -51 -16 -9 0 -19 -5 -22 -10 -3 -5 -17 -10 -30 -10 -13 0
-27 -5 -31 -12 -5 -7 -3 -8 6 -3 9 5 11 4 6 -4 -4 -6 -11 -9 -15 -7 -11 7
-185 -54 -193 -67 -4 -7 -8 -9 -8 -4 0 4 -13 1 -30 -8 -16 -8 -42 -15 -59 -15
-16 0 -31 -3 -33 -7 -3 -7 -82 -39 -118 -47 -8 -2 -64 -23 -125 -46 -60 -23
-117 -42 -125 -42 -8 -1 -17 -4 -20 -7 -8 -10 -167 -61 -189 -61 -11 0 -21 -5
-23 -10 -2 -6 -14 -12 -28 -14 -14 -1 -34 -6 -45 -11 -72 -29 -90 -35 -111
-35 -13 0 -24 -4 -24 -10 0 -5 -8 -10 -18 -10 -11 0 -34 -7 -52 -16 -18 -9
-40 -18 -49 -19 -26 -2 -73 -15 -111 -30 -19 -8 -69 -23 -110 -35 -41 -12 -86
-26 -100 -32 -14 -6 -36 -12 -49 -15 -14 -2 -29 -7 -35 -11 -6 -3 -20 -8 -31
-9 -10 -2 -22 -7 -25 -11 -3 -4 -21 -9 -40 -11 -19 -1 -39 -7 -44 -12 -6 -5
-19 -9 -30 -9 -12 0 -30 -7 -40 -15 -10 -8 -23 -12 -28 -9 -5 3 -20 -2 -35
-11 -14 -10 -22 -12 -18 -4 6 8 4 10 -6 3 -8 -4 -23 -10 -34 -11 -18 -3 -112
-34 -155 -50 -8 -4 -21 -5 -27 -4 -7 1 -13 -2 -13 -6 0 -4 -17 -9 -37 -11 -20
-1 -40 -7 -44 -13 -3 -6 -19 -12 -35 -14 -16 -2 -54 -11 -84 -20 -91 -27 -123
-34 -133 -28 -6 3 -7 1 -3 -5 4 -7 1 -12 -6 -13 -21 -1 -38 -5 -123 -29 -44
-13 -87 -24 -95 -25 -37 -6 -59 -18 -53 -29 4 -7 1 -6 -9 1 -8 7 -18 9 -22 5
-9 -8 -96 -31 -146 -38 -19 -3 -44 -9 -55 -14 -17 -7 -140 -41 -240 -66 -16
-4 -32 -8 -35 -9 -3 -1 -20 -5 -37 -9 -18 -4 -33 -11 -33 -15 0 -4 -21 -8 -47
-10 -27 -1 -52 -6 -57 -12 -6 -5 -24 -9 -41 -9 -17 0 -35 -4 -40 -8 -6 -5 -46
-17 -90 -26 -44 -10 -87 -22 -97 -27 -9 -4 -37 -9 -62 -10 -24 -2 -43 -6 -41
-10 3 -4 -10 -10 -28 -13 -17 -3 -43 -9 -57 -12 -14 -3 -29 -6 -35 -7 -5 -2
-16 -6 -22 -10 -7 -5 -13 -5 -13 -1 0 3 -8 0 -17 -7 -15 -12 -16 -12 -8 1 7
12 6 13 -6 4 -8 -7 -32 -14 -54 -17 -54 -7 -139 -29 -145 -38 -3 -4 -25 -9
-50 -13 -71 -9 -132 -22 -165 -35 -16 -7 -31 -12 -33 -11 -4 2 -115 -21 -148
-31 -17 -5 -39 -9 -50 -9 -11 0 -26 -6 -33 -12 -11 -11 -12 -10 -6 2 7 12 6
13 -6 4 -8 -6 -50 -19 -94 -28 -44 -10 -96 -22 -116 -27 -20 -5 -52 -9 -72 -9
-20 0 -38 -4 -41 -9 -3 -5 -23 -12 -43 -17 -21 -4 -40 -8 -43 -9 -3 -1 -25 -5
-50 -9 -25 -4 -58 -11 -75 -16 -16 -5 -47 -10 -68 -12 -21 -1 -36 -7 -34 -13
3 -6 -11 -10 -32 -11 -38 -1 -92 -10 -126 -21 -26 -9 -38 -11 -112 -19 -34 -4
-60 -11 -57 -15 3 -5 -3 -9 -13 -10 -10 0 -27 -3 -38 -5 -11 -3 -27 -5 -35 -5
-8 -1 -28 -5 -45 -9 -16 -5 -48 -11 -70 -14 -95 -14 -141 -22 -152 -29 -6 -4
-33 -10 -60 -13 -26 -3 -50 -9 -53 -12 -3 -4 -18 -8 -35 -9 -32 -2 -80 -11
-210 -39 -111 -25 -105 -24 -155 -30 -25 -3 -52 -8 -60 -11 -14 -5 -32 -8 -97
-17 -16 -2 -46 -8 -68 -14 -76 -20 -147 -32 -186 -32 -22 0 -38 -4 -35 -8 2
-4 -3 -8 -12 -9 -33 -2 -108 -14 -206 -33 -54 -11 -109 -20 -121 -20 -13 0
-36 -5 -52 -11 -15 -6 -51 -12 -80 -13 -28 0 -49 -4 -46 -8 2 -5 -9 -8 -25 -8
-17 0 -63 -7 -103 -15 -41 -8 -94 -16 -119 -19 -25 -3 -64 -10 -87 -16 -24 -5
-46 -10 -50 -9 -5 1 -11 0 -15 -1 -16 -5 -24 -6 -88 -14 -36 -5 -69 -11 -74
-14 -5 -3 -35 -7 -65 -9 -31 -2 -72 -7 -91 -12 -44 -12 -169 -33 -192 -32 -10
0 -18 -3 -18 -7 0 -4 -19 -8 -43 -9 -45 -2 -121 -10 -177 -19 -19 -3 -64 -10
-100 -15 -36 -5 -72 -12 -80 -16 -8 -3 -24 -6 -36 -7 -11 -1 -29 -8 -39 -16
-11 -8 -16 -10 -12 -4 4 8 -3 11 -23 10 -17 0 -30 -3 -30 -6 0 -3 -15 -6 -32
-6 -103 -3 -176 -9 -172 -15 2 -3 -25 -9 -59 -13 -129 -14 -248 -31 -244 -36
3 -3 -25 -6 -62 -8 -36 -1 -82 -4 -101 -7 -19 -2 -118 -16 -220 -29 -187 -26
-247 -33 -333 -41 -26 -2 -53 -7 -59 -11 -6 -4 -32 -8 -57 -9 -53 -2 -237 -24
-297 -35 -23 -4 -81 -8 -130 -9 -48 -1 -97 -7 -108 -13 -11 -6 -38 -10 -59
-10 -22 1 -43 -1 -48 -4 -6 -3 -33 -7 -62 -9 -60 -4 -149 -12 -262 -26 -44 -5
-111 -9 -150 -9 -39 0 -75 -4 -80 -9 -6 -5 -54 -12 -107 -14 -54 -3 -101 -7
-105 -10 -4 -2 -51 -8 -103 -12 -52 -3 -126 -10 -165 -15 -38 -5 -116 -10
-173 -10 -66 0 -101 -4 -97 -10 4 -6 -16 -10 -54 -10 -33 0 -62 -4 -66 -10 -3
-5 -12 -7 -20 -3 -14 5 -303 -14 -355 -23 -14 -3 -97 -7 -185 -11 -88 -3 -164
-9 -170 -13 -5 -5 -63 -11 -128 -14 -64 -2 -121 -8 -127 -11 -5 -3 -46 -7 -92
-10 -201 -9 -305 -16 -325 -20 -12 -3 -80 -5 -150 -6 -70 0 -132 -4 -138 -9
-6 -5 -75 -11 -153 -14 -78 -2 -145 -7 -149 -9 -5 -2 -62 -8 -128 -11 -66 -4
-156 -10 -200 -13 -44 -3 -86 -5 -92 -4 -7 0 -19 0 -25 0 -7 -1 -89 -3 -183
-5 -93 -2 -179 -8 -190 -13 -11 -5 -123 -14 -250 -21 -126 -6 -252 -13 -280
-15 -27 -2 -111 -7 -185 -10 -74 -3 -160 -8 -190 -10 -30 -2 -131 -5 -225 -6
-93 0 -177 -5 -185 -9 -8 -4 -94 -10 -190 -14 -176 -6 -529 -21 -715 -31 -55
-2 -273 -7 -485 -10 -212 -4 -396 -10 -410 -15 -14 -5 -133 -11 -265 -14 -132
-4 -411 -11 -620 -18 -686 -21 -4076 -14 -4642 9 -62 3 -113 1 -113 -4 0 -5
17 -9 38 -11 92 -5 143 -12 161 -21 12 -7 22 -6 29 1 7 7 12 8 12 2 0 -5 28
-10 62 -12 35 -1 90 -6 123 -12 33 -5 87 -11 120 -14 33 -3 95 -10 138 -16 43
-6 88 -10 100 -8 12 1 29 -2 37 -7 8 -5 37 -10 65 -11 68 -4 174 -14 199 -19
12 -2 55 -7 96 -9 122 -9 284 -27 300 -35 8 -4 53 -8 100 -9 47 -2 108 -7 135
-12 28 -5 87 -11 132 -12 46 -2 83 -6 83 -11 0 -4 3 -6 8 -6 4 1 9 1 12 0 3
-1 45 -4 95 -7 49 -3 94 -9 100 -13 5 -5 53 -9 105 -10 60 -2 97 -7 102 -14 6
-9 8 -9 8 0 0 11 11 11 40 0 19 -7 199 -25 312 -31 48 -3 96 -10 107 -15 11
-6 53 -11 93 -11 40 0 102 -5 138 -10 36 -5 107 -11 159 -14 51 -3 98 -9 105
-14 6 -5 51 -9 100 -10 49 0 93 -5 99 -11 6 -6 45 -11 87 -11 41 0 111 -4 155
-10 44 -5 122 -12 174 -15 52 -4 102 -10 110 -13 9 -4 57 -7 106 -7 59 0 95
-4 103 -13 16 -14 66 -17 57 -2 -4 6 2 7 17 1 13 -4 73 -11 134 -15 62 -3 118
-8 125 -10 8 -3 62 -7 121 -10 58 -2 110 -6 115 -9 4 -2 57 -8 118 -11 60 -4
112 -9 114 -12 2 -2 10 1 17 7 8 7 14 6 20 -2 4 -8 3 -9 -4 -5 -7 4 -12 2 -12
-3 0 -7 40 -11 113 -11 63 0 117 -3 121 -7 4 -4 24 -6 44 -5 20 1 107 -5 192
-14 85 -8 208 -17 273 -19 64 -3 125 -9 135 -14 16 -8 137 -14 325 -16 37 0
67 -3 67 -7 0 -5 30 -8 68 -9 37 0 108 -5 157 -10 50 -5 162 -12 250 -15 87
-3 164 -9 170 -13 5 -4 71 -8 145 -9 74 -1 202 -7 285 -12 82 -6 174 -11 205
-11 30 0 105 -5 165 -10 61 -5 204 -12 320 -14 115 -3 212 -9 215 -13 6 -9 26
-10 33 -2 3 3 62 2 131 -2 69 -4 233 -8 365 -10 131 -2 237 -6 234 -10 -4 -8
183 -12 602 -13 170 0 233 -3 243 -13 14 -13 46 -17 39 -4 -3 4 362 5 810 2
448 -3 820 -2 826 2 7 3 221 9 477 13 256 4 467 10 470 13 3 4 68 7 145 7 212
0 945 25 1120 39 33 2 139 7 235 11 96 4 178 9 182 11 8 5 335 19 445 19 39 0
69 3 66 8 -2 4 33 8 79 8 118 2 199 7 393 23 94 7 220 17 280 20 61 3 157 10
215 16 58 5 150 12 205 15 90 5 379 30 448 38 15 2 27 -2 27 -7 0 -8 3 -8 8 0
6 9 82 15 222 18 25 1 47 4 50 8 3 4 57 9 120 12 63 2 122 7 130 9 8 3 107 13
220 21 261 21 309 25 343 32 15 3 67 7 115 8 49 1 93 6 99 9 6 4 44 9 85 12
40 3 118 10 173 15 55 6 129 12 165 13 36 1 71 6 77 10 7 5 53 10 103 12 49 2
94 6 98 9 5 3 32 6 60 7 28 1 50 5 48 8 -2 3 17 6 42 7 104 2 288 17 297 24 6
4 35 8 65 10 50 3 92 5 143 9 10 0 16 4 14 8 -3 5 34 9 81 11 48 1 90 6 95 11
6 6 20 6 34 0 17 -6 30 -6 38 1 7 5 45 10 86 11 41 1 81 5 89 9 8 5 51 11 95
15 44 4 83 9 86 11 4 2 42 6 85 10 43 3 82 11 86 17 6 9 8 9 8 0 0 -8 9 -9 29
-3 16 4 65 9 108 11 43 2 85 6 93 10 13 7 239 39 280 40 8 1 40 5 70 9 30 5
84 10 120 12 36 1 68 6 71 11 3 4 30 9 60 11 85 5 258 29 254 35 -2 3 40 7 93
9 53 2 102 8 109 14 7 6 39 11 70 13 32 2 65 5 73 8 28 9 225 37 263 37 21 0
48 5 60 12 12 6 46 13 74 14 29 1 57 5 63 9 6 4 29 8 53 10 95 9 214 27 245
36 19 6 55 13 80 15 26 2 67 8 92 13 79 17 177 33 217 35 21 1 43 5 50 9 6 4
31 10 55 13 24 3 59 10 78 15 19 5 52 9 72 9 20 0 39 3 42 8 2 4 33 9 67 10
35 2 71 8 81 13 10 6 39 12 64 15 26 2 52 8 58 11 6 4 18 8 26 10 68 10 103
15 155 20 33 3 65 9 70 14 6 4 35 11 65 14 30 4 58 9 63 12 4 2 27 7 50 9 23
3 49 7 57 10 8 4 40 10 70 14 30 5 98 18 150 29 52 12 105 21 117 21 12 0 23
4 25 10 2 5 28 10 58 12 30 1 57 6 60 9 3 4 25 10 50 14 25 4 50 10 55 14 6 5
30 9 53 10 24 0 49 4 55 8 7 4 19 9 27 11 16 3 30 6 105 22 28 6 61 13 75 15
14 3 39 8 55 13 17 4 40 7 52 6 12 -1 20 3 17 7 -5 8 39 14 79 11 10 -1 15 3
12 8 -3 6 0 10 7 11 7 0 22 2 33 5 11 2 32 5 48 6 15 1 27 5 27 8 0 3 19 7 42
9 23 1 45 5 48 9 3 4 14 8 25 9 49 5 64 10 81 23 15 12 16 13 9 1 -6 -11 -4
-13 11 -7 38 16 80 27 114 32 19 2 49 9 65 14 17 5 44 11 62 13 17 3 37 8 44
13 7 4 28 9 48 11 19 2 38 7 41 11 3 4 21 9 40 11 19 2 40 6 45 9 6 4 21 8 35
10 14 1 41 8 60 14 19 7 42 13 50 14 22 4 103 25 120 32 8 3 24 7 35 9 23 3
58 11 65 13 3 1 8 2 13 1 4 0 7 3 7 8 0 6 8 10 18 10 9 0 24 1 32 4 8 2 33 7
55 12 22 4 43 13 47 19 5 7 8 6 8 -4 0 -13 2 -13 9 -1 5 8 24 15 42 16 19 0
44 7 57 13 12 7 22 10 22 8 0 -3 11 -1 25 4 28 11 70 20 100 23 11 1 23 5 26
10 3 4 14 9 25 11 26 6 125 33 144 40 8 3 29 7 45 10 33 5 168 43 200 57 11 4
36 11 55 15 19 3 40 9 45 12 6 4 20 8 33 10 13 1 46 12 73 22 27 11 63 20 79
20 17 0 30 4 30 10 0 5 3 9 8 9 4 -1 9 -1 12 1 3 1 16 3 30 6 14 2 32 7 40 11
8 3 26 8 39 10 14 2 32 8 42 14 10 5 27 9 38 9 12 0 29 4 39 9 23 12 95 36
157 51 28 7 55 16 60 20 6 4 26 11 45 15 19 4 41 12 48 17 6 6 12 8 12 4 0 -3
16 1 36 9 20 8 45 15 56 15 13 0 17 4 12 13 -5 7 -1 7 12 -3 10 -8 15 -10 11
-5 -4 5 11 14 35 21 24 7 75 22 113 33 82 24 188 59 230 77 16 7 33 10 38 7 4
-2 15 1 23 8 9 7 25 14 37 16 11 2 26 8 34 14 7 6 13 9 13 6 0 -3 30 5 68 19
37 14 74 27 83 29 38 8 154 51 157 57 2 4 10 4 19 1 11 -4 14 -2 9 5 -4 7 0
10 12 7 10 -2 32 2 48 9 44 20 98 36 117 36 9 0 17 4 17 10 0 5 12 12 28 16
27 6 59 16 97 30 11 4 29 9 40 11 11 2 35 11 54 19 18 9 40 17 47 18 7 1 17 5
20 9 4 4 16 7 26 7 10 0 18 4 18 8 0 4 14 9 32 10 17 2 36 6 42 11 6 4 36 16
66 27 30 10 60 21 65 24 6 4 51 20 100 35 50 16 92 32 95 35 3 3 14 6 25 8 20
3 75 25 107 42 10 6 27 10 38 10 12 0 19 3 17 7 -3 5 9 9 25 10 17 1 38 9 47
16 9 8 22 12 30 9 8 -3 11 0 7 7 -4 7 -2 9 7 5 8 -3 18 -1 22 5 3 6 16 11 29
11 12 0 28 6 34 12 7 7 18 13 25 13 24 1 97 28 97 37 0 4 13 8 28 8 15 0 32 4
37 8 6 5 26 15 45 22 52 19 103 40 122 51 10 5 24 9 32 9 8 0 29 8 48 17 62
31 68 33 88 33 12 0 18 5 15 10 -3 6 5 10 19 10 14 0 27 4 30 9 3 5 22 12 41
15 19 4 35 11 35 16 0 6 11 10 25 10 14 0 25 5 25 10 0 6 6 10 13 9 6 -1 32 7
57 19 24 11 48 18 52 16 4 -3 8 0 8 5 0 6 8 11 18 11 10 0 22 4 27 8 6 5 36
17 68 27 31 11 57 22 57 25 0 4 23 13 50 20 28 7 50 17 50 21 0 4 14 10 31 14
17 4 42 13 56 20 15 8 31 11 36 8 6 -3 7 -1 3 5 -6 10 11 17 36 14 3 -1 12 5
18 13 7 8 21 15 31 15 10 0 21 5 24 10 3 6 17 10 30 10 13 0 27 5 30 10 3 6
14 10 24 10 10 0 24 7 31 15 7 8 21 15 32 15 12 0 17 4 12 12 -4 7 -3 8 4 4 6
-4 31 2 54 12 108 48 142 62 154 62 8 0 14 5 14 10 0 6 10 10 23 10 12 0 31 7
41 15 11 8 28 15 38 15 10 0 18 5 18 10 0 6 6 10 13 10 7 0 37 11 65 25 29 14
56 25 60 25 16 0 72 31 72 40 0 4 8 7 18 6 9 -2 22 2 27 8 6 7 28 18 50 25 22
7 69 27 105 45 35 17 67 31 71 31 13 0 79 40 79 48 0 4 4 5 10 2 5 -3 22 0 37
8 16 8 46 23 68 33 22 11 42 22 45 25 3 3 23 12 45 20 22 7 51 21 65 30 38 24
91 49 107 49 7 0 13 5 13 10 0 6 7 10 16 10 8 0 30 11 48 25 18 14 38 25 45
25 6 0 23 7 36 16 14 9 25 13 25 9 0 -5 8 -1 18 7 27 23 109 68 114 62 3 -2
11 2 18 11 7 8 21 15 31 15 11 0 19 5 19 10 0 6 7 10 16 10 8 0 13 4 10 9 -3
5 10 12 29 15 19 4 35 11 35 16 0 6 7 10 15 10 8 0 15 4 15 9 0 5 13 12 30 16
16 4 32 11 36 16 3 5 27 20 52 32 26 12 55 28 65 37 10 8 21 16 25 16 26 5 52
18 52 25 0 5 6 9 14 9 7 0 19 7 26 15 7 8 16 12 21 9 5 -3 12 1 15 9 3 8 30
27 60 43 29 15 54 34 54 41 0 7 7 10 15 7 8 -4 15 -1 15 6 0 6 4 9 9 6 4 -3
26 8 47 24 21 16 45 30 53 30 8 0 11 3 8 7 -4 4 7 13 24 20 19 8 28 17 23 24
-4 7 -3 9 4 5 6 -3 13 -2 17 4 3 5 13 10 21 10 9 0 22 6 29 13 33 29 45 37 45
32 0 -4 22 9 49 29 27 20 53 36 59 36 6 0 15 6 19 14 4 7 23 21 41 30 19 10
30 21 26 28 -4 6 -3 8 4 4 6 -3 17 1 25 9 9 8 20 15 26 15 6 0 11 5 11 10 0 6
5 10 11 10 6 0 17 6 24 13 33 29 45 37 54 37 6 0 15 8 20 18 6 9 11 14 11 10
0 -4 10 3 23 15 32 30 60 52 72 56 6 2 9 7 7 12 -1 5 4 8 10 7 7 -2 12 3 10
10 -1 8 2 11 7 8 5 -4 16 0 24 9 8 8 20 16 27 17 7 2 22 12 34 23 12 11 37 32
56 47 55 43 101 82 121 101 11 9 24 17 29 17 6 0 10 5 10 10 0 6 8 10 17 10 9
0 14 3 11 6 -7 6 27 44 38 44 7 0 49 38 116 103 21 20 40 37 43 37 2 0 20 16
40 37 19 20 35 32 35 27 0 -5 7 2 16 14 8 12 76 82 149 154 74 72 131 136 128
141 -3 6 -1 7 4 4 6 -4 24 9 40 28 17 19 35 35 42 35 6 0 10 4 9 8 -2 5 14 26
34 46 21 21 35 43 31 49 -3 7 -3 9 2 5 8 -8 59 45 97 99 13 18 29 33 36 33 7
0 10 5 7 10 -3 6 -1 10 6 10 7 0 10 3 7 6 -8 8 35 51 46 46 5 -3 6 -1 3 5 -4
5 13 31 36 58 23 26 42 52 42 57 0 5 5 12 10 16 6 4 23 25 40 47 16 22 32 42
35 45 3 3 16 23 29 45 13 22 29 44 37 48 8 4 14 12 14 17 0 6 8 19 18 29 28
32 37 44 58 81 10 19 24 40 31 47 6 7 17 26 25 43 7 16 16 30 20 30 5 0 8 9 8
21 0 11 5 17 10 14 6 -3 10 0 10 7 0 7 14 31 30 52 16 21 27 43 24 47 -3 5 -1
9 4 9 5 0 12 8 16 18 5 17 26 52 36 62 12 12 170 323 170 335 0 2 12 30 26 62
15 32 32 72 39 88 7 17 21 48 31 70 16 38 20 50 27 78 2 6 13 34 25 61 12 27
22 54 22 61 0 6 9 38 21 71 12 32 23 72 25 87 2 16 7 34 11 40 4 7 9 21 11 32
5 32 9 49 15 65 7 18 24 93 32 139 3 19 9 39 12 45 4 6 8 29 10 51 2 22 8 58
13 80 5 22 12 65 14 95 3 30 9 98 15 150 6 52 11 123 11 157 0 34 5 65 10 68
6 3 10 11 10 16 0 6 -5 7 -12 3 -7 -4 -8 -3 -4 4 8 14 11 171 3 192 -3 8 -10
76 -15 150 -14 179 -23 254 -31 260 -3 3 -7 19 -7 35 -2 65 -8 110 -15 120 -3
6 -10 31 -13 57 -4 26 -11 50 -15 53 -5 2 -9 15 -9 27 -1 13 -3 30 -5 38 -2 8
-7 32 -12 53 -4 20 -11 37 -17 37 -5 0 -6 5 -3 10 3 6 2 10 -3 10 -5 0 -9 7
-9 15 0 18 -22 94 -34 117 -5 10 -9 25 -9 33 0 8 -5 15 -11 15 -5 0 -7 5 -4
10 4 6 2 16 -3 23 -6 7 -16 31 -23 55 -6 23 -16 42 -21 42 -5 0 -6 5 -3 10 3
6 1 10 -5 10 -6 0 -9 4 -5 10 3 5 -6 27 -20 49 -14 23 -25 45 -25 50 0 13 -33
75 -43 79 -4 2 -5 7 -2 12 3 5 0 14 -7 22 -7 7 -14 19 -16 27 -1 7 -9 20 -17
28 -9 8 -13 19 -10 24 4 5 2 9 -2 9 -5 0 -17 18 -27 40 -10 22 -22 40 -27 40
-6 0 -8 4 -5 9 3 5 -3 20 -14 34 -11 14 -20 30 -20 36 0 6 -4 11 -10 11 -5 0
-10 6 -10 14 0 7 -7 20 -16 27 -9 7 -20 22 -25 34 -16 35 -47 83 -69 105 -11
11 -25 32 -30 46 -6 15 -15 22 -22 18 -7 -4 -8 -3 -4 5 4 6 0 14 -8 17 -9 3
-13 10 -10 15 3 5 0 9 -6 9 -6 0 -9 4 -6 8 3 5 -13 29 -34 53 -22 24 -40 47
-40 51 0 4 -6 13 -13 20 -7 7 -26 31 -42 53 -35 46 -69 86 -107 126 -16 16
-28 32 -28 35 0 4 -16 23 -36 41 -20 18 -33 33 -29 33 5 0 -11 18 -35 40 -24
22 -48 50 -55 62 -6 13 -17 22 -24 20 -7 -1 -10 1 -7 6 7 11 -158 184 -167
176 -4 -4 -7 -2 -7 4 0 6 -72 84 -160 172 -88 88 -160 165 -160 171 0 6 -4 8
-8 5 -5 -3 -15 3 -24 12 -27 31 -206 194 -212 193 -3 0 -33 26 -66 58 -33 33
-67 62 -75 65 -8 3 -15 10 -15 16 0 5 -7 10 -16 10 -8 0 -12 5 -9 10 3 6 3 10
-2 10 -4 0 -26 16 -48 36 -22 20 -56 48 -75 62 -19 15 -46 39 -59 54 -13 16
-30 28 -38 28 -7 0 -16 7 -19 15 -4 8 -12 15 -19 15 -7 0 -16 7 -19 16 -3 8
-10 12 -16 9 -5 -3 -10 0 -10 7 0 8 -12 21 -27 30 -16 10 -44 31 -63 47 -19
17 -41 31 -48 31 -7 0 -11 4 -8 9 5 7 -18 23 -31 22 -1 0 -17 14 -36 32 -47
44 -87 77 -95 77 -4 0 -20 12 -37 26 -53 46 -112 83 -120 76 -5 -4 -5 -2 -1 5
4 8 -6 19 -26 29 -31 16 -107 71 -118 86 -3 3 -11 8 -19 10 -8 2 -27 15 -43
31 -16 15 -34 24 -40 21 -6 -4 -9 -3 -5 2 3 5 -27 29 -66 54 -39 24 -84 56
-100 72 -16 15 -33 26 -37 23 -4 -2 -15 4 -25 15 -10 11 -23 20 -28 20 -6 0
-18 7 -28 16 -10 9 -31 23 -48 32 -16 10 -60 37 -98 62 -38 25 -85 54 -106 64
-20 11 -37 23 -37 28 0 4 -4 8 -9 8 -6 0 -36 16 -67 34 -32 19 -62 32 -67 29
-6 -3 -7 -1 -3 6 8 12 -33 32 -49 23 -5 -3 -7 -2 -3 3 8 9 -55 51 -119 79 -24
11 -43 23 -43 28 0 4 -5 8 -10 8 -6 0 -28 11 -50 25 -22 14 -47 25 -55 25 -9
0 -13 5 -10 10 3 6 -3 10 -14 10 -12 0 -21 4 -21 9 0 5 -18 16 -40 25 -22 9
-58 27 -80 41 -22 14 -45 25 -51 25 -6 0 -24 9 -40 21 -16 11 -38 21 -48 22
-11 0 -18 4 -15 8 2 4 -6 9 -19 13 -29 7 -26 6 -76 38 -25 15 -53 28 -63 28
-10 0 -18 4 -18 8 0 5 -19 16 -42 26 -60 24 -180 80 -261 121 -37 18 -64 29
-60 22 3 -6 -8 -1 -26 12 -17 13 -37 24 -44 25 -7 1 -26 10 -43 19 -17 9 -34
13 -38 10 -3 -4 -6 -2 -6 3 0 6 -17 16 -37 23 -21 7 -54 19 -73 28 -79 33 -73
31 -115 43 -5 2 -38 16 -72 32 -35 15 -69 28 -78 28 -8 0 -15 4 -15 8 0 8 -89
38 -102 34 -3 -1 -12 5 -18 13 -7 8 -25 15 -41 15 -16 0 -29 3 -29 8 0 4 -29
16 -65 26 -36 10 -68 23 -71 27 -3 5 -15 9 -28 9 -12 0 -27 5 -32 10 -6 6 -24
12 -41 13 -17 1 -29 6 -25 11 3 5 -5 7 -16 4 -12 -4 -20 -3 -18 1 5 8 -71 32
-108 35 -13 0 -22 4 -19 9 2 4 -2 7 -10 7 -8 0 -27 7 -44 15 -16 8 -42 16 -57
17 -14 1 -26 6 -26 10 0 4 -11 8 -24 8 -13 0 -37 7 -52 15 -16 8 -36 15 -45
15 -9 0 -19 3 -22 7 -7 6 -41 13 -79 16 -9 1 -14 5 -12 9 3 4 -7 8 -21 8 -15
0 -34 4 -44 10 -10 5 -29 11 -42 14 -13 3 -49 12 -79 21 -30 9 -84 25 -120 35
-36 10 -77 23 -92 29 -16 6 -28 8 -28 6 0 -3 -16 2 -36 10 -20 8 -48 15 -63
15 -15 0 -31 4 -36 9 -6 5 -23 11 -40 14 -56 9 -145 32 -145 37 0 3 -17 7 -37
8 -20 2 -42 7 -48 12 -9 7 -31 13 -100 25 -11 2 -31 7 -45 13 -14 5 -28 10
-32 11 -5 0 -9 1 -10 2 -2 0 -16 3 -33 5 -16 3 -41 9 -55 14 -14 5 -42 12 -62
14 -21 2 -42 7 -48 11 -5 3 -29 8 -52 11 -24 3 -47 9 -52 15 -6 5 -25 9 -42 9
-18 0 -35 4 -38 9 -3 5 -22 11 -41 13 l-36 4 42 -35z m5059 -4652 c14 -11 18
-18 10 -14 -8 4 1 -6 20 -21 61 -50 133 -121 185 -183 28 -33 56 -60 63 -60 6
-1 12 -5 12 -10 0 -10 81 -101 153 -173 21 -21 35 -38 31 -38 -4 0 1 -9 11
-20 10 -11 22 -17 28 -13 6 3 7 1 3 -5 -3 -6 5 -22 19 -36 14 -14 22 -26 18
-26 -4 -1 1 -8 12 -18 11 -9 34 -38 51 -64 17 -26 34 -45 38 -41 3 3 6 1 6 -5
0 -23 3 -28 38 -67 6 -7 12 -18 12 -24 0 -6 4 -11 9 -11 5 0 12 -8 15 -18 4
-10 14 -27 24 -38 9 -10 25 -35 34 -54 9 -19 26 -51 37 -70 34 -62 75 -155 73
-167 -2 -6 2 -14 8 -18 5 -3 10 -16 10 -29 0 -12 4 -26 10 -32 5 -5 12 -23 14
-39 3 -17 9 -48 14 -70 6 -22 13 -67 16 -100 8 -86 10 -320 3 -332 -3 -5 -8
-39 -10 -76 -3 -36 -8 -71 -12 -77 -4 -6 -9 -26 -11 -43 -3 -18 -9 -41 -14
-52 -5 -11 -11 -33 -14 -50 -9 -58 -19 -90 -29 -103 -6 -8 -13 -23 -14 -35 -2
-12 -7 -24 -11 -27 -4 -3 -9 -16 -10 -29 -2 -14 -9 -36 -15 -50 -5 -14 -10
-29 -9 -33 1 -5 -2 -8 -7 -8 -4 0 -23 -33 -41 -72 -18 -40 -40 -81 -48 -90 -8
-10 -11 -18 -6 -18 5 0 4 -4 -1 -8 -6 -4 -19 -26 -29 -49 -11 -24 -23 -43 -28
-43 -4 0 -8 -7 -8 -17 0 -13 -39 -75 -59 -93 -4 -3 -13 -18 -21 -35 -8 -16
-17 -32 -20 -35 -13 -12 -65 -86 -64 -90 0 -3 -4 -10 -10 -16 -22 -23 -52 -61
-91 -114 -53 -72 -62 -85 -112 -139 -24 -25 -43 -49 -43 -53 0 -4 -38 -47 -85
-95 -46 -47 -82 -90 -79 -95 3 -4 -1 -8 -8 -9 -7 0 -30 -21 -50 -45 -21 -25
-38 -43 -38 -40 0 6 -99 -84 -162 -146 -15 -16 -30 -28 -33 -28 -3 0 -18 -12
-34 -27 -35 -33 -98 -88 -166 -143 -27 -22 -61 -50 -75 -63 -41 -35 -88 -67
-101 -67 -7 0 -9 -3 -6 -6 4 -4 -15 -20 -41 -37 -26 -16 -49 -32 -52 -36 -3
-4 -24 -20 -47 -37 -24 -17 -40 -34 -36 -38 4 -4 0 -4 -9 -1 -11 4 -20 -1 -28
-14 -6 -12 -20 -21 -31 -21 -11 0 -17 -4 -14 -10 3 -5 1 -10 -5 -10 -12 0 -80
-48 -92 -65 -4 -6 -8 -6 -8 -1 0 6 -7 1 -16 -10 -8 -10 -13 -12 -9 -4 4 10 2
9 -8 -2 -8 -10 -16 -15 -19 -13 -3 3 -11 -1 -18 -10 -7 -8 -18 -15 -25 -15 -8
0 -15 -3 -17 -7 -4 -11 -86 -63 -98 -63 -5 0 -10 -4 -10 -10 0 -5 -5 -10 -11
-10 -7 0 -18 -8 -26 -17 -9 -11 -12 -12 -7 -3 4 8 -4 5 -18 -7 -13 -13 -32
-23 -41 -23 -9 0 -17 -4 -17 -8 0 -5 -16 -17 -35 -28 -19 -10 -35 -22 -35 -26
0 -5 -11 -8 -24 -8 -13 0 -29 -7 -36 -15 -7 -8 -18 -15 -24 -15 -7 0 -22 -9
-34 -20 -12 -11 -24 -20 -28 -19 -7 2 -39 -19 -60 -39 -8 -7 -14 -11 -14 -8 0
6 -98 -45 -166 -85 -17 -10 -35 -15 -40 -11 -4 4 -2 -2 6 -12 12 -15 12 -18 1
-12 -12 8 -97 -24 -151 -55 -15 -9 -120 -64 -175 -91 -16 -9 -59 -28 -95 -44
-36 -16 -98 -46 -139 -66 -74 -37 -91 -40 -91 -12 0 16 127 144 142 144 5 0 6
5 2 12 -4 6 -3 8 2 5 11 -7 184 164 184 181 0 7 5 12 10 12 15 0 75 71 74 87
-1 7 3 10 8 7 9 -6 55 38 128 125 19 22 52 59 73 81 21 22 35 40 31 40 -5 0 1
7 13 15 12 8 48 48 81 89 33 41 63 72 66 69 3 -4 6 -1 6 6 0 11 13 30 60 88 6
7 10 17 10 23 0 6 5 8 12 4 6 -4 8 -3 4 4 -3 6 -2 13 4 17 6 4 8 11 5 16 -4 5
-1 9 5 9 12 0 40 24 40 35 0 3 5 11 10 18 48 57 121 154 168 226 31 47 64 95
74 105 10 11 27 38 39 60 11 22 30 51 40 65 33 42 69 101 69 111 0 6 4 10 9
10 5 0 11 8 15 18 3 9 17 35 31 57 14 22 28 48 32 58 3 9 9 17 13 17 4 0 15
19 26 43 10 23 21 44 25 47 4 3 35 60 69 128 35 67 66 122 69 122 4 0 8 10 8
22 1 13 7 24 13 26 5 2 10 11 10 21 0 9 8 27 17 40 12 18 13 22 2 16 -11 -7
-11 -5 1 11 8 10 18 21 21 24 13 11 67 128 62 134 -4 3 0 6 7 6 7 0 10 3 7 7
-4 3 3 21 14 39 11 19 18 38 14 44 -3 5 -2 10 3 10 13 0 34 59 25 73 -3 5 -1
7 5 3 9 -5 36 52 37 79 0 6 4 13 9 16 9 7 18 29 50 119 9 25 20 54 25 65 16
35 31 79 34 100 2 11 9 33 16 48 6 16 9 33 5 38 -3 5 2 12 10 15 9 3 16 17 16
29 0 13 4 26 9 29 5 3 11 20 14 38 2 18 10 49 17 68 22 60 24 65 25 82 1 9 7
30 13 45 19 53 44 144 46 168 0 12 4 21 9 18 4 -2 8 7 8 21 2 34 3 39 11 52 4
6 8 28 9 50 1 21 6 44 10 49 4 6 10 30 14 55 4 24 10 49 13 55 4 5 8 19 9 30
1 11 7 47 13 80 5 33 12 78 15 100 3 22 7 47 9 55 2 8 6 45 11 83 4 37 10 67
14 67 5 0 9 53 14 185 1 22 5 42 9 45 4 3 9 65 12 137 2 72 7 136 11 143 4 7
7 60 6 120 -3 159 7 182 59 139z"/>
<path d="M22199 22184 c-13 -14 -53 -49 -89 -77 -36 -29 -125 -106 -198 -172
-74 -66 -146 -129 -161 -140 -52 -38 -151 -134 -151 -147 0 -7 11 -35 25 -62
14 -27 25 -56 25 -63 0 -8 9 -31 19 -51 11 -20 48 -95 83 -167 59 -123 92
-183 143 -265 64 -101 153 -231 203 -297 31 -40 66 -86 77 -101 41 -57 216
-260 296 -346 46 -49 88 -95 92 -102 19 -33 49 -8 193 157 82 94 158 183 168
198 11 14 58 71 106 126 133 155 162 193 158 208 -3 13 -127 151 -262 291 -26
28 -65 71 -85 96 -20 25 -41 50 -47 55 -5 6 -30 37 -54 70 -25 33 -65 86 -90
117 -25 31 -55 71 -68 90 -21 30 -35 53 -107 168 -56 91 -85 144 -141 260 -34
69 -64 137 -68 153 -8 35 -35 35 -67 1z"/>
<path d="M20597 21488 c-39 -93 -82 -216 -120 -348 -23 -79 -39 -148 -72 -325
-15 -77 -45 -275 -45 -295 0 -22 37 18 50 53 36 99 120 272 165 342 29 44 60
94 69 110 9 17 26 42 38 57 20 25 20 31 9 80 -32 146 -44 220 -45 297 -1 51
-5 86 -12 88 -6 2 -23 -25 -37 -59z"/>
<path d="M21223 21298 c-301 -303 -350 -365 -314 -403 4 -6 15 -30 24 -55 42
-121 195 -445 265 -560 136 -227 147 -243 266 -400 95 -125 146 -189 201 -251
22 -25 65 -74 95 -108 128 -148 156 -174 176 -167 10 3 44 38 74 78 30 40 62
82 72 93 9 11 43 54 75 96 62 81 204 261 266 337 20 26 37 53 37 61 0 18 -48
77 -180 222 -58 63 -124 140 -147 170 -22 30 -69 90 -104 134 -58 74 -106 140
-183 255 -16 25 -33 47 -37 50 -3 3 -16 23 -28 45 -12 22 -33 58 -45 80 -104
178 -147 265 -252 513 -7 17 -19 32 -26 32 -7 0 -113 -100 -235 -222z"/>
<path d="M20730 20733 c-18 -32 -36 -60 -39 -63 -41 -30 -180 -315 -200 -410
-11 -50 -10 -61 12 -125 38 -107 57 -156 77 -200 10 -22 36 -78 57 -125 88
-193 204 -382 365 -592 134 -175 481 -548 511 -548 10 0 35 40 72 113 65 130
74 145 172 294 50 76 72 117 66 127 -4 8 -55 65 -113 128 -151 164 -189 208
-298 348 -189 242 -308 427 -428 668 -31 62 -60 115 -65 118 -5 3 -9 13 -9 22
0 10 -9 36 -21 57 -24 47 -54 120 -79 190 -9 28 -24 51 -32 53 -10 2 -27 -18
-48 -55z"/>
<path d="M23423 20643 c-7 -2 -37 -37 -66 -76 -30 -40 -86 -108 -124 -152 -38
-44 -106 -125 -150 -180 -45 -55 -91 -110 -101 -122 -77 -85 -142 -169 -142
-182 0 -14 323 -324 441 -423 24 -21 87 -74 139 -118 52 -44 146 -119 209
-168 62 -48 142 -109 176 -137 93 -73 238 -181 365 -270 19 -14 55 -41 80 -60
64 -49 98 -67 118 -61 23 8 291 297 423 456 155 187 189 232 189 252 0 10 -15
28 -34 40 -18 13 -75 55 -127 93 -51 39 -106 79 -121 90 -83 61 -208 157 -266
206 -37 30 -94 75 -126 100 -32 24 -71 53 -85 64 -14 11 -66 53 -116 93 -49
41 -110 91 -135 111 -25 20 -63 52 -85 72 -22 20 -80 68 -129 108 -140 114
-196 162 -253 219 -53 52 -57 55 -80 45z"/>
<path d="M20403 19924 c-9 -24 6 -198 21 -241 7 -21 16 -65 21 -98 4 -33 15
-80 26 -105 10 -25 23 -67 29 -95 6 -27 20 -69 31 -94 10 -24 19 -50 19 -57 0
-8 14 -43 30 -77 17 -35 30 -67 30 -71 0 -21 142 -289 208 -393 107 -167 193
-272 342 -418 68 -66 165 -162 215 -212 110 -110 135 -122 96 -45 -31 61 -63
183 -62 236 0 28 12 91 25 140 14 49 22 95 18 102 -4 7 -64 71 -132 142 -142
146 -249 263 -282 307 -12 17 -29 37 -38 45 -48 47 -185 227 -254 335 -32 50
-66 101 -76 115 -10 14 -26 44 -37 65 -11 22 -42 83 -69 136 -27 52 -60 122
-73 155 -50 123 -60 144 -71 144 -6 0 -13 -7 -17 -16z"/>
<path d="M22635 19694 c-33 -41 -88 -110 -123 -152 -34 -42 -102 -129 -151
-192 -49 -63 -109 -142 -135 -174 -25 -33 -46 -66 -46 -74 0 -7 12 -23 26 -35
15 -12 61 -53 103 -91 68 -62 241 -208 328 -276 253 -200 346 -270 359 -270 4
0 21 -12 39 -27 68 -57 389 -276 480 -328 28 -16 66 -41 85 -57 19 -15 42 -28
50 -28 9 0 56 39 105 86 277 264 474 460 475 471 0 7 -14 19 -30 28 -17 9 -47
28 -68 43 -65 45 -202 145 -241 174 -20 15 -52 39 -71 52 -169 121 -619 481
-726 581 -18 17 -81 75 -140 130 -60 55 -135 126 -166 157 -31 32 -65 58 -75
58 -11 0 -43 -31 -78 -76z"/>
<path d="M25169 19163 c-45 -61 -135 -168 -203 -242 -23 -25 -66 -72 -96 -105
-30 -34 -104 -112 -165 -174 -118 -121 -120 -127 -63 -162 14 -8 42 -27 64
-42 21 -15 71 -49 109 -75 39 -27 86 -60 105 -74 19 -14 96 -71 170 -126 129
-96 224 -181 282 -250 31 -39 47 -41 84 -9 16 14 56 46 88 71 154 117 506 463
506 496 0 27 -102 161 -185 244 -99 98 -298 266 -452 380 -54 40 -112 85 -129
99 -47 39 -66 34 -115 -31z"/>
<path d="M22061 18951 c-7 -5 -23 -24 -35 -44 -11 -19 -43 -68 -69 -107 -58
-87 -142 -236 -152 -270 -4 -13 -17 -38 -29 -53 l-21 -29 45 -40 c47 -43 50
-45 261 -204 218 -163 385 -280 466 -324 21 -11 58 -34 83 -50 43 -28 69 -43
185 -109 28 -15 70 -40 95 -54 25 -15 77 -42 115 -61 39 -19 87 -46 108 -60
21 -14 46 -26 55 -26 24 0 365 338 358 356 -3 7 -20 21 -38 30 -18 9 -46 27
-61 40 -16 13 -33 24 -39 24 -6 0 -26 14 -45 30 -18 17 -38 30 -43 30 -10 0
-66 35 -120 75 -19 15 -62 44 -95 66 -89 59 -221 151 -320 224 -72 54 -317
247 -429 340 -43 36 -82 65 -85 65 -3 0 -43 36 -89 80 -45 44 -83 80 -85 80
-1 0 -8 -4 -16 -9z"/>
<path d="M24430 18355 c-18 -13 -83 -73 -145 -132 -177 -171 -319 -301 -356
-326 -55 -37 -50 -56 28 -100 38 -21 88 -51 113 -67 46 -30 129 -81 165 -103
11 -6 43 -25 70 -42 28 -18 75 -47 105 -65 55 -34 70 -44 144 -101 21 -16 47
-29 57 -29 20 0 260 122 298 151 13 11 28 19 33 19 5 0 24 11 42 25 18 14 37
25 42 25 5 0 41 23 79 50 39 28 84 57 101 64 49 23 60 42 43 72 -23 43 -149
150 -304 257 -39 27 -90 64 -115 82 -61 45 -356 245 -362 245 -2 0 -19 -11
-38 -25z"/>
<path d="M21682 18243 c-41 -80 -39 -227 4 -343 25 -64 40 -86 109 -155 77
-77 167 -139 286 -197 15 -7 67 -32 115 -56 154 -75 188 -90 219 -98 17 -3 44
-15 61 -25 17 -10 55 -24 85 -30 30 -6 70 -19 89 -29 19 -10 55 -21 80 -25 25
-4 61 -14 80 -22 55 -23 156 -41 173 -31 9 4 21 25 27 46 7 20 23 51 36 69 13
17 24 38 24 46 0 8 -59 44 -142 86 -79 39 -168 86 -198 103 -30 17 -76 41
-102 54 -25 13 -49 28 -53 33 -3 6 -25 20 -48 31 -23 11 -62 33 -87 50 -25 16
-65 41 -90 55 -25 14 -70 43 -100 65 -30 21 -59 39 -64 39 -9 1 -71 44 -129
91 -18 14 -67 50 -111 80 -43 30 -112 83 -153 118 -79 66 -97 73 -111 45z"/>
<path d="M23718 17708 c-19 -18 -64 -58 -98 -88 -185 -161 -379 -357 -380
-382 0 -11 10 -20 28 -23 15 -3 50 -13 77 -21 128 -38 576 -38 715 1 30 8 89
22 130 31 41 9 95 27 120 40 25 13 59 24 76 24 66 0 66 62 1 74 -19 4 -43 16
-53 28 -11 11 -32 27 -49 35 -16 8 -55 29 -85 48 -30 18 -76 46 -102 61 -27
15 -48 31 -48 36 0 4 -6 8 -12 8 -12 0 -86 43 -218 125 -30 19 -58 34 -61 35
-3 0 -22 -15 -41 -32z"/>
<path d="M15295 6380 c-638 -42 -1063 -195 -1277 -460 -78 -96 -137 -272 -125
-372 4 -27 17 -73 30 -101 77 -167 269 -244 1130 -456 653 -161 859 -247 1023
-424 67 -73 94 -114 124 -192 32 -84 33 -231 1 -330 -32 -99 -75 -185 -121
-244 -23 -28 -35 -51 -27 -51 21 0 166 101 229 159 119 110 209 283 223 431
23 225 -120 437 -383 570 -43 22 -107 49 -142 61 -115 37 -223 70 -295 89 -38
11 -97 26 -130 35 -33 9 -184 48 -335 86 -283 73 -300 77 -385 102 -394 116
-540 194 -590 314 -39 94 4 219 106 303 116 97 348 189 579 230 157 28 535 39
717 20 435 -44 737 -172 828 -351 30 -58 45 -148 36 -217 -4 -29 -5 -54 -3
-57 8 -8 56 -6 68 3 16 11 61 167 94 327 6 33 18 92 27 130 8 39 19 93 25 120
6 28 14 63 19 79 5 16 9 44 9 62 0 32 -2 33 -47 39 -27 3 -70 10 -98 15 -78
15 -311 43 -570 70 -139 14 -583 20 -740 10z"/>
<path d="M17317 6238 c-33 -69 -87 -188 -87 -192 0 -2 -22 -52 -50 -110 -27
-58 -50 -108 -50 -111 0 -3 -16 -40 -36 -82 -20 -43 -65 -143 -101 -223 -36
-80 -82 -181 -103 -226 -20 -44 -43 -97 -51 -117 -19 -55 -80 -130 -117 -146
-30 -14 -51 -49 -39 -68 3 -4 88 -8 189 -8 l183 0 3 26 c3 22 -3 28 -30 38
-74 28 -83 37 -86 86 -3 40 6 65 64 185 48 101 72 140 88 144 11 3 114 6 228
6 l207 0 15 -28 c25 -48 93 -234 105 -289 14 -58 3 -93 -28 -93 -10 0 -29 -9
-42 -19 -19 -16 -22 -23 -14 -37 10 -15 35 -17 234 -18 206 -1 225 1 235 17 9
15 7 22 -13 38 -13 10 -35 19 -50 20 -68 2 -114 65 -181 249 -7 19 -18 49 -25
65 -7 17 -27 68 -45 115 -18 47 -38 99 -45 115 -7 17 -38 98 -70 180 -31 83
-63 164 -69 180 -7 17 -23 57 -36 90 -48 129 -94 241 -103 253 -5 6 -20 12
-32 12 -17 0 -29 -12 -48 -52z m88 -458 c41 -101 75 -190 75 -197 0 -6 -16
-15 -34 -19 -44 -8 -292 -1 -302 8 -7 8 11 55 76 193 20 44 49 108 65 143 15
34 32 61 37 60 4 -2 42 -86 83 -188z"/>
<path d="M19553 6248 c-12 -24 -31 -65 -43 -93 -13 -27 -35 -77 -50 -110 -15
-33 -37 -82 -50 -110 -12 -27 -33 -72 -45 -100 -13 -27 -33 -72 -45 -100 -13
-27 -36 -78 -51 -113 -16 -34 -29 -64 -29 -66 0 -2 -20 -46 -44 -97 -24 -52
-58 -128 -76 -169 -65 -150 -81 -181 -112 -215 -17 -20 -46 -42 -65 -50 -29
-12 -34 -19 -31 -41 l3 -27 182 -3 c150 -1 185 1 195 13 16 20 -1 45 -38 57
-54 16 -76 31 -85 55 -12 31 -1 65 73 223 44 92 66 128 82 132 11 3 114 6 227
6 153 0 209 -3 217 -12 12 -16 95 -237 112 -301 15 -56 3 -97 -29 -97 -10 0
-29 -8 -41 -18 -18 -15 -21 -22 -12 -38 9 -18 23 -19 233 -19 202 1 223 2 233
18 9 15 6 22 -13 38 -13 10 -35 19 -50 20 -38 1 -82 30 -104 69 -11 19 -96
231 -188 470 -93 239 -173 444 -178 455 -5 11 -28 69 -51 130 -47 124 -54 135
-84 135 -16 0 -28 -12 -43 -42z m39 -360 c71 -171 121 -309 114 -316 -10 -9
-322 -9 -332 0 -7 8 3 34 71 183 23 50 54 118 70 153 16 34 32 62 36 62 4 0
22 -37 41 -82z"/>
<path d="M18715 6259 c-77 -5 -246 -6 -375 -2 -253 6 -267 4 -250 -43 6 -16
20 -23 54 -28 56 -9 92 -48 101 -109 3 -23 5 -254 3 -514 -3 -454 -4 -473 -23
-499 -11 -14 -36 -32 -54 -38 -41 -13 -60 -38 -44 -58 9 -10 59 -13 235 -12
122 1 227 2 231 3 5 1 7 13 5 28 -3 25 -9 29 -58 40 -61 13 -94 44 -104 96 -3
16 -6 121 -6 233 l0 204 28 11 c33 13 275 6 314 -9 20 -8 30 -23 39 -54 16
-54 37 -80 63 -76 20 3 21 10 24 186 2 162 1 183 -14 189 -24 9 -47 -9 -60
-47 -6 -19 -23 -44 -38 -57 -27 -23 -32 -23 -189 -21 l-162 3 -3 215 c-1 118
0 225 3 237 7 31 87 39 259 25 153 -13 181 -23 190 -72 3 -16 9 -44 12 -60 4
-22 13 -32 31 -36 36 -9 53 17 53 83 0 30 5 74 11 98 6 25 8 56 5 70 -6 24
-10 25 -74 23 -37 0 -130 -5 -207 -9z"/>
<path d="M20343 6258 c-14 -7 -23 -20 -23 -34 0 -19 8 -25 43 -35 23 -6 51
-15 62 -21 50 -23 50 -22 53 -513 2 -253 0 -484 -3 -513 -7 -57 -43 -112 -74
-112 -25 0 -62 -42 -52 -59 12 -19 668 -26 750 -9 109 23 216 130 209 207 -4
53 -35 53 -76 2 -63 -78 -207 -121 -409 -121 -68 0 -133 5 -144 10 -18 10 -19
27 -19 529 l0 518 23 33 c14 22 37 38 64 47 49 17 63 41 35 63 -16 13 -34 15
-103 8 -74 -7 -257 -3 -299 7 -8 2 -25 -1 -37 -7z"/>
<path d="M13564 5747 c-84 -85 -135 -155 -168 -228 -79 -181 -54 -342 75 -483
142 -156 306 -223 889 -367 638 -156 800 -204 963 -282 113 -54 168 -101 203
-172 24 -50 26 -63 22 -138 -4 -64 -11 -95 -34 -142 -35 -72 -114 -159 -197
-218 -107 -76 -301 -162 -426 -188 -254 -53 -513 -53 -807 0 -199 36 -442 160
-580 297 -118 118 -164 225 -164 387 l0 107 -40 0 c-33 0 -42 -4 -54 -27 -38
-75 -87 -285 -121 -518 -19 -131 -30 -187 -57 -279 -15 -53 -17 -71 -8 -76 7
-4 60 -11 119 -15 110 -7 281 -26 461 -51 569 -80 853 -89 1185 -38 345 53
627 183 846 391 155 148 220 278 222 443 0 87 -2 101 -31 161 -51 109 -154
190 -342 272 -36 16 -74 32 -85 37 -38 17 -231 79 -325 104 -52 15 -111 30
-130 36 -37 10 -203 48 -305 70 -164 35 -434 107 -563 149 -284 94 -452 231
-516 423 -39 117 -30 243 25 355 12 23 20 46 18 51 -2 6 -36 -22 -75 -61z"/>
<path d="M19797 4722 c-10 -10 -17 -21 -17 -25 0 -3 -15 -38 -34 -79 -18 -40
-43 -94 -55 -120 -60 -134 -64 -144 -145 -321 -14 -32 -26 -59 -26 -61 0 -2
-20 -46 -44 -97 -68 -147 -106 -230 -106 -234 0 -2 -25 -57 -56 -122 -59 -126
-90 -166 -142 -189 -28 -11 -33 -18 -30 -41 l3 -27 182 -2 c138 -2 185 1 193
11 16 19 2 42 -33 55 -79 28 -82 32 -82 91 0 45 10 73 58 174 32 66 66 128 74
138 14 15 39 17 234 17 l218 0 15 -28 c25 -48 93 -234 105 -289 15 -62 5 -88
-39 -98 -34 -7 -53 -34 -40 -55 7 -11 54 -14 234 -15 222 -1 236 1 236 30 0
13 -37 36 -73 46 -77 20 -84 29 -152 184 -7 17 -102 260 -210 540 -108 281
-202 516 -207 523 -15 17 -42 15 -61 -6z m16 -364 c90 -219 127 -314 127 -324
0 -8 -17 -14 -42 -16 -79 -6 -298 3 -298 12 0 16 172 390 180 390 4 0 19 -28
33 -62z"/>
<path d="M17190 4708 c-19 -5 -53 -14 -75 -20 -95 -27 -188 -82 -265 -158
-121 -119 -178 -257 -187 -447 -15 -327 155 -574 462 -669 47 -14 92 -18 210
-18 136 0 157 2 232 27 146 49 269 148 351 282 103 169 121 386 52 617 -15 52
-99 176 -151 223 -136 125 -277 176 -482 174 -62 -1 -128 -5 -147 -11z m213
-83 c231 -49 409 -266 436 -532 22 -216 -37 -397 -167 -514 -178 -160 -430
-156 -623 10 -75 65 -147 180 -187 300 -6 19 -17 78 -24 132 -26 208 33 405
152 513 103 93 251 126 413 91z"/>
<path d="M18201 4706 c-14 -6 -21 -17 -19 -29 3 -22 12 -28 79 -51 77 -27 74
-5 74 -570 0 -568 4 -537 -81 -579 -37 -18 -44 -26 -42 -46 l3 -25 345 -2
c234 -2 363 1 399 8 108 23 203 116 205 200 1 61 -22 61 -82 1 -44 -45 -71
-59 -172 -91 -93 -30 -328 -38 -368 -13 -25 15 -32 137 -32 552 0 515 4 544
86 572 43 15 60 36 51 61 -6 16 -21 17 -144 11 -76 -3 -170 -2 -209 2 -44 6
-80 5 -93 -1z"/>
<path d="M22855 4705 c-178 -44 -344 -174 -425 -333 -113 -224 -106 -506 19
-701 39 -61 142 -159 204 -195 26 -16 80 -40 120 -54 65 -23 86 -26 222 -26
137 1 157 3 230 28 44 15 120 50 170 78 49 29 105 57 125 64 l35 12 5 214 c3
117 9 219 13 226 5 6 23 19 40 28 40 21 48 33 36 56 -9 16 -27 18 -210 18
-176 0 -200 -2 -206 -16 -11 -29 12 -47 71 -59 32 -7 62 -18 67 -26 11 -18 12
-341 0 -371 -13 -33 -88 -104 -143 -133 -100 -53 -273 -52 -386 3 -111 53
-233 201 -275 332 -57 177 -45 395 29 548 35 72 130 172 196 205 139 70 323
56 484 -38 68 -39 175 -149 210 -215 31 -58 60 -74 83 -46 10 12 11 29 2 78
-6 35 -15 101 -20 147 -11 99 -18 110 -64 93 -28 -10 -38 -9 -81 13 -47 24
-134 52 -229 74 -62 14 -258 12 -322 -4z"/>
<path d="M24155 4708 c-60 -5 -155 -6 -210 -3 -110 7 -135 2 -135 -25 0 -24
18 -37 66 -45 48 -7 80 -37 94 -86 14 -49 13 -904 -1 -971 -14 -65 -27 -81
-85 -103 -39 -15 -45 -20 -42 -43 l3 -26 250 -1 250 0 3 27 c3 28 -8 34 -100
53 -15 3 -40 16 -55 29 l-28 24 -3 231 -3 231 70 0 c38 0 77 -3 86 -6 9 -4 88
-114 175 -244 158 -236 205 -291 279 -326 45 -22 162 -30 219 -14 36 9 43 15
40 32 -2 17 -14 24 -54 33 -56 13 -105 46 -151 102 -46 59 -305 445 -310 464
-3 11 8 24 31 38 19 12 57 46 84 76 106 115 119 293 32 414 -33 45 -117 104
-165 115 -120 28 -207 34 -340 24z m219 -118 c61 -26 120 -81 147 -138 27 -58
30 -177 5 -234 -21 -48 -79 -95 -140 -113 -60 -18 -197 -20 -214 -3 -13 13
-18 474 -4 494 4 6 14 14 22 17 26 11 138 -3 184 -23z"/>
<path d="M34795 4708 c-197 -49 -365 -188 -448 -370 -45 -99 -59 -171 -58
-313 0 -111 4 -141 25 -205 33 -103 69 -162 142 -239 72 -76 142 -122 246
-159 66 -23 87 -26 223 -26 137 1 157 3 230 28 44 15 123 51 175 81 52 30 107
57 122 60 15 4 32 12 37 19 6 8 12 100 13 227 l3 214 40 21 c30 15 40 26 40
45 l0 24 -204 0 c-186 0 -205 -2 -215 -18 -15 -24 10 -43 70 -52 82 -12 86
-21 82 -214 -3 -164 -4 -168 -31 -209 -62 -94 -174 -146 -317 -145 -188 1
-332 98 -434 293 -50 97 -69 184 -69 325 0 132 16 211 61 305 33 68 140 178
203 208 134 65 319 48 475 -43 67 -39 174 -148 213 -217 34 -59 57 -72 80 -44
9 11 8 41 -3 128 -9 62 -17 128 -18 147 -4 44 -28 60 -62 42 -17 -10 -29 -11
-38 -4 -18 13 -134 59 -183 71 -111 28 -144 32 -248 31 -61 -1 -130 -6 -152
-11z"/>
<path d="M20561 4702 c-6 -2 -11 -14 -11 -27 0 -25 8 -29 73 -41 23 -4 46 -17
61 -35 33 -39 39 -142 34 -634 -4 -461 -2 -451 -89 -487 -44 -18 -50 -24 -47
-47 l3 -25 248 -1 c254 0 275 3 261 38 -6 17 -43 31 -105 41 -80 14 -99 75
-99 326 0 198 -3 190 80 190 38 0 76 -3 85 -7 10 -3 87 -111 172 -239 154
-234 205 -293 281 -330 78 -38 262 -26 262 17 0 13 -12 21 -42 29 -104 26
-142 64 -285 279 -65 97 -120 178 -123 181 -13 12 -70 108 -70 118 0 6 15 19
33 31 47 29 112 100 139 151 31 60 38 209 13 273 -34 86 -90 137 -196 179 -51
20 -73 21 -360 23 -168 0 -311 -1 -318 -3z m552 -110 c91 -41 148 -111 168
-210 27 -130 -34 -242 -150 -276 -60 -17 -197 -21 -221 -6 -12 8 -16 47 -18
231 -4 229 2 272 36 283 33 10 143 -4 185 -22z"/>
<path d="M27330 4695 c-18 -22 4 -52 45 -59 52 -10 110 -67 137 -134 23 -56
23 -61 23 -499 0 -504 6 -472 -90 -522 -39 -21 -50 -32 -50 -51 l0 -25 205 0
205 0 3 27 c3 25 -1 28 -50 43 -71 21 -85 34 -97 86 -12 50 -14 704 -2 733 9
23 10 21 477 -514 339 -389 359 -408 391 -364 10 14 13 134 14 573 0 403 3
566 12 591 9 25 24 41 52 56 25 13 41 28 43 42 2 12 0 22 -5 23 -45 5 -406 4
-414 -2 -15 -9 -8 -40 11 -50 8 -4 42 -16 74 -26 80 -24 97 -49 107 -155 11
-117 11 -728 0 -728 -5 0 -21 15 -36 33 -15 17 -44 50 -64 72 -20 22 -86 96
-146 165 -60 69 -124 141 -141 160 -17 19 -82 94 -145 165 -62 72 -120 137
-129 145 -8 8 -55 61 -103 117 -49 56 -96 104 -105 106 -9 3 -60 5 -114 6 -71
0 -99 -3 -108 -14z"/>
<path d="M30444 4695 c-12 -30 2 -48 46 -61 52 -16 92 -50 119 -102 39 -77 42
-130 39 -559 -3 -468 1 -443 -91 -493 -57 -31 -60 -34 -53 -57 5 -17 20 -18
208 -18 l203 0 3 26 c3 27 -15 39 -78 53 -14 3 -34 12 -45 20 -19 14 -20 29
-25 396 -3 209 -3 387 0 395 8 21 19 9 205 -205 93 -107 181 -208 196 -225 15
-16 109 -124 210 -240 101 -115 188 -213 194 -217 16 -12 53 -9 62 5 4 6 10
271 13 587 4 444 8 580 18 598 7 12 30 30 50 40 24 11 38 25 40 40 2 12 0 22
-5 23 -4 0 -97 2 -206 3 -157 1 -200 -1 -209 -12 -20 -23 4 -44 70 -62 127
-35 125 -27 130 -502 3 -259 1 -388 -6 -388 -6 0 -22 15 -38 33 -15 17 -54 63
-88 101 -34 38 -65 74 -71 80 -5 6 -42 47 -81 91 -38 44 -139 159 -224 255
-216 247 -269 307 -316 359 l-42 45 -111 3 c-88 1 -113 -1 -117 -12z"/>
<path d="M33078 4692 c-19 -22 3 -45 53 -57 58 -13 73 -23 93 -62 14 -28 16
-87 16 -506 0 -560 1 -554 -97 -597 -24 -10 -43 -23 -43 -29 0 -35 6 -36 257
-36 226 0 247 2 257 18 14 23 -12 44 -63 52 -53 9 -101 35 -117 66 -11 22 -14
77 -14 244 l0 215 71 0 c39 0 79 -5 89 -10 11 -6 89 -115 173 -243 85 -128
171 -248 192 -266 62 -54 130 -81 205 -81 142 0 203 53 85 75 -70 12 -129 66
-223 205 -163 239 -242 359 -242 369 0 6 10 16 22 22 34 18 116 98 139 136 62
101 63 249 1 348 -27 43 -37 53 -94 90 -85 56 -98 58 -436 59 -254 2 -315 -1
-324 -12z m555 -100 c57 -25 112 -75 145 -130 23 -41 26 -57 27 -137 0 -85 -2
-92 -32 -137 -46 -65 -101 -90 -217 -96 -146 -7 -136 -26 -136 256 0 130 4
242 8 248 4 6 14 14 22 17 27 12 139 -2 183 -21z"/>
<path d="M35629 4693 c-22 -25 -1 -50 48 -57 72 -10 108 -39 177 -145 116
-179 181 -280 191 -298 6 -10 29 -48 52 -84 62 -99 65 -117 61 -355 -4 -243
-7 -256 -83 -275 -49 -12 -68 -29 -63 -56 3 -16 22 -17 226 -18 210 -2 224 -1
233 17 15 28 -4 46 -56 54 -83 12 -80 -1 -83 298 l-3 265 173 257 c95 142 186
271 202 287 16 16 50 39 75 50 44 21 64 53 43 66 -6 3 -102 6 -214 5 l-203 0
-3 -27 c-2 -19 2 -29 15 -33 59 -18 103 -45 109 -68 7 -28 -21 -89 -87 -191
-15 -22 -52 -79 -83 -127 -31 -48 -60 -89 -65 -92 -10 -7 -237 345 -260 402
-15 37 -7 53 38 75 24 11 43 56 24 58 -4 0 -108 2 -231 3 -166 1 -226 -2 -233
-11z"/>
<path d="M25100 4679 c-16 -29 1 -45 59 -53 60 -8 78 -27 91 -99 16 -82 9
-985 -7 -1013 -7 -11 -32 -29 -57 -38 -46 -18 -64 -42 -46 -60 6 -6 115 -12
293 -14 508 -8 468 -9 512 15 98 51 192 203 155 248 -20 24 -37 18 -88 -33
-52 -52 -120 -90 -186 -104 -69 -15 -238 -27 -299 -21 -88 9 -88 7 -85 274 l3
224 140 3 c202 4 228 -7 250 -110 6 -31 48 -49 68 -29 16 16 20 350 5 369 -6
6 -20 12 -33 12 -23 0 -39 -24 -49 -72 -10 -45 -49 -57 -199 -65 -74 -3 -146
-3 -160 1 l-27 6 0 235 c0 221 1 235 19 245 25 13 266 13 346 0 69 -11 95 -34
95 -86 0 -49 19 -84 45 -84 35 0 43 18 56 132 10 87 10 110 0 122 -12 14 -67
16 -452 16 -433 0 -438 0 -449 -21z"/>
<path d="M26254 4685 c-13 -34 1 -49 51 -58 27 -5 57 -15 66 -23 35 -31 39
-93 39 -579 0 -539 3 -520 -75 -549 -40 -16 -46 -21 -43 -44 l3 -26 285 -4
c513 -8 471 -9 516 15 91 48 180 185 156 238 -17 36 -37 31 -93 -24 -53 -52
-117 -88 -184 -103 -62 -14 -229 -26 -293 -21 -94 7 -93 5 -90 272 l3 226 147
3 c190 3 210 -4 233 -82 13 -45 21 -57 41 -62 14 -4 30 -2 37 5 13 13 18 337
5 364 -17 34 -78 6 -78 -35 0 -60 -38 -76 -202 -84 -75 -4 -147 -4 -162 0
l-26 6 0 235 c0 221 1 235 19 245 25 13 266 13 346 0 67 -11 95 -34 95 -80 0
-50 20 -90 45 -90 12 0 27 6 33 13 15 17 36 199 28 232 l-6 25 -446 0 c-374 0
-446 -3 -450 -15z"/>
<path d="M29350 4679 c-16 -29 1 -45 56 -52 59 -6 85 -32 95 -94 9 -56 10
-954 0 -998 -5 -24 -16 -35 -59 -55 -46 -21 -53 -28 -50 -50 l3 -25 285 -4
c157 -2 328 -4 380 -4 112 -2 151 14 217 86 81 88 108 180 58 193 -22 5 -33
-2 -73 -43 -50 -52 -118 -90 -186 -105 -69 -15 -197 -25 -276 -21 -114 5 -111
-3 -108 272 l3 226 140 3 c202 4 228 -7 250 -110 3 -19 14 -30 30 -34 48 -12
51 2 52 190 1 189 -3 204 -51 192 -18 -4 -26 -16 -35 -51 -16 -63 -42 -74
-194 -82 -68 -3 -140 -3 -160 1 l-37 7 0 234 c0 230 0 235 22 246 27 14 350 7
390 -9 34 -14 46 -37 56 -104 6 -47 10 -53 33 -56 14 -2 31 4 38 12 15 17 35
197 27 231 l-6 25 -445 0 c-437 0 -445 -1 -455 -21z"/>
<path d="M31940 4681 c-14 -27 8 -48 59 -54 53 -7 79 -31 91 -83 15 -63 12
-994 -3 -1023 -13 -25 -22 -32 -75 -52 -27 -10 -33 -16 -30 -38 l3 -25 285 -4
c513 -8 471 -9 515 15 114 60 212 241 141 259 -20 5 -34 -4 -79 -48 -87 -87
-191 -119 -398 -120 -182 -2 -170 -21 -167 271 l3 226 140 3 c181 4 210 -4
236 -64 10 -25 19 -52 19 -60 0 -18 48 -30 63 -15 18 18 19 357 1 372 -29 24
-50 7 -75 -59 -6 -18 -24 -39 -40 -48 -33 -17 -254 -31 -312 -20 l-37 7 0 234
c0 230 0 235 22 246 27 14 350 7 390 -9 34 -14 51 -45 58 -107 4 -45 8 -50 31
-53 14 -2 31 4 39 13 14 17 34 197 25 232 l-5 22 -445 0 c-416 -1 -446 -2
-455 -18z"/>
<path d="M13040 3010 l0 -30 11885 0 11885 0 0 30 0 30 -11885 0 -11885 0 0
-30z"/>
</g>
</svg>
