<svg xmlns="http://www.w3.org/2000/svg" width="76.224" height="91.548" viewBox="0 0 76.224 91.548">
  <g id="Group_1543" data-name="Group 1543" transform="translate(-481.525 -1120.495)">
    <rect id="Rectangle_1288" data-name="Rectangle 1288" width="47.873" height="28.109" transform="translate(508.877 1182.934)" fill="none" stroke="#131ca2" stroke-linejoin="round" stroke-width="2"/>
    <path id="Path_2325" data-name="Path 2325" d="M539.983,1234.748l16.766,7.352H508.877l-26.352-11.556H500.2" transform="translate(0 -59.199)" fill="none" stroke="#131ca2" stroke-linejoin="round" stroke-width="2"/>
    <path id="Path_2326" data-name="Path 2326" d="M510.778,1201.949l-26.352-12.16,23.332-20.423,26.183,9.42Z" transform="translate(-1.023 -26.289)" fill="none" stroke="#39e5be" stroke-linejoin="round" stroke-width="2"/>
    <path id="Path_2327" data-name="Path 2327" d="M508.877,1270.247l-26.352-11.584v-28.108l26.352,11.584Z" transform="translate(0 -59.204)" fill="none" stroke="#131ca2" stroke-linejoin="round" stroke-width="2"/>
    <rect id="Rectangle_1289" data-name="Rectangle 1289" width="12.407" height="23.168" transform="translate(528.201 1187.875)" fill="none" stroke="#131ca2" stroke-linejoin="round" stroke-width="2"/>
    <rect id="Rectangle_1290" data-name="Rectangle 1290" width="7.796" height="15.152" transform="translate(514.037 1187.326)" fill="none" stroke="#131ca2" stroke-linejoin="round" stroke-width="2"/>
    <rect id="Rectangle_1291" data-name="Rectangle 1291" width="7.796" height="15.152" transform="translate(545.769 1187.326)" fill="none" stroke="#131ca2" stroke-linejoin="round" stroke-width="2"/>
    <path id="Path_2328" data-name="Path 2328" d="M511.893,1268.282l-13.176-5.792v-14.054l13.176,5.792Z" transform="translate(-8.711 -68.823)" fill="none" stroke="#131ca2" stroke-linejoin="round" stroke-width="2"/>
    <path id="Path_2329" data-name="Path 2329" d="M541.455,1212.915l23.163-23.163,23.831,23.163H541.455Z" transform="translate(-31.7 -37.255)" fill="none" stroke="#39e5be" stroke-linejoin="round" stroke-width="2"/>
    <path id="Path_2330" data-name="Path 2330" d="M509.505,1192.8,533.3,1165.03l7.7,9.109" transform="translate(-14.513 -23.956)" fill="none" stroke="#39e5be" stroke-linejoin="round" stroke-width="2"/>
    <path id="Path_2331" data-name="Path 2331" d="M560.822,1120.495v20.578" transform="translate(-42.118 0)" fill="none" stroke="#39e5be" stroke-linejoin="bevel" stroke-width="2"/>
  </g>
</svg>
