<svg xmlns="http://www.w3.org/2000/svg" width="26.414" height="79.834" viewBox="0 0 26.414 79.834">
  <g id="Group_1541" data-name="Group 1541" transform="translate(-1581 -3259.837)">
    <path id="Path_2323" data-name="Path 2323" d="M53.041,25.869A3.441,3.441,0,1,0,49.6,22.429a3.441,3.441,0,0,0,3.441,3.441Zm0-4.525a1.079,1.079,0,1,1-1.079,1.079,1.079,1.079,0,0,1,1.079-1.079Z" transform="translate(1535.21 3248.866)" fill="#39e5be"/>
    <circle id="Ellipse_152" data-name="Ellipse 152" cx="1.751" cy="1.751" r="1.751" transform="translate(1596.589 3314.994)" fill="#39e5be"/>
    <circle id="Ellipse_155" data-name="Ellipse 155" cx="1.751" cy="1.751" r="1.751" transform="translate(1592.557 3308.243)" fill="#39e5be"/>
    <circle id="Ellipse_153" data-name="Ellipse 153" cx="1.239" cy="1.239" r="1.239" transform="translate(1596.589 3324.233)" fill="#39e5be"/>
    <circle id="Ellipse_154" data-name="Ellipse 154" cx="1.239" cy="1.239" r="1.239" transform="translate(1591.948 3320.575)" fill="#39e5be"/>
    <path id="Path_2324" data-name="Path 2324" d="M68.607,17.153a5.524,5.524,0,1,0-5.524-5.524,5.524,5.524,0,0,0,5.524,5.524Zm0-8.686a3.163,3.163,0,1,1-3.163,3.163,3.163,3.163,0,0,1,3.163-3.163Z" transform="translate(1529.474 3253.732)" fill="#39e5be"/>
    <path id="TEST_TUBE" data-name="TEST TUBE" d="M70.836,21.372a4.13,4.13,0,0,0-4.125-4.125H48.55a4.123,4.123,0,0,0-.567,8.207V70.686a9.648,9.648,0,0,0,19.29,0V25.454a4.128,4.128,0,0,0,3.564-4.082ZM64.916,70.686a7.286,7.286,0,0,1-14.567,0V70.4h1.943a1.181,1.181,0,1,0,0-2.361H50.344V65.294h1.943a1.181,1.181,0,1,0,0-2.361H50.344V60.191h1.943a1.181,1.181,0,1,0,0-2.361H50.344V55.085h1.943a1.181,1.181,0,1,0,0-2.361H50.344V49.98h1.943a1.181,1.181,0,1,0,0-2.361H50.344V44.876h1.943a1.181,1.181,0,1,0,0-2.361H50.344V39.771h1.943a1.181,1.181,0,1,0,0-2.361H50.344V34.666h1.943a1.181,1.181,0,1,0,0-2.361H50.344V29.561h1.943a1.181,1.181,0,1,0,0-2.361H50.344V25.5H64.916Zm1.8-47.549H48.55a1.764,1.764,0,1,1,0-3.528H66.71a1.764,1.764,0,0,1,0,3.528Z" transform="translate(1536.578 3259.566)" fill="#131ca2"/>
  </g>
</svg>
